G75*
%MOIN*%
%OFA0B0*%
%FSLAX25Y25*%
%IPPOS*%
%LPD*%
%AMOC8*
5,1,8,0,0,1.08239X$1,22.5*
%
%ADD10C,0.00000*%
%ADD11C,0.00394*%
%ADD12C,0.05543*%
%ADD13C,0.06000*%
%ADD14R,0.06000X0.06000*%
%ADD15R,0.05200X0.05200*%
%ADD16C,0.05200*%
%ADD17C,0.05937*%
%ADD18C,0.06000*%
%ADD19OC8,0.06000*%
%ADD20C,0.03169*%
%ADD21C,0.01000*%
%ADD22C,0.01600*%
%ADD23C,0.01200*%
%ADD24C,0.10000*%
%ADD25C,0.03562*%
%ADD26C,0.02400*%
%ADD27C,0.05906*%
D10*
X0048494Y0021469D02*
X0048496Y0021617D01*
X0048502Y0021765D01*
X0048512Y0021913D01*
X0048526Y0022060D01*
X0048544Y0022207D01*
X0048565Y0022353D01*
X0048591Y0022499D01*
X0048621Y0022644D01*
X0048654Y0022788D01*
X0048692Y0022931D01*
X0048733Y0023073D01*
X0048778Y0023214D01*
X0048826Y0023354D01*
X0048879Y0023493D01*
X0048935Y0023630D01*
X0048995Y0023765D01*
X0049058Y0023899D01*
X0049125Y0024031D01*
X0049196Y0024161D01*
X0049270Y0024289D01*
X0049347Y0024415D01*
X0049428Y0024539D01*
X0049512Y0024661D01*
X0049599Y0024780D01*
X0049690Y0024897D01*
X0049784Y0025012D01*
X0049880Y0025124D01*
X0049980Y0025234D01*
X0050082Y0025340D01*
X0050188Y0025444D01*
X0050296Y0025545D01*
X0050407Y0025643D01*
X0050520Y0025739D01*
X0050636Y0025831D01*
X0050754Y0025920D01*
X0050875Y0026005D01*
X0050998Y0026088D01*
X0051123Y0026167D01*
X0051250Y0026243D01*
X0051379Y0026315D01*
X0051510Y0026384D01*
X0051643Y0026449D01*
X0051778Y0026510D01*
X0051914Y0026568D01*
X0052051Y0026623D01*
X0052190Y0026673D01*
X0052331Y0026720D01*
X0052472Y0026763D01*
X0052615Y0026803D01*
X0052759Y0026838D01*
X0052903Y0026870D01*
X0053049Y0026897D01*
X0053195Y0026921D01*
X0053342Y0026941D01*
X0053489Y0026957D01*
X0053636Y0026969D01*
X0053784Y0026977D01*
X0053932Y0026981D01*
X0054080Y0026981D01*
X0054228Y0026977D01*
X0054376Y0026969D01*
X0054523Y0026957D01*
X0054670Y0026941D01*
X0054817Y0026921D01*
X0054963Y0026897D01*
X0055109Y0026870D01*
X0055253Y0026838D01*
X0055397Y0026803D01*
X0055540Y0026763D01*
X0055681Y0026720D01*
X0055822Y0026673D01*
X0055961Y0026623D01*
X0056098Y0026568D01*
X0056234Y0026510D01*
X0056369Y0026449D01*
X0056502Y0026384D01*
X0056633Y0026315D01*
X0056762Y0026243D01*
X0056889Y0026167D01*
X0057014Y0026088D01*
X0057137Y0026005D01*
X0057258Y0025920D01*
X0057376Y0025831D01*
X0057492Y0025739D01*
X0057605Y0025643D01*
X0057716Y0025545D01*
X0057824Y0025444D01*
X0057930Y0025340D01*
X0058032Y0025234D01*
X0058132Y0025124D01*
X0058228Y0025012D01*
X0058322Y0024897D01*
X0058413Y0024780D01*
X0058500Y0024661D01*
X0058584Y0024539D01*
X0058665Y0024415D01*
X0058742Y0024289D01*
X0058816Y0024161D01*
X0058887Y0024031D01*
X0058954Y0023899D01*
X0059017Y0023765D01*
X0059077Y0023630D01*
X0059133Y0023493D01*
X0059186Y0023354D01*
X0059234Y0023214D01*
X0059279Y0023073D01*
X0059320Y0022931D01*
X0059358Y0022788D01*
X0059391Y0022644D01*
X0059421Y0022499D01*
X0059447Y0022353D01*
X0059468Y0022207D01*
X0059486Y0022060D01*
X0059500Y0021913D01*
X0059510Y0021765D01*
X0059516Y0021617D01*
X0059518Y0021469D01*
X0059516Y0021321D01*
X0059510Y0021173D01*
X0059500Y0021025D01*
X0059486Y0020878D01*
X0059468Y0020731D01*
X0059447Y0020585D01*
X0059421Y0020439D01*
X0059391Y0020294D01*
X0059358Y0020150D01*
X0059320Y0020007D01*
X0059279Y0019865D01*
X0059234Y0019724D01*
X0059186Y0019584D01*
X0059133Y0019445D01*
X0059077Y0019308D01*
X0059017Y0019173D01*
X0058954Y0019039D01*
X0058887Y0018907D01*
X0058816Y0018777D01*
X0058742Y0018649D01*
X0058665Y0018523D01*
X0058584Y0018399D01*
X0058500Y0018277D01*
X0058413Y0018158D01*
X0058322Y0018041D01*
X0058228Y0017926D01*
X0058132Y0017814D01*
X0058032Y0017704D01*
X0057930Y0017598D01*
X0057824Y0017494D01*
X0057716Y0017393D01*
X0057605Y0017295D01*
X0057492Y0017199D01*
X0057376Y0017107D01*
X0057258Y0017018D01*
X0057137Y0016933D01*
X0057014Y0016850D01*
X0056889Y0016771D01*
X0056762Y0016695D01*
X0056633Y0016623D01*
X0056502Y0016554D01*
X0056369Y0016489D01*
X0056234Y0016428D01*
X0056098Y0016370D01*
X0055961Y0016315D01*
X0055822Y0016265D01*
X0055681Y0016218D01*
X0055540Y0016175D01*
X0055397Y0016135D01*
X0055253Y0016100D01*
X0055109Y0016068D01*
X0054963Y0016041D01*
X0054817Y0016017D01*
X0054670Y0015997D01*
X0054523Y0015981D01*
X0054376Y0015969D01*
X0054228Y0015961D01*
X0054080Y0015957D01*
X0053932Y0015957D01*
X0053784Y0015961D01*
X0053636Y0015969D01*
X0053489Y0015981D01*
X0053342Y0015997D01*
X0053195Y0016017D01*
X0053049Y0016041D01*
X0052903Y0016068D01*
X0052759Y0016100D01*
X0052615Y0016135D01*
X0052472Y0016175D01*
X0052331Y0016218D01*
X0052190Y0016265D01*
X0052051Y0016315D01*
X0051914Y0016370D01*
X0051778Y0016428D01*
X0051643Y0016489D01*
X0051510Y0016554D01*
X0051379Y0016623D01*
X0051250Y0016695D01*
X0051123Y0016771D01*
X0050998Y0016850D01*
X0050875Y0016933D01*
X0050754Y0017018D01*
X0050636Y0017107D01*
X0050520Y0017199D01*
X0050407Y0017295D01*
X0050296Y0017393D01*
X0050188Y0017494D01*
X0050082Y0017598D01*
X0049980Y0017704D01*
X0049880Y0017814D01*
X0049784Y0017926D01*
X0049690Y0018041D01*
X0049599Y0018158D01*
X0049512Y0018277D01*
X0049428Y0018399D01*
X0049347Y0018523D01*
X0049270Y0018649D01*
X0049196Y0018777D01*
X0049125Y0018907D01*
X0049058Y0019039D01*
X0048995Y0019173D01*
X0048935Y0019308D01*
X0048879Y0019445D01*
X0048826Y0019584D01*
X0048778Y0019724D01*
X0048733Y0019865D01*
X0048692Y0020007D01*
X0048654Y0020150D01*
X0048621Y0020294D01*
X0048591Y0020439D01*
X0048565Y0020585D01*
X0048544Y0020731D01*
X0048526Y0020878D01*
X0048512Y0021025D01*
X0048502Y0021173D01*
X0048496Y0021321D01*
X0048494Y0021469D01*
X0245344Y0021469D02*
X0245346Y0021617D01*
X0245352Y0021765D01*
X0245362Y0021913D01*
X0245376Y0022060D01*
X0245394Y0022207D01*
X0245415Y0022353D01*
X0245441Y0022499D01*
X0245471Y0022644D01*
X0245504Y0022788D01*
X0245542Y0022931D01*
X0245583Y0023073D01*
X0245628Y0023214D01*
X0245676Y0023354D01*
X0245729Y0023493D01*
X0245785Y0023630D01*
X0245845Y0023765D01*
X0245908Y0023899D01*
X0245975Y0024031D01*
X0246046Y0024161D01*
X0246120Y0024289D01*
X0246197Y0024415D01*
X0246278Y0024539D01*
X0246362Y0024661D01*
X0246449Y0024780D01*
X0246540Y0024897D01*
X0246634Y0025012D01*
X0246730Y0025124D01*
X0246830Y0025234D01*
X0246932Y0025340D01*
X0247038Y0025444D01*
X0247146Y0025545D01*
X0247257Y0025643D01*
X0247370Y0025739D01*
X0247486Y0025831D01*
X0247604Y0025920D01*
X0247725Y0026005D01*
X0247848Y0026088D01*
X0247973Y0026167D01*
X0248100Y0026243D01*
X0248229Y0026315D01*
X0248360Y0026384D01*
X0248493Y0026449D01*
X0248628Y0026510D01*
X0248764Y0026568D01*
X0248901Y0026623D01*
X0249040Y0026673D01*
X0249181Y0026720D01*
X0249322Y0026763D01*
X0249465Y0026803D01*
X0249609Y0026838D01*
X0249753Y0026870D01*
X0249899Y0026897D01*
X0250045Y0026921D01*
X0250192Y0026941D01*
X0250339Y0026957D01*
X0250486Y0026969D01*
X0250634Y0026977D01*
X0250782Y0026981D01*
X0250930Y0026981D01*
X0251078Y0026977D01*
X0251226Y0026969D01*
X0251373Y0026957D01*
X0251520Y0026941D01*
X0251667Y0026921D01*
X0251813Y0026897D01*
X0251959Y0026870D01*
X0252103Y0026838D01*
X0252247Y0026803D01*
X0252390Y0026763D01*
X0252531Y0026720D01*
X0252672Y0026673D01*
X0252811Y0026623D01*
X0252948Y0026568D01*
X0253084Y0026510D01*
X0253219Y0026449D01*
X0253352Y0026384D01*
X0253483Y0026315D01*
X0253612Y0026243D01*
X0253739Y0026167D01*
X0253864Y0026088D01*
X0253987Y0026005D01*
X0254108Y0025920D01*
X0254226Y0025831D01*
X0254342Y0025739D01*
X0254455Y0025643D01*
X0254566Y0025545D01*
X0254674Y0025444D01*
X0254780Y0025340D01*
X0254882Y0025234D01*
X0254982Y0025124D01*
X0255078Y0025012D01*
X0255172Y0024897D01*
X0255263Y0024780D01*
X0255350Y0024661D01*
X0255434Y0024539D01*
X0255515Y0024415D01*
X0255592Y0024289D01*
X0255666Y0024161D01*
X0255737Y0024031D01*
X0255804Y0023899D01*
X0255867Y0023765D01*
X0255927Y0023630D01*
X0255983Y0023493D01*
X0256036Y0023354D01*
X0256084Y0023214D01*
X0256129Y0023073D01*
X0256170Y0022931D01*
X0256208Y0022788D01*
X0256241Y0022644D01*
X0256271Y0022499D01*
X0256297Y0022353D01*
X0256318Y0022207D01*
X0256336Y0022060D01*
X0256350Y0021913D01*
X0256360Y0021765D01*
X0256366Y0021617D01*
X0256368Y0021469D01*
X0256366Y0021321D01*
X0256360Y0021173D01*
X0256350Y0021025D01*
X0256336Y0020878D01*
X0256318Y0020731D01*
X0256297Y0020585D01*
X0256271Y0020439D01*
X0256241Y0020294D01*
X0256208Y0020150D01*
X0256170Y0020007D01*
X0256129Y0019865D01*
X0256084Y0019724D01*
X0256036Y0019584D01*
X0255983Y0019445D01*
X0255927Y0019308D01*
X0255867Y0019173D01*
X0255804Y0019039D01*
X0255737Y0018907D01*
X0255666Y0018777D01*
X0255592Y0018649D01*
X0255515Y0018523D01*
X0255434Y0018399D01*
X0255350Y0018277D01*
X0255263Y0018158D01*
X0255172Y0018041D01*
X0255078Y0017926D01*
X0254982Y0017814D01*
X0254882Y0017704D01*
X0254780Y0017598D01*
X0254674Y0017494D01*
X0254566Y0017393D01*
X0254455Y0017295D01*
X0254342Y0017199D01*
X0254226Y0017107D01*
X0254108Y0017018D01*
X0253987Y0016933D01*
X0253864Y0016850D01*
X0253739Y0016771D01*
X0253612Y0016695D01*
X0253483Y0016623D01*
X0253352Y0016554D01*
X0253219Y0016489D01*
X0253084Y0016428D01*
X0252948Y0016370D01*
X0252811Y0016315D01*
X0252672Y0016265D01*
X0252531Y0016218D01*
X0252390Y0016175D01*
X0252247Y0016135D01*
X0252103Y0016100D01*
X0251959Y0016068D01*
X0251813Y0016041D01*
X0251667Y0016017D01*
X0251520Y0015997D01*
X0251373Y0015981D01*
X0251226Y0015969D01*
X0251078Y0015961D01*
X0250930Y0015957D01*
X0250782Y0015957D01*
X0250634Y0015961D01*
X0250486Y0015969D01*
X0250339Y0015981D01*
X0250192Y0015997D01*
X0250045Y0016017D01*
X0249899Y0016041D01*
X0249753Y0016068D01*
X0249609Y0016100D01*
X0249465Y0016135D01*
X0249322Y0016175D01*
X0249181Y0016218D01*
X0249040Y0016265D01*
X0248901Y0016315D01*
X0248764Y0016370D01*
X0248628Y0016428D01*
X0248493Y0016489D01*
X0248360Y0016554D01*
X0248229Y0016623D01*
X0248100Y0016695D01*
X0247973Y0016771D01*
X0247848Y0016850D01*
X0247725Y0016933D01*
X0247604Y0017018D01*
X0247486Y0017107D01*
X0247370Y0017199D01*
X0247257Y0017295D01*
X0247146Y0017393D01*
X0247038Y0017494D01*
X0246932Y0017598D01*
X0246830Y0017704D01*
X0246730Y0017814D01*
X0246634Y0017926D01*
X0246540Y0018041D01*
X0246449Y0018158D01*
X0246362Y0018277D01*
X0246278Y0018399D01*
X0246197Y0018523D01*
X0246120Y0018649D01*
X0246046Y0018777D01*
X0245975Y0018907D01*
X0245908Y0019039D01*
X0245845Y0019173D01*
X0245785Y0019308D01*
X0245729Y0019445D01*
X0245676Y0019584D01*
X0245628Y0019724D01*
X0245583Y0019865D01*
X0245542Y0020007D01*
X0245504Y0020150D01*
X0245471Y0020294D01*
X0245441Y0020439D01*
X0245415Y0020585D01*
X0245394Y0020731D01*
X0245376Y0020878D01*
X0245362Y0021025D01*
X0245352Y0021173D01*
X0245346Y0021321D01*
X0245344Y0021469D01*
X0289636Y0039185D02*
X0289638Y0039247D01*
X0289644Y0039310D01*
X0289654Y0039371D01*
X0289668Y0039432D01*
X0289685Y0039492D01*
X0289706Y0039551D01*
X0289732Y0039608D01*
X0289760Y0039663D01*
X0289792Y0039717D01*
X0289828Y0039768D01*
X0289866Y0039818D01*
X0289908Y0039864D01*
X0289952Y0039908D01*
X0290000Y0039949D01*
X0290049Y0039987D01*
X0290101Y0040021D01*
X0290155Y0040052D01*
X0290211Y0040080D01*
X0290269Y0040104D01*
X0290328Y0040125D01*
X0290388Y0040141D01*
X0290449Y0040154D01*
X0290511Y0040163D01*
X0290573Y0040168D01*
X0290636Y0040169D01*
X0290698Y0040166D01*
X0290760Y0040159D01*
X0290822Y0040148D01*
X0290882Y0040133D01*
X0290942Y0040115D01*
X0291000Y0040093D01*
X0291057Y0040067D01*
X0291112Y0040037D01*
X0291165Y0040004D01*
X0291216Y0039968D01*
X0291264Y0039929D01*
X0291310Y0039886D01*
X0291353Y0039841D01*
X0291393Y0039793D01*
X0291430Y0039743D01*
X0291464Y0039690D01*
X0291495Y0039636D01*
X0291521Y0039580D01*
X0291545Y0039522D01*
X0291564Y0039462D01*
X0291580Y0039402D01*
X0291592Y0039340D01*
X0291600Y0039279D01*
X0291604Y0039216D01*
X0291604Y0039154D01*
X0291600Y0039091D01*
X0291592Y0039030D01*
X0291580Y0038968D01*
X0291564Y0038908D01*
X0291545Y0038848D01*
X0291521Y0038790D01*
X0291495Y0038734D01*
X0291464Y0038680D01*
X0291430Y0038627D01*
X0291393Y0038577D01*
X0291353Y0038529D01*
X0291310Y0038484D01*
X0291264Y0038441D01*
X0291216Y0038402D01*
X0291165Y0038366D01*
X0291112Y0038333D01*
X0291057Y0038303D01*
X0291000Y0038277D01*
X0290942Y0038255D01*
X0290882Y0038237D01*
X0290822Y0038222D01*
X0290760Y0038211D01*
X0290698Y0038204D01*
X0290636Y0038201D01*
X0290573Y0038202D01*
X0290511Y0038207D01*
X0290449Y0038216D01*
X0290388Y0038229D01*
X0290328Y0038245D01*
X0290269Y0038266D01*
X0290211Y0038290D01*
X0290155Y0038318D01*
X0290101Y0038349D01*
X0290049Y0038383D01*
X0290000Y0038421D01*
X0289952Y0038462D01*
X0289908Y0038506D01*
X0289866Y0038552D01*
X0289828Y0038602D01*
X0289792Y0038653D01*
X0289760Y0038707D01*
X0289732Y0038762D01*
X0289706Y0038819D01*
X0289685Y0038878D01*
X0289668Y0038938D01*
X0289654Y0038999D01*
X0289644Y0039060D01*
X0289638Y0039123D01*
X0289636Y0039185D01*
X0289636Y0042335D02*
X0289638Y0042397D01*
X0289644Y0042460D01*
X0289654Y0042521D01*
X0289668Y0042582D01*
X0289685Y0042642D01*
X0289706Y0042701D01*
X0289732Y0042758D01*
X0289760Y0042813D01*
X0289792Y0042867D01*
X0289828Y0042918D01*
X0289866Y0042968D01*
X0289908Y0043014D01*
X0289952Y0043058D01*
X0290000Y0043099D01*
X0290049Y0043137D01*
X0290101Y0043171D01*
X0290155Y0043202D01*
X0290211Y0043230D01*
X0290269Y0043254D01*
X0290328Y0043275D01*
X0290388Y0043291D01*
X0290449Y0043304D01*
X0290511Y0043313D01*
X0290573Y0043318D01*
X0290636Y0043319D01*
X0290698Y0043316D01*
X0290760Y0043309D01*
X0290822Y0043298D01*
X0290882Y0043283D01*
X0290942Y0043265D01*
X0291000Y0043243D01*
X0291057Y0043217D01*
X0291112Y0043187D01*
X0291165Y0043154D01*
X0291216Y0043118D01*
X0291264Y0043079D01*
X0291310Y0043036D01*
X0291353Y0042991D01*
X0291393Y0042943D01*
X0291430Y0042893D01*
X0291464Y0042840D01*
X0291495Y0042786D01*
X0291521Y0042730D01*
X0291545Y0042672D01*
X0291564Y0042612D01*
X0291580Y0042552D01*
X0291592Y0042490D01*
X0291600Y0042429D01*
X0291604Y0042366D01*
X0291604Y0042304D01*
X0291600Y0042241D01*
X0291592Y0042180D01*
X0291580Y0042118D01*
X0291564Y0042058D01*
X0291545Y0041998D01*
X0291521Y0041940D01*
X0291495Y0041884D01*
X0291464Y0041830D01*
X0291430Y0041777D01*
X0291393Y0041727D01*
X0291353Y0041679D01*
X0291310Y0041634D01*
X0291264Y0041591D01*
X0291216Y0041552D01*
X0291165Y0041516D01*
X0291112Y0041483D01*
X0291057Y0041453D01*
X0291000Y0041427D01*
X0290942Y0041405D01*
X0290882Y0041387D01*
X0290822Y0041372D01*
X0290760Y0041361D01*
X0290698Y0041354D01*
X0290636Y0041351D01*
X0290573Y0041352D01*
X0290511Y0041357D01*
X0290449Y0041366D01*
X0290388Y0041379D01*
X0290328Y0041395D01*
X0290269Y0041416D01*
X0290211Y0041440D01*
X0290155Y0041468D01*
X0290101Y0041499D01*
X0290049Y0041533D01*
X0290000Y0041571D01*
X0289952Y0041612D01*
X0289908Y0041656D01*
X0289866Y0041702D01*
X0289828Y0041752D01*
X0289792Y0041803D01*
X0289760Y0041857D01*
X0289732Y0041912D01*
X0289706Y0041969D01*
X0289685Y0042028D01*
X0289668Y0042088D01*
X0289654Y0042149D01*
X0289644Y0042210D01*
X0289638Y0042273D01*
X0289636Y0042335D01*
X0289636Y0045484D02*
X0289638Y0045546D01*
X0289644Y0045609D01*
X0289654Y0045670D01*
X0289668Y0045731D01*
X0289685Y0045791D01*
X0289706Y0045850D01*
X0289732Y0045907D01*
X0289760Y0045962D01*
X0289792Y0046016D01*
X0289828Y0046067D01*
X0289866Y0046117D01*
X0289908Y0046163D01*
X0289952Y0046207D01*
X0290000Y0046248D01*
X0290049Y0046286D01*
X0290101Y0046320D01*
X0290155Y0046351D01*
X0290211Y0046379D01*
X0290269Y0046403D01*
X0290328Y0046424D01*
X0290388Y0046440D01*
X0290449Y0046453D01*
X0290511Y0046462D01*
X0290573Y0046467D01*
X0290636Y0046468D01*
X0290698Y0046465D01*
X0290760Y0046458D01*
X0290822Y0046447D01*
X0290882Y0046432D01*
X0290942Y0046414D01*
X0291000Y0046392D01*
X0291057Y0046366D01*
X0291112Y0046336D01*
X0291165Y0046303D01*
X0291216Y0046267D01*
X0291264Y0046228D01*
X0291310Y0046185D01*
X0291353Y0046140D01*
X0291393Y0046092D01*
X0291430Y0046042D01*
X0291464Y0045989D01*
X0291495Y0045935D01*
X0291521Y0045879D01*
X0291545Y0045821D01*
X0291564Y0045761D01*
X0291580Y0045701D01*
X0291592Y0045639D01*
X0291600Y0045578D01*
X0291604Y0045515D01*
X0291604Y0045453D01*
X0291600Y0045390D01*
X0291592Y0045329D01*
X0291580Y0045267D01*
X0291564Y0045207D01*
X0291545Y0045147D01*
X0291521Y0045089D01*
X0291495Y0045033D01*
X0291464Y0044979D01*
X0291430Y0044926D01*
X0291393Y0044876D01*
X0291353Y0044828D01*
X0291310Y0044783D01*
X0291264Y0044740D01*
X0291216Y0044701D01*
X0291165Y0044665D01*
X0291112Y0044632D01*
X0291057Y0044602D01*
X0291000Y0044576D01*
X0290942Y0044554D01*
X0290882Y0044536D01*
X0290822Y0044521D01*
X0290760Y0044510D01*
X0290698Y0044503D01*
X0290636Y0044500D01*
X0290573Y0044501D01*
X0290511Y0044506D01*
X0290449Y0044515D01*
X0290388Y0044528D01*
X0290328Y0044544D01*
X0290269Y0044565D01*
X0290211Y0044589D01*
X0290155Y0044617D01*
X0290101Y0044648D01*
X0290049Y0044682D01*
X0290000Y0044720D01*
X0289952Y0044761D01*
X0289908Y0044805D01*
X0289866Y0044851D01*
X0289828Y0044901D01*
X0289792Y0044952D01*
X0289760Y0045006D01*
X0289732Y0045061D01*
X0289706Y0045118D01*
X0289685Y0045177D01*
X0289668Y0045237D01*
X0289654Y0045298D01*
X0289644Y0045359D01*
X0289638Y0045422D01*
X0289636Y0045484D01*
X0289636Y0135248D02*
X0289638Y0135310D01*
X0289644Y0135373D01*
X0289654Y0135434D01*
X0289668Y0135495D01*
X0289685Y0135555D01*
X0289706Y0135614D01*
X0289732Y0135671D01*
X0289760Y0135726D01*
X0289792Y0135780D01*
X0289828Y0135831D01*
X0289866Y0135881D01*
X0289908Y0135927D01*
X0289952Y0135971D01*
X0290000Y0136012D01*
X0290049Y0136050D01*
X0290101Y0136084D01*
X0290155Y0136115D01*
X0290211Y0136143D01*
X0290269Y0136167D01*
X0290328Y0136188D01*
X0290388Y0136204D01*
X0290449Y0136217D01*
X0290511Y0136226D01*
X0290573Y0136231D01*
X0290636Y0136232D01*
X0290698Y0136229D01*
X0290760Y0136222D01*
X0290822Y0136211D01*
X0290882Y0136196D01*
X0290942Y0136178D01*
X0291000Y0136156D01*
X0291057Y0136130D01*
X0291112Y0136100D01*
X0291165Y0136067D01*
X0291216Y0136031D01*
X0291264Y0135992D01*
X0291310Y0135949D01*
X0291353Y0135904D01*
X0291393Y0135856D01*
X0291430Y0135806D01*
X0291464Y0135753D01*
X0291495Y0135699D01*
X0291521Y0135643D01*
X0291545Y0135585D01*
X0291564Y0135525D01*
X0291580Y0135465D01*
X0291592Y0135403D01*
X0291600Y0135342D01*
X0291604Y0135279D01*
X0291604Y0135217D01*
X0291600Y0135154D01*
X0291592Y0135093D01*
X0291580Y0135031D01*
X0291564Y0134971D01*
X0291545Y0134911D01*
X0291521Y0134853D01*
X0291495Y0134797D01*
X0291464Y0134743D01*
X0291430Y0134690D01*
X0291393Y0134640D01*
X0291353Y0134592D01*
X0291310Y0134547D01*
X0291264Y0134504D01*
X0291216Y0134465D01*
X0291165Y0134429D01*
X0291112Y0134396D01*
X0291057Y0134366D01*
X0291000Y0134340D01*
X0290942Y0134318D01*
X0290882Y0134300D01*
X0290822Y0134285D01*
X0290760Y0134274D01*
X0290698Y0134267D01*
X0290636Y0134264D01*
X0290573Y0134265D01*
X0290511Y0134270D01*
X0290449Y0134279D01*
X0290388Y0134292D01*
X0290328Y0134308D01*
X0290269Y0134329D01*
X0290211Y0134353D01*
X0290155Y0134381D01*
X0290101Y0134412D01*
X0290049Y0134446D01*
X0290000Y0134484D01*
X0289952Y0134525D01*
X0289908Y0134569D01*
X0289866Y0134615D01*
X0289828Y0134665D01*
X0289792Y0134716D01*
X0289760Y0134770D01*
X0289732Y0134825D01*
X0289706Y0134882D01*
X0289685Y0134941D01*
X0289668Y0135001D01*
X0289654Y0135062D01*
X0289644Y0135123D01*
X0289638Y0135186D01*
X0289636Y0135248D01*
X0289636Y0138398D02*
X0289638Y0138460D01*
X0289644Y0138523D01*
X0289654Y0138584D01*
X0289668Y0138645D01*
X0289685Y0138705D01*
X0289706Y0138764D01*
X0289732Y0138821D01*
X0289760Y0138876D01*
X0289792Y0138930D01*
X0289828Y0138981D01*
X0289866Y0139031D01*
X0289908Y0139077D01*
X0289952Y0139121D01*
X0290000Y0139162D01*
X0290049Y0139200D01*
X0290101Y0139234D01*
X0290155Y0139265D01*
X0290211Y0139293D01*
X0290269Y0139317D01*
X0290328Y0139338D01*
X0290388Y0139354D01*
X0290449Y0139367D01*
X0290511Y0139376D01*
X0290573Y0139381D01*
X0290636Y0139382D01*
X0290698Y0139379D01*
X0290760Y0139372D01*
X0290822Y0139361D01*
X0290882Y0139346D01*
X0290942Y0139328D01*
X0291000Y0139306D01*
X0291057Y0139280D01*
X0291112Y0139250D01*
X0291165Y0139217D01*
X0291216Y0139181D01*
X0291264Y0139142D01*
X0291310Y0139099D01*
X0291353Y0139054D01*
X0291393Y0139006D01*
X0291430Y0138956D01*
X0291464Y0138903D01*
X0291495Y0138849D01*
X0291521Y0138793D01*
X0291545Y0138735D01*
X0291564Y0138675D01*
X0291580Y0138615D01*
X0291592Y0138553D01*
X0291600Y0138492D01*
X0291604Y0138429D01*
X0291604Y0138367D01*
X0291600Y0138304D01*
X0291592Y0138243D01*
X0291580Y0138181D01*
X0291564Y0138121D01*
X0291545Y0138061D01*
X0291521Y0138003D01*
X0291495Y0137947D01*
X0291464Y0137893D01*
X0291430Y0137840D01*
X0291393Y0137790D01*
X0291353Y0137742D01*
X0291310Y0137697D01*
X0291264Y0137654D01*
X0291216Y0137615D01*
X0291165Y0137579D01*
X0291112Y0137546D01*
X0291057Y0137516D01*
X0291000Y0137490D01*
X0290942Y0137468D01*
X0290882Y0137450D01*
X0290822Y0137435D01*
X0290760Y0137424D01*
X0290698Y0137417D01*
X0290636Y0137414D01*
X0290573Y0137415D01*
X0290511Y0137420D01*
X0290449Y0137429D01*
X0290388Y0137442D01*
X0290328Y0137458D01*
X0290269Y0137479D01*
X0290211Y0137503D01*
X0290155Y0137531D01*
X0290101Y0137562D01*
X0290049Y0137596D01*
X0290000Y0137634D01*
X0289952Y0137675D01*
X0289908Y0137719D01*
X0289866Y0137765D01*
X0289828Y0137815D01*
X0289792Y0137866D01*
X0289760Y0137920D01*
X0289732Y0137975D01*
X0289706Y0138032D01*
X0289685Y0138091D01*
X0289668Y0138151D01*
X0289654Y0138212D01*
X0289644Y0138273D01*
X0289638Y0138336D01*
X0289636Y0138398D01*
X0289636Y0141547D02*
X0289638Y0141609D01*
X0289644Y0141672D01*
X0289654Y0141733D01*
X0289668Y0141794D01*
X0289685Y0141854D01*
X0289706Y0141913D01*
X0289732Y0141970D01*
X0289760Y0142025D01*
X0289792Y0142079D01*
X0289828Y0142130D01*
X0289866Y0142180D01*
X0289908Y0142226D01*
X0289952Y0142270D01*
X0290000Y0142311D01*
X0290049Y0142349D01*
X0290101Y0142383D01*
X0290155Y0142414D01*
X0290211Y0142442D01*
X0290269Y0142466D01*
X0290328Y0142487D01*
X0290388Y0142503D01*
X0290449Y0142516D01*
X0290511Y0142525D01*
X0290573Y0142530D01*
X0290636Y0142531D01*
X0290698Y0142528D01*
X0290760Y0142521D01*
X0290822Y0142510D01*
X0290882Y0142495D01*
X0290942Y0142477D01*
X0291000Y0142455D01*
X0291057Y0142429D01*
X0291112Y0142399D01*
X0291165Y0142366D01*
X0291216Y0142330D01*
X0291264Y0142291D01*
X0291310Y0142248D01*
X0291353Y0142203D01*
X0291393Y0142155D01*
X0291430Y0142105D01*
X0291464Y0142052D01*
X0291495Y0141998D01*
X0291521Y0141942D01*
X0291545Y0141884D01*
X0291564Y0141824D01*
X0291580Y0141764D01*
X0291592Y0141702D01*
X0291600Y0141641D01*
X0291604Y0141578D01*
X0291604Y0141516D01*
X0291600Y0141453D01*
X0291592Y0141392D01*
X0291580Y0141330D01*
X0291564Y0141270D01*
X0291545Y0141210D01*
X0291521Y0141152D01*
X0291495Y0141096D01*
X0291464Y0141042D01*
X0291430Y0140989D01*
X0291393Y0140939D01*
X0291353Y0140891D01*
X0291310Y0140846D01*
X0291264Y0140803D01*
X0291216Y0140764D01*
X0291165Y0140728D01*
X0291112Y0140695D01*
X0291057Y0140665D01*
X0291000Y0140639D01*
X0290942Y0140617D01*
X0290882Y0140599D01*
X0290822Y0140584D01*
X0290760Y0140573D01*
X0290698Y0140566D01*
X0290636Y0140563D01*
X0290573Y0140564D01*
X0290511Y0140569D01*
X0290449Y0140578D01*
X0290388Y0140591D01*
X0290328Y0140607D01*
X0290269Y0140628D01*
X0290211Y0140652D01*
X0290155Y0140680D01*
X0290101Y0140711D01*
X0290049Y0140745D01*
X0290000Y0140783D01*
X0289952Y0140824D01*
X0289908Y0140868D01*
X0289866Y0140914D01*
X0289828Y0140964D01*
X0289792Y0141015D01*
X0289760Y0141069D01*
X0289732Y0141124D01*
X0289706Y0141181D01*
X0289685Y0141240D01*
X0289668Y0141300D01*
X0289654Y0141361D01*
X0289644Y0141422D01*
X0289638Y0141485D01*
X0289636Y0141547D01*
X0245344Y0159264D02*
X0245346Y0159412D01*
X0245352Y0159560D01*
X0245362Y0159708D01*
X0245376Y0159855D01*
X0245394Y0160002D01*
X0245415Y0160148D01*
X0245441Y0160294D01*
X0245471Y0160439D01*
X0245504Y0160583D01*
X0245542Y0160726D01*
X0245583Y0160868D01*
X0245628Y0161009D01*
X0245676Y0161149D01*
X0245729Y0161288D01*
X0245785Y0161425D01*
X0245845Y0161560D01*
X0245908Y0161694D01*
X0245975Y0161826D01*
X0246046Y0161956D01*
X0246120Y0162084D01*
X0246197Y0162210D01*
X0246278Y0162334D01*
X0246362Y0162456D01*
X0246449Y0162575D01*
X0246540Y0162692D01*
X0246634Y0162807D01*
X0246730Y0162919D01*
X0246830Y0163029D01*
X0246932Y0163135D01*
X0247038Y0163239D01*
X0247146Y0163340D01*
X0247257Y0163438D01*
X0247370Y0163534D01*
X0247486Y0163626D01*
X0247604Y0163715D01*
X0247725Y0163800D01*
X0247848Y0163883D01*
X0247973Y0163962D01*
X0248100Y0164038D01*
X0248229Y0164110D01*
X0248360Y0164179D01*
X0248493Y0164244D01*
X0248628Y0164305D01*
X0248764Y0164363D01*
X0248901Y0164418D01*
X0249040Y0164468D01*
X0249181Y0164515D01*
X0249322Y0164558D01*
X0249465Y0164598D01*
X0249609Y0164633D01*
X0249753Y0164665D01*
X0249899Y0164692D01*
X0250045Y0164716D01*
X0250192Y0164736D01*
X0250339Y0164752D01*
X0250486Y0164764D01*
X0250634Y0164772D01*
X0250782Y0164776D01*
X0250930Y0164776D01*
X0251078Y0164772D01*
X0251226Y0164764D01*
X0251373Y0164752D01*
X0251520Y0164736D01*
X0251667Y0164716D01*
X0251813Y0164692D01*
X0251959Y0164665D01*
X0252103Y0164633D01*
X0252247Y0164598D01*
X0252390Y0164558D01*
X0252531Y0164515D01*
X0252672Y0164468D01*
X0252811Y0164418D01*
X0252948Y0164363D01*
X0253084Y0164305D01*
X0253219Y0164244D01*
X0253352Y0164179D01*
X0253483Y0164110D01*
X0253612Y0164038D01*
X0253739Y0163962D01*
X0253864Y0163883D01*
X0253987Y0163800D01*
X0254108Y0163715D01*
X0254226Y0163626D01*
X0254342Y0163534D01*
X0254455Y0163438D01*
X0254566Y0163340D01*
X0254674Y0163239D01*
X0254780Y0163135D01*
X0254882Y0163029D01*
X0254982Y0162919D01*
X0255078Y0162807D01*
X0255172Y0162692D01*
X0255263Y0162575D01*
X0255350Y0162456D01*
X0255434Y0162334D01*
X0255515Y0162210D01*
X0255592Y0162084D01*
X0255666Y0161956D01*
X0255737Y0161826D01*
X0255804Y0161694D01*
X0255867Y0161560D01*
X0255927Y0161425D01*
X0255983Y0161288D01*
X0256036Y0161149D01*
X0256084Y0161009D01*
X0256129Y0160868D01*
X0256170Y0160726D01*
X0256208Y0160583D01*
X0256241Y0160439D01*
X0256271Y0160294D01*
X0256297Y0160148D01*
X0256318Y0160002D01*
X0256336Y0159855D01*
X0256350Y0159708D01*
X0256360Y0159560D01*
X0256366Y0159412D01*
X0256368Y0159264D01*
X0256366Y0159116D01*
X0256360Y0158968D01*
X0256350Y0158820D01*
X0256336Y0158673D01*
X0256318Y0158526D01*
X0256297Y0158380D01*
X0256271Y0158234D01*
X0256241Y0158089D01*
X0256208Y0157945D01*
X0256170Y0157802D01*
X0256129Y0157660D01*
X0256084Y0157519D01*
X0256036Y0157379D01*
X0255983Y0157240D01*
X0255927Y0157103D01*
X0255867Y0156968D01*
X0255804Y0156834D01*
X0255737Y0156702D01*
X0255666Y0156572D01*
X0255592Y0156444D01*
X0255515Y0156318D01*
X0255434Y0156194D01*
X0255350Y0156072D01*
X0255263Y0155953D01*
X0255172Y0155836D01*
X0255078Y0155721D01*
X0254982Y0155609D01*
X0254882Y0155499D01*
X0254780Y0155393D01*
X0254674Y0155289D01*
X0254566Y0155188D01*
X0254455Y0155090D01*
X0254342Y0154994D01*
X0254226Y0154902D01*
X0254108Y0154813D01*
X0253987Y0154728D01*
X0253864Y0154645D01*
X0253739Y0154566D01*
X0253612Y0154490D01*
X0253483Y0154418D01*
X0253352Y0154349D01*
X0253219Y0154284D01*
X0253084Y0154223D01*
X0252948Y0154165D01*
X0252811Y0154110D01*
X0252672Y0154060D01*
X0252531Y0154013D01*
X0252390Y0153970D01*
X0252247Y0153930D01*
X0252103Y0153895D01*
X0251959Y0153863D01*
X0251813Y0153836D01*
X0251667Y0153812D01*
X0251520Y0153792D01*
X0251373Y0153776D01*
X0251226Y0153764D01*
X0251078Y0153756D01*
X0250930Y0153752D01*
X0250782Y0153752D01*
X0250634Y0153756D01*
X0250486Y0153764D01*
X0250339Y0153776D01*
X0250192Y0153792D01*
X0250045Y0153812D01*
X0249899Y0153836D01*
X0249753Y0153863D01*
X0249609Y0153895D01*
X0249465Y0153930D01*
X0249322Y0153970D01*
X0249181Y0154013D01*
X0249040Y0154060D01*
X0248901Y0154110D01*
X0248764Y0154165D01*
X0248628Y0154223D01*
X0248493Y0154284D01*
X0248360Y0154349D01*
X0248229Y0154418D01*
X0248100Y0154490D01*
X0247973Y0154566D01*
X0247848Y0154645D01*
X0247725Y0154728D01*
X0247604Y0154813D01*
X0247486Y0154902D01*
X0247370Y0154994D01*
X0247257Y0155090D01*
X0247146Y0155188D01*
X0247038Y0155289D01*
X0246932Y0155393D01*
X0246830Y0155499D01*
X0246730Y0155609D01*
X0246634Y0155721D01*
X0246540Y0155836D01*
X0246449Y0155953D01*
X0246362Y0156072D01*
X0246278Y0156194D01*
X0246197Y0156318D01*
X0246120Y0156444D01*
X0246046Y0156572D01*
X0245975Y0156702D01*
X0245908Y0156834D01*
X0245845Y0156968D01*
X0245785Y0157103D01*
X0245729Y0157240D01*
X0245676Y0157379D01*
X0245628Y0157519D01*
X0245583Y0157660D01*
X0245542Y0157802D01*
X0245504Y0157945D01*
X0245471Y0158089D01*
X0245441Y0158234D01*
X0245415Y0158380D01*
X0245394Y0158526D01*
X0245376Y0158673D01*
X0245362Y0158820D01*
X0245352Y0158968D01*
X0245346Y0159116D01*
X0245344Y0159264D01*
X0048494Y0159264D02*
X0048496Y0159412D01*
X0048502Y0159560D01*
X0048512Y0159708D01*
X0048526Y0159855D01*
X0048544Y0160002D01*
X0048565Y0160148D01*
X0048591Y0160294D01*
X0048621Y0160439D01*
X0048654Y0160583D01*
X0048692Y0160726D01*
X0048733Y0160868D01*
X0048778Y0161009D01*
X0048826Y0161149D01*
X0048879Y0161288D01*
X0048935Y0161425D01*
X0048995Y0161560D01*
X0049058Y0161694D01*
X0049125Y0161826D01*
X0049196Y0161956D01*
X0049270Y0162084D01*
X0049347Y0162210D01*
X0049428Y0162334D01*
X0049512Y0162456D01*
X0049599Y0162575D01*
X0049690Y0162692D01*
X0049784Y0162807D01*
X0049880Y0162919D01*
X0049980Y0163029D01*
X0050082Y0163135D01*
X0050188Y0163239D01*
X0050296Y0163340D01*
X0050407Y0163438D01*
X0050520Y0163534D01*
X0050636Y0163626D01*
X0050754Y0163715D01*
X0050875Y0163800D01*
X0050998Y0163883D01*
X0051123Y0163962D01*
X0051250Y0164038D01*
X0051379Y0164110D01*
X0051510Y0164179D01*
X0051643Y0164244D01*
X0051778Y0164305D01*
X0051914Y0164363D01*
X0052051Y0164418D01*
X0052190Y0164468D01*
X0052331Y0164515D01*
X0052472Y0164558D01*
X0052615Y0164598D01*
X0052759Y0164633D01*
X0052903Y0164665D01*
X0053049Y0164692D01*
X0053195Y0164716D01*
X0053342Y0164736D01*
X0053489Y0164752D01*
X0053636Y0164764D01*
X0053784Y0164772D01*
X0053932Y0164776D01*
X0054080Y0164776D01*
X0054228Y0164772D01*
X0054376Y0164764D01*
X0054523Y0164752D01*
X0054670Y0164736D01*
X0054817Y0164716D01*
X0054963Y0164692D01*
X0055109Y0164665D01*
X0055253Y0164633D01*
X0055397Y0164598D01*
X0055540Y0164558D01*
X0055681Y0164515D01*
X0055822Y0164468D01*
X0055961Y0164418D01*
X0056098Y0164363D01*
X0056234Y0164305D01*
X0056369Y0164244D01*
X0056502Y0164179D01*
X0056633Y0164110D01*
X0056762Y0164038D01*
X0056889Y0163962D01*
X0057014Y0163883D01*
X0057137Y0163800D01*
X0057258Y0163715D01*
X0057376Y0163626D01*
X0057492Y0163534D01*
X0057605Y0163438D01*
X0057716Y0163340D01*
X0057824Y0163239D01*
X0057930Y0163135D01*
X0058032Y0163029D01*
X0058132Y0162919D01*
X0058228Y0162807D01*
X0058322Y0162692D01*
X0058413Y0162575D01*
X0058500Y0162456D01*
X0058584Y0162334D01*
X0058665Y0162210D01*
X0058742Y0162084D01*
X0058816Y0161956D01*
X0058887Y0161826D01*
X0058954Y0161694D01*
X0059017Y0161560D01*
X0059077Y0161425D01*
X0059133Y0161288D01*
X0059186Y0161149D01*
X0059234Y0161009D01*
X0059279Y0160868D01*
X0059320Y0160726D01*
X0059358Y0160583D01*
X0059391Y0160439D01*
X0059421Y0160294D01*
X0059447Y0160148D01*
X0059468Y0160002D01*
X0059486Y0159855D01*
X0059500Y0159708D01*
X0059510Y0159560D01*
X0059516Y0159412D01*
X0059518Y0159264D01*
X0059516Y0159116D01*
X0059510Y0158968D01*
X0059500Y0158820D01*
X0059486Y0158673D01*
X0059468Y0158526D01*
X0059447Y0158380D01*
X0059421Y0158234D01*
X0059391Y0158089D01*
X0059358Y0157945D01*
X0059320Y0157802D01*
X0059279Y0157660D01*
X0059234Y0157519D01*
X0059186Y0157379D01*
X0059133Y0157240D01*
X0059077Y0157103D01*
X0059017Y0156968D01*
X0058954Y0156834D01*
X0058887Y0156702D01*
X0058816Y0156572D01*
X0058742Y0156444D01*
X0058665Y0156318D01*
X0058584Y0156194D01*
X0058500Y0156072D01*
X0058413Y0155953D01*
X0058322Y0155836D01*
X0058228Y0155721D01*
X0058132Y0155609D01*
X0058032Y0155499D01*
X0057930Y0155393D01*
X0057824Y0155289D01*
X0057716Y0155188D01*
X0057605Y0155090D01*
X0057492Y0154994D01*
X0057376Y0154902D01*
X0057258Y0154813D01*
X0057137Y0154728D01*
X0057014Y0154645D01*
X0056889Y0154566D01*
X0056762Y0154490D01*
X0056633Y0154418D01*
X0056502Y0154349D01*
X0056369Y0154284D01*
X0056234Y0154223D01*
X0056098Y0154165D01*
X0055961Y0154110D01*
X0055822Y0154060D01*
X0055681Y0154013D01*
X0055540Y0153970D01*
X0055397Y0153930D01*
X0055253Y0153895D01*
X0055109Y0153863D01*
X0054963Y0153836D01*
X0054817Y0153812D01*
X0054670Y0153792D01*
X0054523Y0153776D01*
X0054376Y0153764D01*
X0054228Y0153756D01*
X0054080Y0153752D01*
X0053932Y0153752D01*
X0053784Y0153756D01*
X0053636Y0153764D01*
X0053489Y0153776D01*
X0053342Y0153792D01*
X0053195Y0153812D01*
X0053049Y0153836D01*
X0052903Y0153863D01*
X0052759Y0153895D01*
X0052615Y0153930D01*
X0052472Y0153970D01*
X0052331Y0154013D01*
X0052190Y0154060D01*
X0052051Y0154110D01*
X0051914Y0154165D01*
X0051778Y0154223D01*
X0051643Y0154284D01*
X0051510Y0154349D01*
X0051379Y0154418D01*
X0051250Y0154490D01*
X0051123Y0154566D01*
X0050998Y0154645D01*
X0050875Y0154728D01*
X0050754Y0154813D01*
X0050636Y0154902D01*
X0050520Y0154994D01*
X0050407Y0155090D01*
X0050296Y0155188D01*
X0050188Y0155289D01*
X0050082Y0155393D01*
X0049980Y0155499D01*
X0049880Y0155609D01*
X0049784Y0155721D01*
X0049690Y0155836D01*
X0049599Y0155953D01*
X0049512Y0156072D01*
X0049428Y0156194D01*
X0049347Y0156318D01*
X0049270Y0156444D01*
X0049196Y0156572D01*
X0049125Y0156702D01*
X0049058Y0156834D01*
X0048995Y0156968D01*
X0048935Y0157103D01*
X0048879Y0157240D01*
X0048826Y0157379D01*
X0048778Y0157519D01*
X0048733Y0157660D01*
X0048692Y0157802D01*
X0048654Y0157945D01*
X0048621Y0158089D01*
X0048591Y0158234D01*
X0048565Y0158380D01*
X0048544Y0158526D01*
X0048526Y0158673D01*
X0048512Y0158820D01*
X0048502Y0158968D01*
X0048496Y0159116D01*
X0048494Y0159264D01*
D11*
X0034321Y0007689D02*
X0077628Y0007689D01*
X0077630Y0007813D01*
X0077636Y0007936D01*
X0077645Y0008060D01*
X0077659Y0008182D01*
X0077676Y0008305D01*
X0077698Y0008427D01*
X0077723Y0008548D01*
X0077752Y0008668D01*
X0077784Y0008787D01*
X0077821Y0008906D01*
X0077861Y0009023D01*
X0077904Y0009138D01*
X0077952Y0009253D01*
X0078003Y0009365D01*
X0078057Y0009476D01*
X0078115Y0009586D01*
X0078176Y0009693D01*
X0078241Y0009799D01*
X0078309Y0009902D01*
X0078380Y0010003D01*
X0078454Y0010102D01*
X0078531Y0010199D01*
X0078612Y0010293D01*
X0078695Y0010384D01*
X0078781Y0010473D01*
X0078870Y0010559D01*
X0078961Y0010642D01*
X0079055Y0010723D01*
X0079152Y0010800D01*
X0079251Y0010874D01*
X0079352Y0010945D01*
X0079455Y0011013D01*
X0079561Y0011078D01*
X0079668Y0011139D01*
X0079778Y0011197D01*
X0079889Y0011251D01*
X0080001Y0011302D01*
X0080116Y0011350D01*
X0080231Y0011393D01*
X0080348Y0011433D01*
X0080467Y0011470D01*
X0080586Y0011502D01*
X0080706Y0011531D01*
X0080827Y0011556D01*
X0080949Y0011578D01*
X0081072Y0011595D01*
X0081194Y0011609D01*
X0081318Y0011618D01*
X0081441Y0011624D01*
X0081565Y0011626D01*
X0097313Y0011626D01*
X0097437Y0011624D01*
X0097560Y0011618D01*
X0097684Y0011609D01*
X0097806Y0011595D01*
X0097929Y0011578D01*
X0098051Y0011556D01*
X0098172Y0011531D01*
X0098292Y0011502D01*
X0098411Y0011470D01*
X0098530Y0011433D01*
X0098647Y0011393D01*
X0098762Y0011350D01*
X0098877Y0011302D01*
X0098989Y0011251D01*
X0099100Y0011197D01*
X0099210Y0011139D01*
X0099317Y0011078D01*
X0099423Y0011013D01*
X0099526Y0010945D01*
X0099627Y0010874D01*
X0099726Y0010800D01*
X0099823Y0010723D01*
X0099917Y0010642D01*
X0100008Y0010559D01*
X0100097Y0010473D01*
X0100183Y0010384D01*
X0100266Y0010293D01*
X0100347Y0010199D01*
X0100424Y0010102D01*
X0100498Y0010003D01*
X0100569Y0009902D01*
X0100637Y0009799D01*
X0100702Y0009693D01*
X0100763Y0009586D01*
X0100821Y0009476D01*
X0100875Y0009365D01*
X0100926Y0009253D01*
X0100974Y0009138D01*
X0101017Y0009023D01*
X0101057Y0008906D01*
X0101094Y0008787D01*
X0101126Y0008668D01*
X0101155Y0008548D01*
X0101180Y0008427D01*
X0101202Y0008305D01*
X0101219Y0008182D01*
X0101233Y0008060D01*
X0101242Y0007936D01*
X0101248Y0007813D01*
X0101250Y0007689D01*
X0203612Y0007689D01*
X0203614Y0007813D01*
X0203620Y0007936D01*
X0203629Y0008060D01*
X0203643Y0008182D01*
X0203660Y0008305D01*
X0203682Y0008427D01*
X0203707Y0008548D01*
X0203736Y0008668D01*
X0203768Y0008787D01*
X0203805Y0008906D01*
X0203845Y0009023D01*
X0203888Y0009138D01*
X0203936Y0009253D01*
X0203987Y0009365D01*
X0204041Y0009476D01*
X0204099Y0009586D01*
X0204160Y0009693D01*
X0204225Y0009799D01*
X0204293Y0009902D01*
X0204364Y0010003D01*
X0204438Y0010102D01*
X0204515Y0010199D01*
X0204596Y0010293D01*
X0204679Y0010384D01*
X0204765Y0010473D01*
X0204854Y0010559D01*
X0204945Y0010642D01*
X0205039Y0010723D01*
X0205136Y0010800D01*
X0205235Y0010874D01*
X0205336Y0010945D01*
X0205439Y0011013D01*
X0205545Y0011078D01*
X0205652Y0011139D01*
X0205762Y0011197D01*
X0205873Y0011251D01*
X0205985Y0011302D01*
X0206100Y0011350D01*
X0206215Y0011393D01*
X0206332Y0011433D01*
X0206451Y0011470D01*
X0206570Y0011502D01*
X0206690Y0011531D01*
X0206811Y0011556D01*
X0206933Y0011578D01*
X0207056Y0011595D01*
X0207178Y0011609D01*
X0207302Y0011618D01*
X0207425Y0011624D01*
X0207549Y0011626D01*
X0223297Y0011626D01*
X0223421Y0011624D01*
X0223544Y0011618D01*
X0223668Y0011609D01*
X0223790Y0011595D01*
X0223913Y0011578D01*
X0224035Y0011556D01*
X0224156Y0011531D01*
X0224276Y0011502D01*
X0224395Y0011470D01*
X0224514Y0011433D01*
X0224631Y0011393D01*
X0224746Y0011350D01*
X0224861Y0011302D01*
X0224973Y0011251D01*
X0225084Y0011197D01*
X0225194Y0011139D01*
X0225301Y0011078D01*
X0225407Y0011013D01*
X0225510Y0010945D01*
X0225611Y0010874D01*
X0225710Y0010800D01*
X0225807Y0010723D01*
X0225901Y0010642D01*
X0225992Y0010559D01*
X0226081Y0010473D01*
X0226167Y0010384D01*
X0226250Y0010293D01*
X0226331Y0010199D01*
X0226408Y0010102D01*
X0226482Y0010003D01*
X0226553Y0009902D01*
X0226621Y0009799D01*
X0226686Y0009693D01*
X0226747Y0009586D01*
X0226805Y0009476D01*
X0226859Y0009365D01*
X0226910Y0009253D01*
X0226958Y0009138D01*
X0227001Y0009023D01*
X0227041Y0008906D01*
X0227078Y0008787D01*
X0227110Y0008668D01*
X0227139Y0008548D01*
X0227164Y0008427D01*
X0227186Y0008305D01*
X0227203Y0008182D01*
X0227217Y0008060D01*
X0227226Y0007936D01*
X0227232Y0007813D01*
X0227234Y0007689D01*
X0270541Y0007689D01*
X0270541Y0031311D01*
X0270543Y0031435D01*
X0270549Y0031558D01*
X0270558Y0031682D01*
X0270572Y0031804D01*
X0270589Y0031927D01*
X0270611Y0032049D01*
X0270636Y0032170D01*
X0270665Y0032290D01*
X0270697Y0032409D01*
X0270734Y0032528D01*
X0270774Y0032645D01*
X0270817Y0032760D01*
X0270865Y0032875D01*
X0270916Y0032987D01*
X0270970Y0033098D01*
X0271028Y0033208D01*
X0271089Y0033315D01*
X0271154Y0033421D01*
X0271222Y0033524D01*
X0271293Y0033625D01*
X0271367Y0033724D01*
X0271444Y0033821D01*
X0271525Y0033915D01*
X0271608Y0034006D01*
X0271694Y0034095D01*
X0271783Y0034181D01*
X0271874Y0034264D01*
X0271968Y0034345D01*
X0272065Y0034422D01*
X0272164Y0034496D01*
X0272265Y0034567D01*
X0272368Y0034635D01*
X0272474Y0034700D01*
X0272581Y0034761D01*
X0272691Y0034819D01*
X0272802Y0034873D01*
X0272914Y0034924D01*
X0273029Y0034972D01*
X0273144Y0035015D01*
X0273261Y0035055D01*
X0273380Y0035092D01*
X0273499Y0035124D01*
X0273619Y0035153D01*
X0273740Y0035178D01*
X0273862Y0035200D01*
X0273985Y0035217D01*
X0274107Y0035231D01*
X0274231Y0035240D01*
X0274354Y0035246D01*
X0274478Y0035248D01*
X0288652Y0035248D01*
X0288651Y0035248D02*
X0288653Y0035335D01*
X0288659Y0035422D01*
X0288668Y0035509D01*
X0288682Y0035595D01*
X0288699Y0035680D01*
X0288720Y0035765D01*
X0288745Y0035848D01*
X0288773Y0035931D01*
X0288805Y0036012D01*
X0288841Y0036091D01*
X0288880Y0036169D01*
X0288922Y0036245D01*
X0288968Y0036319D01*
X0289017Y0036391D01*
X0289069Y0036461D01*
X0289124Y0036528D01*
X0289182Y0036593D01*
X0289243Y0036656D01*
X0289307Y0036715D01*
X0289373Y0036772D01*
X0289442Y0036825D01*
X0289513Y0036876D01*
X0289586Y0036923D01*
X0289661Y0036968D01*
X0289738Y0037008D01*
X0289816Y0037046D01*
X0289897Y0037079D01*
X0289978Y0037110D01*
X0290061Y0037136D01*
X0290146Y0037159D01*
X0290231Y0037178D01*
X0290316Y0037193D01*
X0290403Y0037205D01*
X0290489Y0037213D01*
X0290576Y0037217D01*
X0290664Y0037217D01*
X0290751Y0037213D01*
X0290837Y0037205D01*
X0290924Y0037193D01*
X0291009Y0037178D01*
X0291094Y0037159D01*
X0291179Y0037136D01*
X0291262Y0037110D01*
X0291343Y0037079D01*
X0291424Y0037046D01*
X0291502Y0037008D01*
X0291579Y0036968D01*
X0291654Y0036923D01*
X0291727Y0036876D01*
X0291798Y0036825D01*
X0291867Y0036772D01*
X0291933Y0036715D01*
X0291997Y0036656D01*
X0292058Y0036593D01*
X0292116Y0036528D01*
X0292171Y0036461D01*
X0292223Y0036391D01*
X0292272Y0036319D01*
X0292318Y0036245D01*
X0292360Y0036169D01*
X0292399Y0036091D01*
X0292435Y0036012D01*
X0292467Y0035931D01*
X0292495Y0035848D01*
X0292520Y0035765D01*
X0292541Y0035680D01*
X0292558Y0035595D01*
X0292572Y0035509D01*
X0292581Y0035422D01*
X0292587Y0035335D01*
X0292589Y0035248D01*
X0369360Y0035248D01*
X0369360Y0145484D01*
X0292589Y0145484D01*
X0292587Y0145397D01*
X0292581Y0145310D01*
X0292572Y0145223D01*
X0292558Y0145137D01*
X0292541Y0145052D01*
X0292520Y0144967D01*
X0292495Y0144884D01*
X0292467Y0144801D01*
X0292435Y0144720D01*
X0292399Y0144641D01*
X0292360Y0144563D01*
X0292318Y0144487D01*
X0292272Y0144413D01*
X0292223Y0144341D01*
X0292171Y0144271D01*
X0292116Y0144204D01*
X0292058Y0144139D01*
X0291997Y0144076D01*
X0291933Y0144017D01*
X0291867Y0143960D01*
X0291798Y0143907D01*
X0291727Y0143856D01*
X0291654Y0143809D01*
X0291579Y0143764D01*
X0291502Y0143724D01*
X0291424Y0143686D01*
X0291343Y0143653D01*
X0291262Y0143622D01*
X0291179Y0143596D01*
X0291094Y0143573D01*
X0291009Y0143554D01*
X0290924Y0143539D01*
X0290837Y0143527D01*
X0290751Y0143519D01*
X0290664Y0143515D01*
X0290576Y0143515D01*
X0290489Y0143519D01*
X0290403Y0143527D01*
X0290316Y0143539D01*
X0290231Y0143554D01*
X0290146Y0143573D01*
X0290061Y0143596D01*
X0289978Y0143622D01*
X0289897Y0143653D01*
X0289816Y0143686D01*
X0289738Y0143724D01*
X0289661Y0143764D01*
X0289586Y0143809D01*
X0289513Y0143856D01*
X0289442Y0143907D01*
X0289373Y0143960D01*
X0289307Y0144017D01*
X0289243Y0144076D01*
X0289182Y0144139D01*
X0289124Y0144204D01*
X0289069Y0144271D01*
X0289017Y0144341D01*
X0288968Y0144413D01*
X0288922Y0144487D01*
X0288880Y0144563D01*
X0288841Y0144641D01*
X0288805Y0144720D01*
X0288773Y0144801D01*
X0288745Y0144884D01*
X0288720Y0144967D01*
X0288699Y0145052D01*
X0288682Y0145137D01*
X0288668Y0145223D01*
X0288659Y0145310D01*
X0288653Y0145397D01*
X0288651Y0145484D01*
X0288652Y0145484D02*
X0274478Y0145484D01*
X0274354Y0145486D01*
X0274231Y0145492D01*
X0274107Y0145501D01*
X0273985Y0145515D01*
X0273862Y0145532D01*
X0273740Y0145554D01*
X0273619Y0145579D01*
X0273499Y0145608D01*
X0273380Y0145640D01*
X0273261Y0145677D01*
X0273144Y0145717D01*
X0273029Y0145760D01*
X0272914Y0145808D01*
X0272802Y0145859D01*
X0272691Y0145913D01*
X0272581Y0145971D01*
X0272474Y0146032D01*
X0272368Y0146097D01*
X0272265Y0146165D01*
X0272164Y0146236D01*
X0272065Y0146310D01*
X0271968Y0146387D01*
X0271874Y0146468D01*
X0271783Y0146551D01*
X0271694Y0146637D01*
X0271608Y0146726D01*
X0271525Y0146817D01*
X0271444Y0146911D01*
X0271367Y0147008D01*
X0271293Y0147107D01*
X0271222Y0147208D01*
X0271154Y0147311D01*
X0271089Y0147417D01*
X0271028Y0147524D01*
X0270970Y0147634D01*
X0270916Y0147745D01*
X0270865Y0147857D01*
X0270817Y0147972D01*
X0270774Y0148087D01*
X0270734Y0148204D01*
X0270697Y0148323D01*
X0270665Y0148442D01*
X0270636Y0148562D01*
X0270611Y0148683D01*
X0270589Y0148805D01*
X0270572Y0148928D01*
X0270558Y0149050D01*
X0270549Y0149174D01*
X0270543Y0149297D01*
X0270541Y0149421D01*
X0270541Y0173043D01*
X0227234Y0173043D01*
X0227232Y0172919D01*
X0227226Y0172796D01*
X0227217Y0172672D01*
X0227203Y0172550D01*
X0227186Y0172427D01*
X0227164Y0172305D01*
X0227139Y0172184D01*
X0227110Y0172064D01*
X0227078Y0171945D01*
X0227041Y0171826D01*
X0227001Y0171709D01*
X0226958Y0171594D01*
X0226910Y0171479D01*
X0226859Y0171367D01*
X0226805Y0171256D01*
X0226747Y0171146D01*
X0226686Y0171039D01*
X0226621Y0170933D01*
X0226553Y0170830D01*
X0226482Y0170729D01*
X0226408Y0170630D01*
X0226331Y0170533D01*
X0226250Y0170439D01*
X0226167Y0170348D01*
X0226081Y0170259D01*
X0225992Y0170173D01*
X0225901Y0170090D01*
X0225807Y0170009D01*
X0225710Y0169932D01*
X0225611Y0169858D01*
X0225510Y0169787D01*
X0225407Y0169719D01*
X0225301Y0169654D01*
X0225194Y0169593D01*
X0225084Y0169535D01*
X0224973Y0169481D01*
X0224861Y0169430D01*
X0224746Y0169382D01*
X0224631Y0169339D01*
X0224514Y0169299D01*
X0224395Y0169262D01*
X0224276Y0169230D01*
X0224156Y0169201D01*
X0224035Y0169176D01*
X0223913Y0169154D01*
X0223790Y0169137D01*
X0223668Y0169123D01*
X0223544Y0169114D01*
X0223421Y0169108D01*
X0223297Y0169106D01*
X0207549Y0169106D01*
X0207425Y0169108D01*
X0207302Y0169114D01*
X0207178Y0169123D01*
X0207056Y0169137D01*
X0206933Y0169154D01*
X0206811Y0169176D01*
X0206690Y0169201D01*
X0206570Y0169230D01*
X0206451Y0169262D01*
X0206332Y0169299D01*
X0206215Y0169339D01*
X0206100Y0169382D01*
X0205985Y0169430D01*
X0205873Y0169481D01*
X0205762Y0169535D01*
X0205652Y0169593D01*
X0205545Y0169654D01*
X0205439Y0169719D01*
X0205336Y0169787D01*
X0205235Y0169858D01*
X0205136Y0169932D01*
X0205039Y0170009D01*
X0204945Y0170090D01*
X0204854Y0170173D01*
X0204765Y0170259D01*
X0204679Y0170348D01*
X0204596Y0170439D01*
X0204515Y0170533D01*
X0204438Y0170630D01*
X0204364Y0170729D01*
X0204293Y0170830D01*
X0204225Y0170933D01*
X0204160Y0171039D01*
X0204099Y0171146D01*
X0204041Y0171256D01*
X0203987Y0171367D01*
X0203936Y0171479D01*
X0203888Y0171594D01*
X0203845Y0171709D01*
X0203805Y0171826D01*
X0203768Y0171945D01*
X0203736Y0172064D01*
X0203707Y0172184D01*
X0203682Y0172305D01*
X0203660Y0172427D01*
X0203643Y0172550D01*
X0203629Y0172672D01*
X0203620Y0172796D01*
X0203614Y0172919D01*
X0203612Y0173043D01*
X0101250Y0173043D01*
X0101248Y0172919D01*
X0101242Y0172796D01*
X0101233Y0172672D01*
X0101219Y0172550D01*
X0101202Y0172427D01*
X0101180Y0172305D01*
X0101155Y0172184D01*
X0101126Y0172064D01*
X0101094Y0171945D01*
X0101057Y0171826D01*
X0101017Y0171709D01*
X0100974Y0171594D01*
X0100926Y0171479D01*
X0100875Y0171367D01*
X0100821Y0171256D01*
X0100763Y0171146D01*
X0100702Y0171039D01*
X0100637Y0170933D01*
X0100569Y0170830D01*
X0100498Y0170729D01*
X0100424Y0170630D01*
X0100347Y0170533D01*
X0100266Y0170439D01*
X0100183Y0170348D01*
X0100097Y0170259D01*
X0100008Y0170173D01*
X0099917Y0170090D01*
X0099823Y0170009D01*
X0099726Y0169932D01*
X0099627Y0169858D01*
X0099526Y0169787D01*
X0099423Y0169719D01*
X0099317Y0169654D01*
X0099210Y0169593D01*
X0099100Y0169535D01*
X0098989Y0169481D01*
X0098877Y0169430D01*
X0098762Y0169382D01*
X0098647Y0169339D01*
X0098530Y0169299D01*
X0098411Y0169262D01*
X0098292Y0169230D01*
X0098172Y0169201D01*
X0098051Y0169176D01*
X0097929Y0169154D01*
X0097806Y0169137D01*
X0097684Y0169123D01*
X0097560Y0169114D01*
X0097437Y0169108D01*
X0097313Y0169106D01*
X0081565Y0169106D01*
X0081441Y0169108D01*
X0081318Y0169114D01*
X0081194Y0169123D01*
X0081072Y0169137D01*
X0080949Y0169154D01*
X0080827Y0169176D01*
X0080706Y0169201D01*
X0080586Y0169230D01*
X0080467Y0169262D01*
X0080348Y0169299D01*
X0080231Y0169339D01*
X0080116Y0169382D01*
X0080001Y0169430D01*
X0079889Y0169481D01*
X0079778Y0169535D01*
X0079668Y0169593D01*
X0079561Y0169654D01*
X0079455Y0169719D01*
X0079352Y0169787D01*
X0079251Y0169858D01*
X0079152Y0169932D01*
X0079055Y0170009D01*
X0078961Y0170090D01*
X0078870Y0170173D01*
X0078781Y0170259D01*
X0078695Y0170348D01*
X0078612Y0170439D01*
X0078531Y0170533D01*
X0078454Y0170630D01*
X0078380Y0170729D01*
X0078309Y0170830D01*
X0078241Y0170933D01*
X0078176Y0171039D01*
X0078115Y0171146D01*
X0078057Y0171256D01*
X0078003Y0171367D01*
X0077952Y0171479D01*
X0077904Y0171594D01*
X0077861Y0171709D01*
X0077821Y0171826D01*
X0077784Y0171945D01*
X0077752Y0172064D01*
X0077723Y0172184D01*
X0077698Y0172305D01*
X0077676Y0172427D01*
X0077659Y0172550D01*
X0077645Y0172672D01*
X0077636Y0172796D01*
X0077630Y0172919D01*
X0077628Y0173043D01*
X0034321Y0173043D01*
X0034321Y0007689D01*
X0288652Y0049421D02*
X0288652Y0131311D01*
X0288651Y0131311D02*
X0288653Y0131398D01*
X0288659Y0131485D01*
X0288668Y0131572D01*
X0288682Y0131658D01*
X0288699Y0131743D01*
X0288720Y0131828D01*
X0288745Y0131911D01*
X0288773Y0131994D01*
X0288805Y0132075D01*
X0288841Y0132154D01*
X0288880Y0132232D01*
X0288922Y0132308D01*
X0288968Y0132382D01*
X0289017Y0132454D01*
X0289069Y0132524D01*
X0289124Y0132591D01*
X0289182Y0132656D01*
X0289243Y0132719D01*
X0289307Y0132778D01*
X0289373Y0132835D01*
X0289442Y0132888D01*
X0289513Y0132939D01*
X0289586Y0132986D01*
X0289661Y0133031D01*
X0289738Y0133071D01*
X0289816Y0133109D01*
X0289897Y0133142D01*
X0289978Y0133173D01*
X0290061Y0133199D01*
X0290146Y0133222D01*
X0290231Y0133241D01*
X0290316Y0133256D01*
X0290403Y0133268D01*
X0290489Y0133276D01*
X0290576Y0133280D01*
X0290664Y0133280D01*
X0290751Y0133276D01*
X0290837Y0133268D01*
X0290924Y0133256D01*
X0291009Y0133241D01*
X0291094Y0133222D01*
X0291179Y0133199D01*
X0291262Y0133173D01*
X0291343Y0133142D01*
X0291424Y0133109D01*
X0291502Y0133071D01*
X0291579Y0133031D01*
X0291654Y0132986D01*
X0291727Y0132939D01*
X0291798Y0132888D01*
X0291867Y0132835D01*
X0291933Y0132778D01*
X0291997Y0132719D01*
X0292058Y0132656D01*
X0292116Y0132591D01*
X0292171Y0132524D01*
X0292223Y0132454D01*
X0292272Y0132382D01*
X0292318Y0132308D01*
X0292360Y0132232D01*
X0292399Y0132154D01*
X0292435Y0132075D01*
X0292467Y0131994D01*
X0292495Y0131911D01*
X0292520Y0131828D01*
X0292541Y0131743D01*
X0292558Y0131658D01*
X0292572Y0131572D01*
X0292581Y0131485D01*
X0292587Y0131398D01*
X0292589Y0131311D01*
X0292589Y0049421D01*
X0292587Y0049334D01*
X0292581Y0049247D01*
X0292572Y0049160D01*
X0292558Y0049074D01*
X0292541Y0048989D01*
X0292520Y0048904D01*
X0292495Y0048821D01*
X0292467Y0048738D01*
X0292435Y0048657D01*
X0292399Y0048578D01*
X0292360Y0048500D01*
X0292318Y0048424D01*
X0292272Y0048350D01*
X0292223Y0048278D01*
X0292171Y0048208D01*
X0292116Y0048141D01*
X0292058Y0048076D01*
X0291997Y0048013D01*
X0291933Y0047954D01*
X0291867Y0047897D01*
X0291798Y0047844D01*
X0291727Y0047793D01*
X0291654Y0047746D01*
X0291579Y0047701D01*
X0291502Y0047661D01*
X0291424Y0047623D01*
X0291343Y0047590D01*
X0291262Y0047559D01*
X0291179Y0047533D01*
X0291094Y0047510D01*
X0291009Y0047491D01*
X0290924Y0047476D01*
X0290837Y0047464D01*
X0290751Y0047456D01*
X0290664Y0047452D01*
X0290576Y0047452D01*
X0290489Y0047456D01*
X0290403Y0047464D01*
X0290316Y0047476D01*
X0290231Y0047491D01*
X0290146Y0047510D01*
X0290061Y0047533D01*
X0289978Y0047559D01*
X0289897Y0047590D01*
X0289816Y0047623D01*
X0289738Y0047661D01*
X0289661Y0047701D01*
X0289586Y0047746D01*
X0289513Y0047793D01*
X0289442Y0047844D01*
X0289373Y0047897D01*
X0289307Y0047954D01*
X0289243Y0048013D01*
X0289182Y0048076D01*
X0289124Y0048141D01*
X0289069Y0048208D01*
X0289017Y0048278D01*
X0288968Y0048350D01*
X0288922Y0048424D01*
X0288880Y0048500D01*
X0288841Y0048578D01*
X0288805Y0048657D01*
X0288773Y0048738D01*
X0288745Y0048821D01*
X0288720Y0048904D01*
X0288699Y0048989D01*
X0288682Y0049074D01*
X0288668Y0049160D01*
X0288659Y0049247D01*
X0288653Y0049334D01*
X0288651Y0049421D01*
D12*
X0300541Y0050445D03*
X0310541Y0050445D03*
X0320541Y0050445D03*
X0330541Y0050445D03*
X0340541Y0050445D03*
X0340541Y0070445D03*
X0330541Y0070445D03*
X0320541Y0070445D03*
X0310541Y0070445D03*
X0300541Y0070445D03*
X0300541Y0080366D03*
X0310541Y0080366D03*
X0320541Y0080366D03*
X0330541Y0080366D03*
X0340541Y0080366D03*
X0340541Y0100366D03*
X0330541Y0100366D03*
X0320541Y0100366D03*
X0310541Y0100366D03*
X0300541Y0100366D03*
X0300541Y0110287D03*
X0310541Y0110287D03*
X0320541Y0110287D03*
X0330541Y0110287D03*
X0340541Y0110287D03*
X0340541Y0130287D03*
X0330541Y0130287D03*
X0320541Y0130287D03*
X0310541Y0130287D03*
X0300541Y0130287D03*
D13*
X0352037Y0130248D03*
X0352037Y0120248D03*
X0352037Y0110248D03*
X0352037Y0100248D03*
X0352037Y0090248D03*
X0352037Y0080248D03*
X0352037Y0070248D03*
X0352037Y0060248D03*
X0352037Y0050248D03*
X0352037Y0040248D03*
D14*
X0352037Y0140248D03*
D15*
X0279596Y0040484D03*
D16*
X0279596Y0050484D03*
X0279596Y0060484D03*
X0279596Y0070484D03*
X0279596Y0080484D03*
X0279596Y0090484D03*
X0279596Y0100484D03*
X0279596Y0110484D03*
X0279596Y0120484D03*
X0279596Y0130484D03*
X0279596Y0140484D03*
D17*
X0268770Y0134083D02*
X0268770Y0128146D01*
X0251053Y0128146D02*
X0251053Y0134083D01*
X0251053Y0108492D02*
X0251053Y0102555D01*
X0268770Y0102555D02*
X0268770Y0108492D01*
X0268770Y0078571D02*
X0268770Y0072634D01*
X0251053Y0072634D02*
X0251053Y0078571D01*
X0251053Y0052980D02*
X0251053Y0047043D01*
X0268770Y0047043D02*
X0268770Y0052980D01*
D18*
X0156171Y0020531D02*
X0156171Y0014531D01*
X0146171Y0014531D02*
X0146171Y0020531D01*
X0136171Y0020531D02*
X0136171Y0014531D01*
X0126171Y0014531D02*
X0126171Y0020531D01*
X0116171Y0020531D02*
X0116171Y0014531D01*
X0106171Y0014531D02*
X0106171Y0020531D01*
X0057400Y0105051D02*
X0051400Y0105051D01*
X0051400Y0115051D02*
X0057400Y0115051D01*
D19*
X0169715Y0024500D03*
X0179715Y0024500D03*
X0189715Y0024500D03*
X0199715Y0024500D03*
X0199715Y0014500D03*
X0189715Y0014500D03*
X0179715Y0014500D03*
X0169715Y0014500D03*
D20*
X0141014Y0028949D03*
X0119754Y0034461D03*
X0116604Y0034461D03*
X0113455Y0034461D03*
X0109518Y0044697D03*
X0105974Y0044697D03*
X0105974Y0048240D03*
X0109518Y0048240D03*
X0109518Y0051783D03*
X0105974Y0051783D03*
X0109911Y0061626D03*
X0109911Y0066350D03*
X0109911Y0071075D03*
X0129203Y0078161D03*
X0144951Y0086823D03*
X0151250Y0072650D03*
X0154400Y0072650D03*
X0139439Y0067531D03*
X0139439Y0062413D03*
X0139439Y0057689D03*
X0133140Y0047846D03*
X0129596Y0047846D03*
X0166211Y0049028D03*
X0180384Y0056508D03*
X0185896Y0054146D03*
X0172116Y0057689D03*
X0172116Y0062413D03*
X0189833Y0074224D03*
X0184321Y0076980D03*
X0178809Y0077768D03*
X0197313Y0087217D03*
X0202037Y0085642D03*
X0206368Y0081705D03*
X0209124Y0078949D03*
X0217392Y0072256D03*
X0220935Y0072256D03*
X0225659Y0071862D03*
X0225659Y0076193D03*
X0214636Y0068713D03*
X0209518Y0068713D03*
X0225659Y0085248D03*
X0216998Y0090366D03*
X0219360Y0093516D03*
X0225659Y0093516D03*
X0218179Y0109264D03*
X0207156Y0117531D03*
X0176447Y0130917D03*
X0168573Y0125799D03*
X0172510Y0123831D03*
X0166604Y0121862D03*
X0155974Y0115169D03*
X0142195Y0116744D03*
X0127628Y0118319D03*
X0145344Y0125012D03*
X0148494Y0125012D03*
X0151644Y0125012D03*
X0153612Y0137217D03*
X0176447Y0138004D03*
X0208337Y0137217D03*
X0168967Y0109264D03*
X0168967Y0104933D03*
X0158337Y0104146D03*
X0156762Y0107689D03*
X0172904Y0097846D03*
X0176053Y0095878D03*
X0182352Y0090366D03*
X0191801Y0090760D03*
X0191801Y0094697D03*
X0191801Y0098634D03*
X0188652Y0100602D03*
X0131959Y0107689D03*
X0097313Y0097059D03*
X0086683Y0124618D03*
X0065030Y0142728D03*
X0041801Y0141547D03*
X0038258Y0141547D03*
X0038258Y0138004D03*
X0041801Y0138004D03*
X0041801Y0134461D03*
X0038258Y0134461D03*
X0038258Y0130917D03*
X0041801Y0130917D03*
X0041801Y0145091D03*
X0038258Y0145091D03*
X0124085Y0161626D03*
X0127628Y0161626D03*
X0131171Y0161626D03*
X0131171Y0165169D03*
X0127628Y0165169D03*
X0124085Y0165169D03*
X0140620Y0165169D03*
X0144163Y0165169D03*
X0147707Y0165169D03*
X0147707Y0161626D03*
X0144163Y0161626D03*
X0140620Y0161626D03*
X0214636Y0038004D03*
X0214636Y0034854D03*
X0206368Y0019500D03*
D21*
X0093651Y0097846D02*
X0043766Y0097846D01*
X0044492Y0099597D01*
X0044492Y0101607D01*
X0043722Y0103465D01*
X0042301Y0104886D01*
X0040444Y0105655D01*
X0038434Y0105655D01*
X0036618Y0104903D01*
X0036618Y0115200D01*
X0038434Y0114447D01*
X0040444Y0114447D01*
X0042301Y0115216D01*
X0043722Y0116638D01*
X0044492Y0118495D01*
X0044492Y0120505D01*
X0043722Y0122362D01*
X0042301Y0123784D01*
X0040444Y0124553D01*
X0038434Y0124553D01*
X0036618Y0123800D01*
X0036618Y0170746D01*
X0075769Y0170746D01*
X0076280Y0169512D01*
X0078034Y0167759D01*
X0080325Y0166809D01*
X0098264Y0166809D01*
X0098553Y0166809D01*
X0100844Y0167759D01*
X0102598Y0169512D01*
X0103109Y0170746D01*
X0132746Y0170746D01*
X0132746Y0121219D01*
X0129938Y0121219D01*
X0129715Y0121442D01*
X0128361Y0122003D01*
X0126895Y0122003D01*
X0125541Y0121442D01*
X0124505Y0120406D01*
X0123944Y0119052D01*
X0123944Y0117586D01*
X0124505Y0116232D01*
X0125541Y0115196D01*
X0126895Y0114635D01*
X0128361Y0114635D01*
X0129715Y0115196D01*
X0129938Y0115419D01*
X0132746Y0115419D01*
X0132746Y0111351D01*
X0132691Y0111373D01*
X0131226Y0111373D01*
X0129872Y0110812D01*
X0128835Y0109776D01*
X0128274Y0108422D01*
X0128274Y0106956D01*
X0128835Y0105602D01*
X0129872Y0104566D01*
X0131226Y0104005D01*
X0132691Y0104005D01*
X0132746Y0104027D01*
X0132746Y0101271D01*
X0131234Y0099759D01*
X0099823Y0099759D01*
X0099400Y0100182D01*
X0098046Y0100743D01*
X0096580Y0100743D01*
X0095226Y0100182D01*
X0094190Y0099146D01*
X0093651Y0097846D01*
X0093944Y0098554D02*
X0044059Y0098554D01*
X0044473Y0099552D02*
X0094596Y0099552D01*
X0096115Y0100551D02*
X0059861Y0100551D01*
X0060289Y0100728D02*
X0061723Y0102162D01*
X0062500Y0104037D01*
X0062500Y0106066D01*
X0061723Y0107940D01*
X0060289Y0109375D01*
X0058414Y0110151D01*
X0050385Y0110151D01*
X0048511Y0109375D01*
X0047076Y0107940D01*
X0046300Y0106066D01*
X0046300Y0104037D01*
X0047076Y0102162D01*
X0048511Y0100728D01*
X0050385Y0099951D01*
X0058414Y0099951D01*
X0060289Y0100728D01*
X0061110Y0101549D02*
X0132746Y0101549D01*
X0132746Y0102548D02*
X0061883Y0102548D01*
X0062296Y0103546D02*
X0132746Y0103546D01*
X0129922Y0104545D02*
X0062500Y0104545D01*
X0062500Y0105543D02*
X0128894Y0105543D01*
X0128446Y0106542D02*
X0062302Y0106542D01*
X0061889Y0107540D02*
X0128274Y0107540D01*
X0128323Y0108539D02*
X0061125Y0108539D01*
X0059896Y0109537D02*
X0128736Y0109537D01*
X0129595Y0110536D02*
X0036618Y0110536D01*
X0036618Y0111534D02*
X0048585Y0111534D01*
X0048468Y0111619D02*
X0049041Y0111202D01*
X0049672Y0110881D01*
X0050346Y0110662D01*
X0051045Y0110551D01*
X0053900Y0110551D01*
X0053900Y0114551D01*
X0054900Y0114551D01*
X0054900Y0115551D01*
X0061876Y0115551D01*
X0061789Y0116105D01*
X0061570Y0116779D01*
X0061248Y0117410D01*
X0060832Y0117983D01*
X0060331Y0118484D01*
X0059758Y0118900D01*
X0059127Y0119221D01*
X0058453Y0119440D01*
X0057754Y0119551D01*
X0054900Y0119551D01*
X0054900Y0115551D01*
X0053900Y0115551D01*
X0053900Y0119551D01*
X0051045Y0119551D01*
X0050346Y0119440D01*
X0049672Y0119221D01*
X0049041Y0118900D01*
X0048468Y0118484D01*
X0047967Y0117983D01*
X0047551Y0117410D01*
X0047229Y0116779D01*
X0047010Y0116105D01*
X0046923Y0115551D01*
X0053900Y0115551D01*
X0053900Y0114551D01*
X0046923Y0114551D01*
X0047010Y0113997D01*
X0047229Y0113324D01*
X0047551Y0112693D01*
X0047967Y0112120D01*
X0048468Y0111619D01*
X0047667Y0112533D02*
X0036618Y0112533D01*
X0036618Y0113531D02*
X0047162Y0113531D01*
X0046926Y0114530D02*
X0040643Y0114530D01*
X0042613Y0115528D02*
X0053900Y0115528D01*
X0053900Y0114530D02*
X0054900Y0114530D01*
X0054900Y0114551D02*
X0054900Y0110551D01*
X0057754Y0110551D01*
X0058453Y0110662D01*
X0059127Y0110881D01*
X0059758Y0111202D01*
X0060331Y0111619D01*
X0060832Y0112120D01*
X0061248Y0112693D01*
X0061570Y0113324D01*
X0061789Y0113997D01*
X0061876Y0114551D01*
X0054900Y0114551D01*
X0054900Y0115528D02*
X0125208Y0115528D01*
X0124382Y0116527D02*
X0061652Y0116527D01*
X0061164Y0117525D02*
X0123969Y0117525D01*
X0123944Y0118524D02*
X0060276Y0118524D01*
X0057936Y0119522D02*
X0124139Y0119522D01*
X0124619Y0120521D02*
X0044485Y0120521D01*
X0044492Y0119522D02*
X0050863Y0119522D01*
X0048523Y0118524D02*
X0044492Y0118524D01*
X0044090Y0117525D02*
X0047635Y0117525D01*
X0047147Y0116527D02*
X0043611Y0116527D01*
X0038235Y0114530D02*
X0036618Y0114530D01*
X0036618Y0109537D02*
X0048903Y0109537D01*
X0047675Y0108539D02*
X0036618Y0108539D01*
X0036618Y0107540D02*
X0046910Y0107540D01*
X0046497Y0106542D02*
X0036618Y0106542D01*
X0036618Y0105543D02*
X0038163Y0105543D01*
X0040714Y0105543D02*
X0046300Y0105543D01*
X0046300Y0104545D02*
X0042642Y0104545D01*
X0043641Y0103546D02*
X0046503Y0103546D01*
X0046916Y0102548D02*
X0044102Y0102548D01*
X0044492Y0101549D02*
X0047689Y0101549D01*
X0048938Y0100551D02*
X0044492Y0100551D01*
X0053900Y0111534D02*
X0054900Y0111534D01*
X0054900Y0112533D02*
X0053900Y0112533D01*
X0053900Y0113531D02*
X0054900Y0113531D01*
X0054900Y0116527D02*
X0053900Y0116527D01*
X0053900Y0117525D02*
X0054900Y0117525D01*
X0054900Y0118524D02*
X0053900Y0118524D01*
X0053900Y0119522D02*
X0054900Y0119522D01*
X0044072Y0121519D02*
X0084572Y0121519D01*
X0084596Y0121495D02*
X0085950Y0120934D01*
X0087416Y0120934D01*
X0088770Y0121495D01*
X0089806Y0122531D01*
X0090367Y0123885D01*
X0090367Y0125351D01*
X0089806Y0126705D01*
X0088770Y0127741D01*
X0087416Y0128302D01*
X0086676Y0128302D01*
X0070046Y0144933D01*
X0069090Y0145328D01*
X0067640Y0145328D01*
X0067116Y0145852D01*
X0065762Y0146413D01*
X0064297Y0146413D01*
X0062943Y0145852D01*
X0061906Y0144815D01*
X0061345Y0143461D01*
X0061345Y0141995D01*
X0061906Y0140641D01*
X0062943Y0139605D01*
X0064297Y0139044D01*
X0065762Y0139044D01*
X0067116Y0139605D01*
X0067568Y0140056D01*
X0082999Y0124625D01*
X0082999Y0123885D01*
X0083560Y0122531D01*
X0084596Y0121495D01*
X0083573Y0122518D02*
X0043567Y0122518D01*
X0042568Y0123516D02*
X0083152Y0123516D01*
X0082999Y0124515D02*
X0040536Y0124515D01*
X0038342Y0124515D02*
X0036618Y0124515D01*
X0036618Y0125513D02*
X0082111Y0125513D01*
X0081112Y0126512D02*
X0036618Y0126512D01*
X0036618Y0127510D02*
X0080114Y0127510D01*
X0079115Y0128509D02*
X0036618Y0128509D01*
X0036618Y0129507D02*
X0078117Y0129507D01*
X0077118Y0130506D02*
X0036618Y0130506D01*
X0036618Y0131504D02*
X0076120Y0131504D01*
X0075121Y0132503D02*
X0036618Y0132503D01*
X0036618Y0133501D02*
X0074123Y0133501D01*
X0073124Y0134500D02*
X0036618Y0134500D01*
X0036618Y0135498D02*
X0072126Y0135498D01*
X0071127Y0136497D02*
X0036618Y0136497D01*
X0036618Y0137495D02*
X0070129Y0137495D01*
X0069130Y0138494D02*
X0036618Y0138494D01*
X0036618Y0139492D02*
X0063214Y0139492D01*
X0062057Y0140491D02*
X0036618Y0140491D01*
X0036618Y0141489D02*
X0061555Y0141489D01*
X0061345Y0142488D02*
X0036618Y0142488D01*
X0036618Y0143487D02*
X0061356Y0143487D01*
X0061769Y0144485D02*
X0036618Y0144485D01*
X0036618Y0145484D02*
X0062574Y0145484D01*
X0065030Y0142728D02*
X0068573Y0142728D01*
X0086683Y0124618D01*
X0090367Y0124515D02*
X0132746Y0124515D01*
X0132746Y0125513D02*
X0090300Y0125513D01*
X0089886Y0126512D02*
X0132746Y0126512D01*
X0132746Y0127510D02*
X0089001Y0127510D01*
X0086469Y0128509D02*
X0132746Y0128509D01*
X0132746Y0129507D02*
X0085471Y0129507D01*
X0084472Y0130506D02*
X0132746Y0130506D01*
X0132746Y0131504D02*
X0083474Y0131504D01*
X0082475Y0132503D02*
X0132746Y0132503D01*
X0132746Y0133501D02*
X0081477Y0133501D01*
X0080478Y0134500D02*
X0132746Y0134500D01*
X0132746Y0135498D02*
X0079480Y0135498D01*
X0078481Y0136497D02*
X0132746Y0136497D01*
X0132746Y0137495D02*
X0077483Y0137495D01*
X0076484Y0138494D02*
X0132746Y0138494D01*
X0132746Y0139492D02*
X0075486Y0139492D01*
X0074487Y0140491D02*
X0132746Y0140491D01*
X0132746Y0141489D02*
X0073489Y0141489D01*
X0072490Y0142488D02*
X0132746Y0142488D01*
X0132746Y0143487D02*
X0071492Y0143487D01*
X0070493Y0144485D02*
X0132746Y0144485D01*
X0132746Y0145484D02*
X0067485Y0145484D01*
X0058318Y0152811D02*
X0055520Y0151652D01*
X0052492Y0151652D01*
X0049694Y0152811D01*
X0047553Y0154952D01*
X0046394Y0157750D01*
X0046394Y0160778D01*
X0047553Y0163576D01*
X0049694Y0165717D01*
X0052492Y0166876D01*
X0055520Y0166876D01*
X0058318Y0165717D01*
X0060459Y0163576D01*
X0061618Y0160778D01*
X0061618Y0157750D01*
X0060459Y0154952D01*
X0058318Y0152811D01*
X0057502Y0152473D02*
X0132746Y0152473D01*
X0132746Y0151475D02*
X0036618Y0151475D01*
X0036618Y0152473D02*
X0050509Y0152473D01*
X0049033Y0153472D02*
X0036618Y0153472D01*
X0036618Y0154470D02*
X0048035Y0154470D01*
X0047339Y0155469D02*
X0036618Y0155469D01*
X0036618Y0156467D02*
X0046925Y0156467D01*
X0046512Y0157466D02*
X0036618Y0157466D01*
X0036618Y0158464D02*
X0046394Y0158464D01*
X0046394Y0159463D02*
X0036618Y0159463D01*
X0036618Y0160461D02*
X0046394Y0160461D01*
X0046677Y0161460D02*
X0036618Y0161460D01*
X0036618Y0162458D02*
X0047090Y0162458D01*
X0047504Y0163457D02*
X0036618Y0163457D01*
X0036618Y0164455D02*
X0048433Y0164455D01*
X0049431Y0165454D02*
X0036618Y0165454D01*
X0036618Y0166452D02*
X0051470Y0166452D01*
X0056542Y0166452D02*
X0132746Y0166452D01*
X0132746Y0165454D02*
X0058581Y0165454D01*
X0059579Y0164455D02*
X0132746Y0164455D01*
X0132746Y0163457D02*
X0060508Y0163457D01*
X0060922Y0162458D02*
X0132746Y0162458D01*
X0132746Y0161460D02*
X0061335Y0161460D01*
X0061618Y0160461D02*
X0132746Y0160461D01*
X0132746Y0159463D02*
X0061618Y0159463D01*
X0061618Y0158464D02*
X0132746Y0158464D01*
X0132746Y0157466D02*
X0061500Y0157466D01*
X0061086Y0156467D02*
X0132746Y0156467D01*
X0132746Y0155469D02*
X0060673Y0155469D01*
X0059977Y0154470D02*
X0132746Y0154470D01*
X0132746Y0153472D02*
X0058978Y0153472D01*
X0036618Y0150476D02*
X0132746Y0150476D01*
X0132746Y0149478D02*
X0036618Y0149478D01*
X0036618Y0148479D02*
X0132746Y0148479D01*
X0132746Y0147481D02*
X0036618Y0147481D01*
X0036618Y0146482D02*
X0132746Y0146482D01*
X0132746Y0167451D02*
X0100101Y0167451D01*
X0100844Y0167759D02*
X0100844Y0167759D01*
X0101535Y0168449D02*
X0132746Y0168449D01*
X0132746Y0169448D02*
X0102533Y0169448D01*
X0102598Y0169512D02*
X0102598Y0169512D01*
X0102985Y0170446D02*
X0132746Y0170446D01*
X0098553Y0166809D02*
X0098553Y0166809D01*
X0078777Y0167451D02*
X0036618Y0167451D01*
X0036618Y0168449D02*
X0077343Y0168449D01*
X0078034Y0167759D02*
X0078034Y0167759D01*
X0076344Y0169448D02*
X0036618Y0169448D01*
X0036618Y0170446D02*
X0075893Y0170446D01*
X0076280Y0169512D02*
X0076280Y0169512D01*
X0068132Y0139492D02*
X0066845Y0139492D01*
X0090214Y0123516D02*
X0132746Y0123516D01*
X0132746Y0122518D02*
X0089793Y0122518D01*
X0088795Y0121519D02*
X0125727Y0121519D01*
X0129529Y0121519D02*
X0132746Y0121519D01*
X0132746Y0114530D02*
X0061873Y0114530D01*
X0061637Y0113531D02*
X0132746Y0113531D01*
X0132746Y0112533D02*
X0061132Y0112533D01*
X0060215Y0111534D02*
X0132746Y0111534D01*
X0132025Y0100551D02*
X0098511Y0100551D01*
D22*
X0127628Y0118319D02*
X0140620Y0118319D01*
X0142195Y0116744D01*
X0251053Y0105524D02*
X0251053Y0131114D01*
X0295344Y0114776D02*
X0295344Y0105563D01*
X0300541Y0100366D01*
X0305581Y0099815D02*
X0306132Y0100366D01*
X0310541Y0100366D01*
X0315423Y0099815D02*
X0315974Y0100366D01*
X0320541Y0100366D01*
X0325659Y0100209D02*
X0325817Y0100366D01*
X0330541Y0100366D01*
X0325659Y0100209D02*
X0325659Y0125406D01*
X0330541Y0130287D01*
X0328652Y0138398D02*
X0320541Y0130287D01*
X0315423Y0125169D01*
X0315423Y0099815D01*
X0315423Y0073437D01*
X0318415Y0070445D01*
X0320541Y0070445D01*
X0325659Y0073437D02*
X0325659Y0100209D01*
X0335502Y0095327D02*
X0340541Y0100366D01*
X0340620Y0100287D01*
X0340620Y0094303D01*
X0349675Y0085248D01*
X0355581Y0085248D01*
X0360305Y0089972D01*
X0360305Y0113594D01*
X0353652Y0120248D01*
X0352037Y0120248D01*
X0348494Y0115563D02*
X0346526Y0117531D01*
X0333927Y0117531D01*
X0332352Y0114382D02*
X0330778Y0115957D01*
X0329596Y0115957D01*
X0329990Y0115957D01*
X0332352Y0114382D02*
X0335502Y0114382D01*
X0336289Y0115169D01*
X0345344Y0115169D01*
X0346132Y0114382D01*
X0346132Y0096665D01*
X0352037Y0090760D01*
X0352037Y0090248D01*
X0335502Y0095327D02*
X0335502Y0073831D01*
X0338888Y0070445D01*
X0340541Y0070445D01*
X0330541Y0070445D02*
X0328652Y0070445D01*
X0325659Y0073437D01*
X0310541Y0070445D02*
X0308573Y0070445D01*
X0305581Y0073437D01*
X0305581Y0099815D01*
X0305581Y0125327D01*
X0310541Y0130287D01*
X0322589Y0142335D01*
X0349951Y0142335D01*
X0352037Y0140248D01*
X0343888Y0138398D02*
X0328652Y0138398D01*
X0343888Y0138398D02*
X0352037Y0130248D01*
X0354400Y0115563D02*
X0348494Y0115563D01*
X0354400Y0115563D02*
X0357549Y0112413D01*
X0357549Y0105760D01*
X0352037Y0100248D01*
X0298494Y0117925D02*
X0295344Y0114776D01*
X0251053Y0075602D02*
X0251053Y0050012D01*
X0300541Y0070445D02*
X0305030Y0065957D01*
X0333927Y0065957D01*
X0340541Y0059343D01*
X0340541Y0050445D01*
X0351604Y0050248D02*
X0352037Y0050248D01*
D23*
X0287826Y0043909D02*
X0287436Y0042968D01*
X0287436Y0041701D01*
X0287826Y0040760D01*
X0287436Y0039818D01*
X0287436Y0038552D01*
X0287470Y0038470D01*
X0287424Y0038444D01*
X0287424Y0038444D01*
X0287424Y0038444D01*
X0286963Y0037645D01*
X0284396Y0037645D01*
X0284396Y0043996D01*
X0283108Y0045284D01*
X0276085Y0045284D01*
X0274796Y0043996D01*
X0274796Y0037645D01*
X0273218Y0037645D01*
X0270891Y0036681D01*
X0269109Y0034899D01*
X0268144Y0032571D01*
X0268144Y0010086D01*
X0229160Y0010086D01*
X0228667Y0011277D01*
X0226885Y0013059D01*
X0224557Y0014023D01*
X0206289Y0014023D01*
X0204315Y0013205D01*
X0204315Y0014100D01*
X0200115Y0014100D01*
X0200115Y0014900D01*
X0204315Y0014900D01*
X0204315Y0016255D01*
X0205615Y0015716D01*
X0207121Y0015716D01*
X0208512Y0016292D01*
X0209576Y0017356D01*
X0210152Y0018747D01*
X0210152Y0020253D01*
X0209576Y0021644D01*
X0209168Y0022052D01*
X0209168Y0064928D01*
X0210270Y0064928D01*
X0211661Y0065504D01*
X0212077Y0065920D01*
X0212492Y0065504D01*
X0213883Y0064928D01*
X0215389Y0064928D01*
X0216779Y0065504D01*
X0217844Y0066569D01*
X0218420Y0067960D01*
X0218420Y0069465D01*
X0217844Y0070856D01*
X0217436Y0071264D01*
X0217436Y0071632D01*
X0217010Y0072661D01*
X0212488Y0077182D01*
X0212908Y0078196D01*
X0212908Y0079702D01*
X0212332Y0081092D01*
X0211268Y0082157D01*
X0210072Y0082652D01*
X0209576Y0083848D01*
X0208512Y0084913D01*
X0207121Y0085489D01*
X0205615Y0085489D01*
X0204224Y0084913D01*
X0203160Y0083848D01*
X0202584Y0082457D01*
X0202584Y0080952D01*
X0203160Y0079561D01*
X0203568Y0079153D01*
X0203568Y0079016D01*
X0200113Y0082471D01*
X0200113Y0084665D01*
X0200521Y0085073D01*
X0201097Y0086464D01*
X0201097Y0087969D01*
X0200521Y0089360D01*
X0200347Y0089535D01*
X0205208Y0089535D01*
X0219710Y0075033D01*
X0219710Y0074455D01*
X0220136Y0073426D01*
X0221875Y0071687D01*
X0221875Y0071109D01*
X0222451Y0069719D01*
X0223516Y0068654D01*
X0224907Y0068078D01*
X0226412Y0068078D01*
X0227803Y0068654D01*
X0228868Y0069719D01*
X0229444Y0071109D01*
X0229444Y0072615D01*
X0228868Y0074006D01*
X0228846Y0074028D01*
X0228868Y0074049D01*
X0229444Y0075440D01*
X0229444Y0076946D01*
X0228868Y0078337D01*
X0227803Y0079401D01*
X0226412Y0079977D01*
X0225867Y0079977D01*
X0224063Y0081813D01*
X0224907Y0081464D01*
X0226412Y0081464D01*
X0227803Y0082040D01*
X0228868Y0083104D01*
X0229444Y0084495D01*
X0229444Y0086001D01*
X0228868Y0087392D01*
X0227803Y0088456D01*
X0226412Y0089032D01*
X0225835Y0089032D01*
X0225136Y0089731D01*
X0226412Y0089731D01*
X0227803Y0090308D01*
X0228868Y0091372D01*
X0229444Y0092763D01*
X0229444Y0094268D01*
X0228868Y0095659D01*
X0227803Y0096724D01*
X0226412Y0097300D01*
X0224907Y0097300D01*
X0223516Y0096724D01*
X0223108Y0096316D01*
X0221912Y0096316D01*
X0221504Y0096724D01*
X0220113Y0097300D01*
X0218607Y0097300D01*
X0217217Y0096724D01*
X0216152Y0095659D01*
X0215576Y0094268D01*
X0215576Y0093873D01*
X0214854Y0093574D01*
X0213790Y0092510D01*
X0213720Y0092341D01*
X0205991Y0100208D01*
X0205986Y0100220D01*
X0205601Y0100605D01*
X0205260Y0100952D01*
X0246123Y0100952D01*
X0246672Y0099627D01*
X0248125Y0098173D01*
X0250025Y0097387D01*
X0252081Y0097387D01*
X0253981Y0098173D01*
X0255435Y0099627D01*
X0256222Y0101527D01*
X0256222Y0109520D01*
X0255435Y0111420D01*
X0254053Y0112801D01*
X0254053Y0123836D01*
X0255435Y0125218D01*
X0256222Y0127118D01*
X0256222Y0135111D01*
X0255435Y0137010D01*
X0253981Y0138464D01*
X0252081Y0139251D01*
X0250025Y0139251D01*
X0248125Y0138464D01*
X0246672Y0137010D01*
X0245885Y0135111D01*
X0245885Y0127118D01*
X0246672Y0125218D01*
X0248053Y0123836D01*
X0248053Y0112801D01*
X0246672Y0111420D01*
X0245885Y0109520D01*
X0245885Y0106552D01*
X0187307Y0106552D01*
X0186278Y0106126D01*
X0185490Y0105338D01*
X0182735Y0102582D01*
X0182626Y0102320D01*
X0180428Y0104518D01*
X0180428Y0126356D01*
X0180002Y0127385D01*
X0174884Y0132503D01*
X0174096Y0133291D01*
X0173067Y0133717D01*
X0162110Y0133717D01*
X0161081Y0133291D01*
X0145776Y0117986D01*
X0145403Y0118888D01*
X0144338Y0119952D01*
X0142948Y0120528D01*
X0142653Y0120528D01*
X0142319Y0120862D01*
X0141217Y0121319D01*
X0135896Y0121319D01*
X0135896Y0170646D01*
X0201686Y0170646D01*
X0202180Y0169455D01*
X0203961Y0167674D01*
X0203961Y0167674D01*
X0206289Y0166709D01*
X0224557Y0166709D01*
X0226885Y0167674D01*
X0228667Y0169455D01*
X0228667Y0169455D01*
X0229160Y0170646D01*
X0268144Y0170646D01*
X0268144Y0148161D01*
X0269109Y0145833D01*
X0270891Y0144052D01*
X0273218Y0143087D01*
X0275479Y0143087D01*
X0274796Y0141439D01*
X0274796Y0139529D01*
X0275527Y0137765D01*
X0276877Y0136415D01*
X0278642Y0135684D01*
X0280551Y0135684D01*
X0282315Y0136415D01*
X0283666Y0137765D01*
X0284396Y0139529D01*
X0284396Y0141439D01*
X0283714Y0143087D01*
X0286963Y0143087D01*
X0287424Y0142289D01*
X0287424Y0142289D01*
X0287424Y0142289D01*
X0287470Y0142262D01*
X0287436Y0142181D01*
X0287436Y0140914D01*
X0287826Y0139972D01*
X0287436Y0139031D01*
X0287436Y0137764D01*
X0287826Y0136823D01*
X0287436Y0135881D01*
X0287436Y0134615D01*
X0287470Y0134533D01*
X0287424Y0134507D01*
X0286255Y0132481D01*
X0286255Y0048252D01*
X0287424Y0046226D01*
X0287424Y0046226D01*
X0287424Y0046226D01*
X0287470Y0046199D01*
X0287436Y0046118D01*
X0287436Y0044851D01*
X0287826Y0043909D01*
X0287716Y0043644D02*
X0284396Y0043644D01*
X0284396Y0042446D02*
X0287436Y0042446D01*
X0287624Y0041247D02*
X0284396Y0041247D01*
X0284396Y0040049D02*
X0287531Y0040049D01*
X0287436Y0038850D02*
X0284396Y0038850D01*
X0284396Y0037652D02*
X0286967Y0037652D01*
X0287439Y0044843D02*
X0283549Y0044843D01*
X0282315Y0046415D02*
X0283666Y0047765D01*
X0284396Y0049529D01*
X0284396Y0051439D01*
X0283666Y0053203D01*
X0282315Y0054553D01*
X0280551Y0055284D01*
X0278642Y0055284D01*
X0276877Y0054553D01*
X0275527Y0053203D01*
X0274796Y0051439D01*
X0274796Y0049529D01*
X0275527Y0047765D01*
X0276877Y0046415D01*
X0278642Y0045684D01*
X0280551Y0045684D01*
X0282315Y0046415D01*
X0281413Y0046041D02*
X0287436Y0046041D01*
X0286839Y0047240D02*
X0283140Y0047240D01*
X0283944Y0048438D02*
X0286255Y0048438D01*
X0286255Y0049637D02*
X0284396Y0049637D01*
X0284396Y0050835D02*
X0286255Y0050835D01*
X0286255Y0052034D02*
X0284150Y0052034D01*
X0283637Y0053232D02*
X0286255Y0053232D01*
X0286255Y0054431D02*
X0282438Y0054431D01*
X0282315Y0056415D02*
X0280551Y0055684D01*
X0278642Y0055684D01*
X0276877Y0056415D01*
X0275527Y0057765D01*
X0274796Y0059529D01*
X0274796Y0061439D01*
X0275527Y0063203D01*
X0276877Y0064553D01*
X0278642Y0065284D01*
X0280551Y0065284D01*
X0282315Y0064553D01*
X0283666Y0063203D01*
X0284396Y0061439D01*
X0284396Y0059529D01*
X0283666Y0057765D01*
X0282315Y0056415D01*
X0282728Y0056828D02*
X0286255Y0056828D01*
X0286255Y0058026D02*
X0283774Y0058026D01*
X0284270Y0059225D02*
X0286255Y0059225D01*
X0286255Y0060423D02*
X0284396Y0060423D01*
X0284321Y0061622D02*
X0286255Y0061622D01*
X0286255Y0062820D02*
X0283824Y0062820D01*
X0282850Y0064019D02*
X0286255Y0064019D01*
X0286255Y0065218D02*
X0280712Y0065218D01*
X0280551Y0065684D02*
X0282315Y0066415D01*
X0283666Y0067765D01*
X0284396Y0069529D01*
X0284396Y0071439D01*
X0283666Y0073203D01*
X0282315Y0074553D01*
X0280551Y0075284D01*
X0278642Y0075284D01*
X0276877Y0074553D01*
X0275527Y0073203D01*
X0274796Y0071439D01*
X0274796Y0069529D01*
X0275527Y0067765D01*
X0276877Y0066415D01*
X0278642Y0065684D01*
X0280551Y0065684D01*
X0282316Y0066416D02*
X0286255Y0066416D01*
X0286255Y0067615D02*
X0283515Y0067615D01*
X0284100Y0068813D02*
X0286255Y0068813D01*
X0286255Y0070012D02*
X0284396Y0070012D01*
X0284396Y0071210D02*
X0286255Y0071210D01*
X0286255Y0072409D02*
X0283995Y0072409D01*
X0283262Y0073607D02*
X0286255Y0073607D01*
X0286255Y0074806D02*
X0281707Y0074806D01*
X0281323Y0076004D02*
X0286255Y0076004D01*
X0286255Y0077203D02*
X0283103Y0077203D01*
X0283666Y0077765D02*
X0284396Y0079529D01*
X0284396Y0081439D01*
X0283666Y0083203D01*
X0282315Y0084553D01*
X0280551Y0085284D01*
X0278642Y0085284D01*
X0276877Y0084553D01*
X0275527Y0083203D01*
X0274796Y0081439D01*
X0274796Y0079529D01*
X0275527Y0077765D01*
X0276877Y0076415D01*
X0278642Y0075684D01*
X0280551Y0075684D01*
X0282315Y0076415D01*
X0283666Y0077765D01*
X0283929Y0078401D02*
X0286255Y0078401D01*
X0286255Y0079600D02*
X0284396Y0079600D01*
X0284396Y0080798D02*
X0286255Y0080798D01*
X0286255Y0081997D02*
X0284165Y0081997D01*
X0283669Y0083195D02*
X0286255Y0083195D01*
X0286255Y0084394D02*
X0282475Y0084394D01*
X0282315Y0086415D02*
X0283666Y0087765D01*
X0284396Y0089529D01*
X0284396Y0091439D01*
X0283666Y0093203D01*
X0282315Y0094553D01*
X0280551Y0095284D01*
X0278642Y0095284D01*
X0276877Y0094553D01*
X0275527Y0093203D01*
X0274796Y0091439D01*
X0274796Y0089529D01*
X0275527Y0087765D01*
X0276877Y0086415D01*
X0278642Y0085684D01*
X0280551Y0085684D01*
X0282315Y0086415D01*
X0282691Y0086791D02*
X0286255Y0086791D01*
X0286255Y0087989D02*
X0283758Y0087989D01*
X0284255Y0089188D02*
X0286255Y0089188D01*
X0286255Y0090386D02*
X0284396Y0090386D01*
X0284336Y0091585D02*
X0286255Y0091585D01*
X0286255Y0092783D02*
X0283840Y0092783D01*
X0282887Y0093982D02*
X0286255Y0093982D01*
X0286255Y0095180D02*
X0280802Y0095180D01*
X0280551Y0095684D02*
X0282315Y0096415D01*
X0283666Y0097765D01*
X0284396Y0099529D01*
X0284396Y0101439D01*
X0283666Y0103203D01*
X0282315Y0104553D01*
X0280551Y0105284D01*
X0278642Y0105284D01*
X0276877Y0104553D01*
X0275527Y0103203D01*
X0274796Y0101439D01*
X0274796Y0099529D01*
X0275527Y0097765D01*
X0276877Y0096415D01*
X0278642Y0095684D01*
X0280551Y0095684D01*
X0282228Y0096379D02*
X0286255Y0096379D01*
X0286255Y0097577D02*
X0283478Y0097577D01*
X0284084Y0098776D02*
X0286255Y0098776D01*
X0286255Y0099974D02*
X0284396Y0099974D01*
X0284396Y0101173D02*
X0286255Y0101173D01*
X0286255Y0102371D02*
X0284010Y0102371D01*
X0283299Y0103570D02*
X0286255Y0103570D01*
X0286255Y0104768D02*
X0281797Y0104768D01*
X0281234Y0105967D02*
X0286255Y0105967D01*
X0286255Y0107165D02*
X0283066Y0107165D01*
X0283666Y0107765D02*
X0284396Y0109529D01*
X0284396Y0111439D01*
X0283666Y0113203D01*
X0282315Y0114553D01*
X0280551Y0115284D01*
X0278642Y0115284D01*
X0276877Y0114553D01*
X0275527Y0113203D01*
X0274796Y0111439D01*
X0274796Y0109529D01*
X0275527Y0107765D01*
X0276877Y0106415D01*
X0278642Y0105684D01*
X0280551Y0105684D01*
X0282315Y0106415D01*
X0283666Y0107765D01*
X0283914Y0108364D02*
X0286255Y0108364D01*
X0286255Y0109562D02*
X0284396Y0109562D01*
X0284396Y0110761D02*
X0286255Y0110761D01*
X0286255Y0111959D02*
X0284181Y0111959D01*
X0283684Y0113158D02*
X0286255Y0113158D01*
X0286255Y0114356D02*
X0282512Y0114356D01*
X0282315Y0116415D02*
X0283666Y0117765D01*
X0284396Y0119529D01*
X0284396Y0121439D01*
X0283666Y0123203D01*
X0282315Y0124553D01*
X0280551Y0125284D01*
X0278642Y0125284D01*
X0276877Y0124553D01*
X0275527Y0123203D01*
X0274796Y0121439D01*
X0274796Y0119529D01*
X0275527Y0117765D01*
X0276877Y0116415D01*
X0278642Y0115684D01*
X0280551Y0115684D01*
X0282315Y0116415D01*
X0282654Y0116754D02*
X0286255Y0116754D01*
X0286255Y0117952D02*
X0283743Y0117952D01*
X0284239Y0119151D02*
X0286255Y0119151D01*
X0286255Y0120349D02*
X0284396Y0120349D01*
X0284352Y0121548D02*
X0286255Y0121548D01*
X0286255Y0122746D02*
X0283855Y0122746D01*
X0282924Y0123945D02*
X0286255Y0123945D01*
X0286255Y0125143D02*
X0280892Y0125143D01*
X0280551Y0125684D02*
X0282315Y0126415D01*
X0283666Y0127765D01*
X0284396Y0129529D01*
X0284396Y0131439D01*
X0283666Y0133203D01*
X0282315Y0134553D01*
X0280551Y0135284D01*
X0278642Y0135284D01*
X0276877Y0134553D01*
X0275527Y0133203D01*
X0274796Y0131439D01*
X0274796Y0129529D01*
X0275527Y0127765D01*
X0276877Y0126415D01*
X0278642Y0125684D01*
X0280551Y0125684D01*
X0282138Y0126342D02*
X0286255Y0126342D01*
X0286255Y0127540D02*
X0283441Y0127540D01*
X0284069Y0128739D02*
X0286255Y0128739D01*
X0286255Y0129937D02*
X0284396Y0129937D01*
X0284396Y0131136D02*
X0286255Y0131136D01*
X0286255Y0132334D02*
X0284026Y0132334D01*
X0283336Y0133533D02*
X0286862Y0133533D01*
X0287424Y0134507D02*
X0287424Y0134507D01*
X0287424Y0134507D01*
X0287436Y0134731D02*
X0281886Y0134731D01*
X0281144Y0135930D02*
X0287456Y0135930D01*
X0287699Y0137128D02*
X0283029Y0137128D01*
X0283898Y0138327D02*
X0287436Y0138327D01*
X0287641Y0139525D02*
X0284395Y0139525D01*
X0284396Y0140724D02*
X0287515Y0140724D01*
X0287436Y0141922D02*
X0284196Y0141922D01*
X0274997Y0141922D02*
X0135896Y0141922D01*
X0135896Y0140724D02*
X0274796Y0140724D01*
X0274798Y0139525D02*
X0135896Y0139525D01*
X0135896Y0138327D02*
X0247988Y0138327D01*
X0246789Y0137128D02*
X0135896Y0137128D01*
X0135896Y0135930D02*
X0246224Y0135930D01*
X0245885Y0134731D02*
X0135896Y0134731D01*
X0135896Y0133533D02*
X0161665Y0133533D01*
X0160124Y0132334D02*
X0135896Y0132334D01*
X0135896Y0131136D02*
X0158926Y0131136D01*
X0157727Y0129937D02*
X0135896Y0129937D01*
X0135896Y0128739D02*
X0156529Y0128739D01*
X0155330Y0127540D02*
X0135896Y0127540D01*
X0135896Y0126342D02*
X0154132Y0126342D01*
X0152933Y0125143D02*
X0135896Y0125143D01*
X0135896Y0123945D02*
X0151735Y0123945D01*
X0150536Y0122746D02*
X0135896Y0122746D01*
X0135896Y0121548D02*
X0149338Y0121548D01*
X0148139Y0120349D02*
X0143380Y0120349D01*
X0145140Y0119151D02*
X0146941Y0119151D01*
X0154006Y0115169D02*
X0109911Y0071075D01*
X0113061Y0071075D02*
X0113061Y0069500D01*
X0109911Y0066350D01*
X0106127Y0066416D02*
X0036718Y0066416D01*
X0036718Y0065218D02*
X0106285Y0065218D01*
X0106127Y0065598D02*
X0106703Y0064207D01*
X0106922Y0063988D01*
X0106703Y0063770D01*
X0106127Y0062379D01*
X0106127Y0060873D01*
X0106703Y0059482D01*
X0107768Y0058418D01*
X0109159Y0057842D01*
X0110664Y0057842D01*
X0112055Y0058418D01*
X0113120Y0059482D01*
X0113696Y0060873D01*
X0113696Y0061450D01*
X0117797Y0065552D01*
X0118223Y0066581D01*
X0118223Y0069128D01*
X0124457Y0075361D01*
X0126651Y0075361D01*
X0127059Y0074953D01*
X0128450Y0074377D01*
X0129955Y0074377D01*
X0131346Y0074953D01*
X0132411Y0076018D01*
X0132987Y0077409D01*
X0132987Y0078914D01*
X0132411Y0080305D01*
X0131346Y0081370D01*
X0129955Y0081946D01*
X0128450Y0081946D01*
X0127696Y0081633D01*
X0150812Y0104529D01*
X0150812Y0101620D01*
X0151238Y0100591D01*
X0155930Y0095899D01*
X0155930Y0071053D01*
X0155208Y0070331D01*
X0141991Y0070331D01*
X0141583Y0070740D01*
X0140192Y0071316D01*
X0138686Y0071316D01*
X0137295Y0070740D01*
X0136231Y0069675D01*
X0135655Y0068284D01*
X0135655Y0066779D01*
X0136231Y0065388D01*
X0136646Y0064972D01*
X0136231Y0064557D01*
X0135655Y0063166D01*
X0135655Y0061661D01*
X0136231Y0060270D01*
X0136449Y0060051D01*
X0136231Y0059833D01*
X0135655Y0058442D01*
X0135655Y0056936D01*
X0136231Y0055545D01*
X0137295Y0054481D01*
X0138686Y0053905D01*
X0140192Y0053905D01*
X0141583Y0054481D01*
X0141991Y0054889D01*
X0152594Y0054889D01*
X0153623Y0055315D01*
X0154411Y0056103D01*
X0161836Y0063528D01*
X0161836Y0050045D01*
X0162262Y0049016D01*
X0162426Y0048852D01*
X0162426Y0048275D01*
X0163002Y0046884D01*
X0163720Y0046166D01*
X0143798Y0026244D01*
X0143371Y0025214D01*
X0143371Y0025000D01*
X0143226Y0024940D01*
X0141763Y0023477D01*
X0141171Y0022049D01*
X0140580Y0023477D01*
X0139117Y0024940D01*
X0137206Y0025731D01*
X0135137Y0025731D01*
X0133226Y0024940D01*
X0131763Y0023477D01*
X0130971Y0021566D01*
X0130971Y0013497D01*
X0131763Y0011586D01*
X0133226Y0010123D01*
X0133316Y0010086D01*
X0127375Y0010086D01*
X0127937Y0010269D01*
X0128582Y0010597D01*
X0129168Y0011023D01*
X0129680Y0011535D01*
X0130106Y0012121D01*
X0130434Y0012766D01*
X0130658Y0013454D01*
X0130771Y0014169D01*
X0130771Y0017131D01*
X0126571Y0017131D01*
X0126571Y0017931D01*
X0130771Y0017931D01*
X0130771Y0020894D01*
X0130658Y0021609D01*
X0130434Y0022297D01*
X0130106Y0022942D01*
X0129680Y0023528D01*
X0129168Y0024040D01*
X0128582Y0024466D01*
X0127937Y0024794D01*
X0127248Y0025018D01*
X0126571Y0025125D01*
X0126571Y0017932D01*
X0125771Y0017932D01*
X0125771Y0025125D01*
X0125094Y0025018D01*
X0124405Y0024794D01*
X0123760Y0024466D01*
X0123175Y0024040D01*
X0122663Y0023528D01*
X0122237Y0022942D01*
X0121908Y0022297D01*
X0121685Y0021609D01*
X0121571Y0020894D01*
X0121571Y0017931D01*
X0125771Y0017931D01*
X0125771Y0017131D01*
X0121571Y0017131D01*
X0121571Y0014169D01*
X0121685Y0013454D01*
X0121908Y0012766D01*
X0122237Y0012121D01*
X0122663Y0011535D01*
X0123175Y0011023D01*
X0123760Y0010597D01*
X0124405Y0010269D01*
X0124968Y0010086D01*
X0119027Y0010086D01*
X0124967Y0010086D01*
X0122913Y0011285D02*
X0120278Y0011285D01*
X0120580Y0011586D02*
X0121371Y0013497D01*
X0121371Y0021566D01*
X0120580Y0023477D01*
X0119117Y0024940D01*
X0117206Y0025731D01*
X0115137Y0025731D01*
X0113226Y0024940D01*
X0111763Y0023477D01*
X0111171Y0022049D01*
X0110580Y0023477D01*
X0109117Y0024940D01*
X0107206Y0025731D01*
X0105137Y0025731D01*
X0103226Y0024940D01*
X0101763Y0023477D01*
X0100971Y0021566D01*
X0100971Y0013497D01*
X0101331Y0012628D01*
X0100901Y0013059D01*
X0098573Y0014023D01*
X0080305Y0014023D01*
X0077977Y0013059D01*
X0076195Y0011277D01*
X0075702Y0010086D01*
X0036718Y0010086D01*
X0036718Y0093122D01*
X0127999Y0093122D01*
X0109736Y0074859D01*
X0109159Y0074859D01*
X0107768Y0074283D01*
X0106703Y0073218D01*
X0106127Y0071828D01*
X0106127Y0070322D01*
X0106703Y0068931D01*
X0106922Y0068713D01*
X0106703Y0068494D01*
X0106127Y0067103D01*
X0106127Y0065598D01*
X0106891Y0064019D02*
X0036718Y0064019D01*
X0036718Y0062820D02*
X0106310Y0062820D01*
X0106127Y0061622D02*
X0036718Y0061622D01*
X0036718Y0060423D02*
X0106313Y0060423D01*
X0106961Y0059225D02*
X0036718Y0059225D01*
X0036718Y0058026D02*
X0108713Y0058026D01*
X0111110Y0058026D02*
X0135655Y0058026D01*
X0135700Y0056828D02*
X0036718Y0056828D01*
X0036718Y0055629D02*
X0136196Y0055629D01*
X0137416Y0054431D02*
X0036718Y0054431D01*
X0036718Y0053232D02*
X0161836Y0053232D01*
X0161836Y0052034D02*
X0036718Y0052034D01*
X0036718Y0050835D02*
X0161836Y0050835D01*
X0162005Y0049637D02*
X0036718Y0049637D01*
X0036718Y0048438D02*
X0162426Y0048438D01*
X0162855Y0047240D02*
X0036718Y0047240D01*
X0036718Y0046041D02*
X0163595Y0046041D01*
X0162397Y0044843D02*
X0036718Y0044843D01*
X0036718Y0043644D02*
X0161198Y0043644D01*
X0160000Y0042446D02*
X0036718Y0042446D01*
X0036718Y0041247D02*
X0158801Y0041247D01*
X0157603Y0040049D02*
X0036718Y0040049D01*
X0036718Y0038850D02*
X0156404Y0038850D01*
X0155206Y0037652D02*
X0036718Y0037652D01*
X0036718Y0036453D02*
X0154007Y0036453D01*
X0152809Y0035255D02*
X0036718Y0035255D01*
X0036718Y0034056D02*
X0151610Y0034056D01*
X0150412Y0032858D02*
X0036718Y0032858D01*
X0036718Y0031659D02*
X0149213Y0031659D01*
X0148015Y0030461D02*
X0036718Y0030461D01*
X0036718Y0029262D02*
X0146816Y0029262D01*
X0145618Y0028064D02*
X0058236Y0028064D01*
X0058374Y0028006D02*
X0055540Y0029180D01*
X0052472Y0029180D01*
X0049638Y0028006D01*
X0047468Y0025837D01*
X0046294Y0023002D01*
X0046294Y0019935D01*
X0047468Y0017100D01*
X0049638Y0014931D01*
X0052472Y0013757D01*
X0055540Y0013757D01*
X0058374Y0014931D01*
X0060544Y0017100D01*
X0061718Y0019935D01*
X0061718Y0023002D01*
X0060544Y0025837D01*
X0058374Y0028006D01*
X0059515Y0026865D02*
X0144419Y0026865D01*
X0143559Y0025667D02*
X0137362Y0025667D01*
X0134980Y0025667D02*
X0117362Y0025667D01*
X0114980Y0025667D02*
X0107362Y0025667D01*
X0104980Y0025667D02*
X0060614Y0025667D01*
X0061111Y0024468D02*
X0102754Y0024468D01*
X0101677Y0023270D02*
X0061607Y0023270D01*
X0061718Y0022071D02*
X0101181Y0022071D01*
X0100971Y0020873D02*
X0061718Y0020873D01*
X0061610Y0019674D02*
X0100971Y0019674D01*
X0100971Y0018476D02*
X0061113Y0018476D01*
X0060617Y0017277D02*
X0100971Y0017277D01*
X0100971Y0016079D02*
X0059522Y0016079D01*
X0058252Y0014880D02*
X0100971Y0014880D01*
X0100971Y0013682D02*
X0099397Y0013682D01*
X0100901Y0013059D02*
X0100901Y0013059D01*
X0111162Y0022071D02*
X0111181Y0022071D01*
X0111677Y0023270D02*
X0110666Y0023270D01*
X0109589Y0024468D02*
X0112754Y0024468D01*
X0119589Y0024468D02*
X0123765Y0024468D01*
X0122475Y0023270D02*
X0120666Y0023270D01*
X0121162Y0022071D02*
X0121835Y0022071D01*
X0121571Y0020873D02*
X0121371Y0020873D01*
X0121371Y0019674D02*
X0121571Y0019674D01*
X0121571Y0018476D02*
X0121371Y0018476D01*
X0121371Y0017277D02*
X0125771Y0017277D01*
X0126571Y0017277D02*
X0130971Y0017277D01*
X0130971Y0016079D02*
X0130771Y0016079D01*
X0130771Y0014880D02*
X0130971Y0014880D01*
X0130971Y0013682D02*
X0130694Y0013682D01*
X0130290Y0012483D02*
X0131391Y0012483D01*
X0132064Y0011285D02*
X0129430Y0011285D01*
X0127375Y0010086D02*
X0133315Y0010086D01*
X0136171Y0012138D02*
X0138652Y0009657D01*
X0148494Y0009657D01*
X0151250Y0012413D01*
X0151250Y0026980D01*
X0166998Y0042728D01*
X0182746Y0042728D01*
X0190620Y0050602D01*
X0190620Y0073437D01*
X0189833Y0074224D01*
X0188652Y0071469D02*
X0187077Y0073043D01*
X0187077Y0092728D01*
X0188652Y0094303D01*
X0188652Y0100602D01*
X0187864Y0103752D02*
X0185108Y0100996D01*
X0185108Y0077768D01*
X0184321Y0076980D01*
X0179203Y0078161D02*
X0178809Y0077768D01*
X0179203Y0078161D02*
X0179203Y0099028D01*
X0175659Y0102571D01*
X0175659Y0125012D01*
X0171722Y0128949D01*
X0164242Y0128949D01*
X0132352Y0097059D01*
X0097313Y0097059D01*
X0120469Y0085592D02*
X0036718Y0085592D01*
X0036718Y0084394D02*
X0119271Y0084394D01*
X0118072Y0083195D02*
X0036718Y0083195D01*
X0036718Y0081997D02*
X0116873Y0081997D01*
X0115675Y0080798D02*
X0036718Y0080798D01*
X0036718Y0079600D02*
X0114476Y0079600D01*
X0113278Y0078401D02*
X0036718Y0078401D01*
X0036718Y0077203D02*
X0112079Y0077203D01*
X0110881Y0076004D02*
X0036718Y0076004D01*
X0036718Y0074806D02*
X0109030Y0074806D01*
X0107092Y0073607D02*
X0036718Y0073607D01*
X0036718Y0072409D02*
X0106368Y0072409D01*
X0106127Y0071210D02*
X0036718Y0071210D01*
X0036718Y0070012D02*
X0106256Y0070012D01*
X0106821Y0068813D02*
X0036718Y0068813D01*
X0036718Y0067615D02*
X0106339Y0067615D01*
X0109911Y0061626D02*
X0115423Y0067138D01*
X0115423Y0070287D01*
X0123297Y0078161D01*
X0129203Y0078161D01*
X0132703Y0079600D02*
X0155930Y0079600D01*
X0155930Y0080798D02*
X0131918Y0080798D01*
X0129273Y0083195D02*
X0155930Y0083195D01*
X0155930Y0081997D02*
X0128063Y0081997D01*
X0130483Y0084394D02*
X0155930Y0084394D01*
X0155930Y0085592D02*
X0131693Y0085592D01*
X0132903Y0086791D02*
X0155930Y0086791D01*
X0155930Y0087989D02*
X0134113Y0087989D01*
X0135323Y0089188D02*
X0155930Y0089188D01*
X0155930Y0090386D02*
X0136533Y0090386D01*
X0137743Y0091585D02*
X0155930Y0091585D01*
X0155930Y0092783D02*
X0138953Y0092783D01*
X0140163Y0093982D02*
X0155930Y0093982D01*
X0155930Y0095180D02*
X0141373Y0095180D01*
X0142583Y0096379D02*
X0155451Y0096379D01*
X0154252Y0097577D02*
X0143793Y0097577D01*
X0145003Y0098776D02*
X0153054Y0098776D01*
X0151855Y0099974D02*
X0146214Y0099974D01*
X0147424Y0101173D02*
X0150997Y0101173D01*
X0150812Y0102371D02*
X0148634Y0102371D01*
X0149844Y0103570D02*
X0150812Y0103570D01*
X0153612Y0102177D02*
X0158730Y0097059D01*
X0158730Y0069894D01*
X0156368Y0067531D01*
X0139439Y0067531D01*
X0135655Y0067615D02*
X0118223Y0067615D01*
X0118223Y0068813D02*
X0135874Y0068813D01*
X0136567Y0070012D02*
X0119107Y0070012D01*
X0120306Y0071210D02*
X0138431Y0071210D01*
X0140447Y0071210D02*
X0155930Y0071210D01*
X0155930Y0072409D02*
X0121504Y0072409D01*
X0122703Y0073607D02*
X0155930Y0073607D01*
X0155930Y0074806D02*
X0130990Y0074806D01*
X0132397Y0076004D02*
X0155930Y0076004D01*
X0155930Y0077203D02*
X0132902Y0077203D01*
X0132987Y0078401D02*
X0155930Y0078401D01*
X0170541Y0069894D02*
X0180384Y0060051D01*
X0180384Y0056508D01*
X0185896Y0057689D02*
X0185896Y0054146D01*
X0185896Y0057689D02*
X0172510Y0071075D01*
X0172510Y0092728D01*
X0175659Y0095878D01*
X0176053Y0095878D01*
X0172904Y0097846D02*
X0170541Y0095484D01*
X0170541Y0069894D01*
X0162667Y0068319D02*
X0152037Y0057689D01*
X0139439Y0057689D01*
X0135979Y0059225D02*
X0112862Y0059225D01*
X0113509Y0060423D02*
X0136167Y0060423D01*
X0135671Y0061622D02*
X0113867Y0061622D01*
X0115066Y0062820D02*
X0135655Y0062820D01*
X0136008Y0064019D02*
X0116264Y0064019D01*
X0117463Y0065218D02*
X0136401Y0065218D01*
X0135805Y0066416D02*
X0118155Y0066416D01*
X0113455Y0071469D02*
X0113061Y0071075D01*
X0113455Y0071469D02*
X0154793Y0112413D01*
X0158730Y0112413D01*
X0166604Y0120287D01*
X0166604Y0121862D01*
X0168573Y0124224D02*
X0169754Y0123043D01*
X0169754Y0120681D01*
X0159518Y0110445D01*
X0155581Y0110445D01*
X0153612Y0108476D01*
X0153612Y0102177D01*
X0155581Y0102965D02*
X0155581Y0106508D01*
X0156762Y0107689D01*
X0158337Y0104146D02*
X0159518Y0104146D01*
X0162667Y0100996D01*
X0162667Y0068319D01*
X0160699Y0069106D02*
X0154006Y0062413D01*
X0139439Y0062413D01*
X0141462Y0054431D02*
X0161836Y0054431D01*
X0161836Y0055629D02*
X0153938Y0055629D01*
X0155136Y0056828D02*
X0161836Y0056828D01*
X0161836Y0058026D02*
X0156335Y0058026D01*
X0157533Y0059225D02*
X0161836Y0059225D01*
X0161836Y0060423D02*
X0158732Y0060423D01*
X0159930Y0061622D02*
X0161836Y0061622D01*
X0161836Y0062820D02*
X0161129Y0062820D01*
X0166604Y0060051D02*
X0168967Y0057689D01*
X0172116Y0057689D01*
X0166604Y0060051D02*
X0166604Y0098240D01*
X0171722Y0103358D01*
X0171722Y0106508D01*
X0168967Y0109264D01*
X0172510Y0108476D02*
X0173691Y0107295D01*
X0173691Y0102571D01*
X0168573Y0097453D01*
X0168573Y0065957D01*
X0172116Y0062413D01*
X0160699Y0069106D02*
X0160699Y0097846D01*
X0155581Y0102965D01*
X0164636Y0100996D02*
X0164636Y0050602D01*
X0166211Y0049028D01*
X0166211Y0044697D02*
X0181959Y0044697D01*
X0188652Y0051390D01*
X0188652Y0071469D01*
X0195389Y0071210D02*
X0203454Y0071210D01*
X0203568Y0071096D02*
X0203568Y0028000D01*
X0201868Y0029700D01*
X0197561Y0029700D01*
X0194715Y0026854D01*
X0191868Y0029700D01*
X0187561Y0029700D01*
X0184715Y0026854D01*
X0181868Y0029700D01*
X0177561Y0029700D01*
X0174715Y0026854D01*
X0171868Y0029700D01*
X0167561Y0029700D01*
X0164515Y0026654D01*
X0164515Y0022346D01*
X0167561Y0019300D01*
X0171868Y0019300D01*
X0174715Y0022146D01*
X0177561Y0019300D01*
X0181868Y0019300D01*
X0184715Y0022146D01*
X0187561Y0019300D01*
X0191868Y0019300D01*
X0194715Y0022146D01*
X0197561Y0019300D01*
X0201868Y0019300D01*
X0202584Y0020015D01*
X0202584Y0018747D01*
X0203016Y0017704D01*
X0201620Y0019100D01*
X0200115Y0019100D01*
X0200115Y0014900D01*
X0199315Y0014900D01*
X0199315Y0019100D01*
X0197809Y0019100D01*
X0195115Y0016405D01*
X0195115Y0014900D01*
X0199314Y0014900D01*
X0199314Y0014100D01*
X0195115Y0014100D01*
X0195115Y0012595D01*
X0197623Y0010086D01*
X0191806Y0010086D01*
X0194315Y0012595D01*
X0194315Y0014100D01*
X0190115Y0014100D01*
X0190115Y0014900D01*
X0194315Y0014900D01*
X0194315Y0016405D01*
X0191620Y0019100D01*
X0190115Y0019100D01*
X0190115Y0014900D01*
X0189315Y0014900D01*
X0189315Y0019100D01*
X0187809Y0019100D01*
X0185115Y0016405D01*
X0185115Y0014900D01*
X0189314Y0014900D01*
X0189314Y0014100D01*
X0185115Y0014100D01*
X0185115Y0012595D01*
X0187623Y0010086D01*
X0181806Y0010086D01*
X0184315Y0012595D01*
X0184315Y0014100D01*
X0180115Y0014100D01*
X0180115Y0014900D01*
X0184315Y0014900D01*
X0184315Y0016405D01*
X0181620Y0019100D01*
X0180115Y0019100D01*
X0180115Y0014900D01*
X0179315Y0014900D01*
X0179315Y0019100D01*
X0177809Y0019100D01*
X0175115Y0016405D01*
X0175115Y0014900D01*
X0179314Y0014900D01*
X0179314Y0014100D01*
X0175115Y0014100D01*
X0175115Y0012595D01*
X0177623Y0010086D01*
X0171806Y0010086D01*
X0174315Y0012595D01*
X0174315Y0014100D01*
X0170115Y0014100D01*
X0170115Y0014900D01*
X0174315Y0014900D01*
X0174315Y0016405D01*
X0171620Y0019100D01*
X0170115Y0019100D01*
X0170115Y0014900D01*
X0169315Y0014900D01*
X0169315Y0019100D01*
X0167809Y0019100D01*
X0165115Y0016405D01*
X0165115Y0014900D01*
X0169314Y0014900D01*
X0169314Y0014100D01*
X0165115Y0014100D01*
X0165115Y0012595D01*
X0167623Y0010086D01*
X0159027Y0010086D01*
X0159117Y0010123D01*
X0160580Y0011586D01*
X0161371Y0013497D01*
X0161371Y0021566D01*
X0160580Y0023477D01*
X0159117Y0024940D01*
X0158774Y0025082D01*
X0158774Y0027789D01*
X0168945Y0037960D01*
X0184090Y0037960D01*
X0185120Y0038386D01*
X0194175Y0047441D01*
X0194962Y0048229D01*
X0195389Y0049258D01*
X0195389Y0075962D01*
X0194962Y0076992D01*
X0191845Y0080109D01*
X0191845Y0086976D01*
X0192554Y0086976D01*
X0193529Y0087379D01*
X0193529Y0086464D01*
X0194105Y0085073D01*
X0194513Y0084665D01*
X0194513Y0080754D01*
X0194939Y0079725D01*
X0203568Y0071096D01*
X0203568Y0070012D02*
X0195389Y0070012D01*
X0195389Y0068813D02*
X0203568Y0068813D01*
X0203568Y0067615D02*
X0195389Y0067615D01*
X0195389Y0066416D02*
X0203568Y0066416D01*
X0203568Y0065218D02*
X0195389Y0065218D01*
X0195389Y0064019D02*
X0203568Y0064019D01*
X0203568Y0062820D02*
X0195389Y0062820D01*
X0195389Y0061622D02*
X0203568Y0061622D01*
X0203568Y0060423D02*
X0195389Y0060423D01*
X0195389Y0059225D02*
X0203568Y0059225D01*
X0203568Y0058026D02*
X0195389Y0058026D01*
X0195389Y0056828D02*
X0203568Y0056828D01*
X0203568Y0055629D02*
X0195389Y0055629D01*
X0195389Y0054431D02*
X0203568Y0054431D01*
X0203568Y0053232D02*
X0195389Y0053232D01*
X0195389Y0052034D02*
X0203568Y0052034D01*
X0203568Y0050835D02*
X0195389Y0050835D01*
X0195389Y0049637D02*
X0203568Y0049637D01*
X0203568Y0048438D02*
X0195049Y0048438D01*
X0193973Y0047240D02*
X0203568Y0047240D01*
X0203568Y0046041D02*
X0192775Y0046041D01*
X0191576Y0044843D02*
X0203568Y0044843D01*
X0203568Y0043644D02*
X0190378Y0043644D01*
X0189179Y0042446D02*
X0203568Y0042446D01*
X0203568Y0041247D02*
X0187981Y0041247D01*
X0186782Y0040049D02*
X0203568Y0040049D01*
X0203568Y0038850D02*
X0185584Y0038850D01*
X0183533Y0040760D02*
X0192589Y0049815D01*
X0192589Y0075406D01*
X0189045Y0078949D01*
X0189045Y0091941D01*
X0191801Y0094697D01*
X0194163Y0092335D02*
X0192589Y0090760D01*
X0191801Y0090760D01*
X0194163Y0092335D02*
X0206368Y0092335D01*
X0222510Y0076193D01*
X0222510Y0075012D01*
X0225659Y0071862D01*
X0229033Y0073607D02*
X0245885Y0073607D01*
X0245885Y0072409D02*
X0229444Y0072409D01*
X0229444Y0071210D02*
X0246049Y0071210D01*
X0245885Y0071606D02*
X0246672Y0069706D01*
X0248053Y0068324D01*
X0248053Y0057290D01*
X0246672Y0055908D01*
X0245885Y0054008D01*
X0245885Y0046015D01*
X0246672Y0044116D01*
X0248125Y0042662D01*
X0250025Y0041875D01*
X0252081Y0041875D01*
X0253981Y0042662D01*
X0255435Y0044116D01*
X0256222Y0046015D01*
X0256222Y0054008D01*
X0255435Y0055908D01*
X0254053Y0057290D01*
X0254053Y0068324D01*
X0255435Y0069706D01*
X0256222Y0071606D01*
X0256222Y0079599D01*
X0255435Y0081499D01*
X0253981Y0082952D01*
X0252081Y0083739D01*
X0250025Y0083739D01*
X0248125Y0082952D01*
X0246672Y0081499D01*
X0245885Y0079599D01*
X0245885Y0071606D01*
X0246545Y0070012D02*
X0228989Y0070012D01*
X0227962Y0068813D02*
X0247565Y0068813D01*
X0248053Y0067615D02*
X0218277Y0067615D01*
X0218420Y0068813D02*
X0223357Y0068813D01*
X0222330Y0070012D02*
X0218194Y0070012D01*
X0217490Y0071210D02*
X0221875Y0071210D01*
X0221153Y0072409D02*
X0217114Y0072409D01*
X0216063Y0073607D02*
X0220061Y0073607D01*
X0219710Y0074806D02*
X0214865Y0074806D01*
X0213666Y0076004D02*
X0218739Y0076004D01*
X0217540Y0077203D02*
X0212497Y0077203D01*
X0212908Y0078401D02*
X0216342Y0078401D01*
X0215143Y0079600D02*
X0212908Y0079600D01*
X0212454Y0080798D02*
X0213945Y0080798D01*
X0212746Y0081997D02*
X0211428Y0081997D01*
X0211548Y0083195D02*
X0209847Y0083195D01*
X0210349Y0084394D02*
X0209031Y0084394D01*
X0209151Y0085592D02*
X0200736Y0085592D01*
X0201097Y0086791D02*
X0207952Y0086791D01*
X0206754Y0087989D02*
X0201089Y0087989D01*
X0200593Y0089188D02*
X0205555Y0089188D01*
X0212108Y0093982D02*
X0215576Y0093982D01*
X0215954Y0095180D02*
X0210930Y0095180D01*
X0209753Y0096379D02*
X0216872Y0096379D01*
X0221849Y0096379D02*
X0223171Y0096379D01*
X0225659Y0093516D02*
X0219360Y0093516D01*
X0214063Y0092783D02*
X0213285Y0092783D01*
X0216998Y0090366D02*
X0220541Y0090366D01*
X0225659Y0085248D01*
X0229116Y0086791D02*
X0276502Y0086791D01*
X0275434Y0087989D02*
X0228270Y0087989D01*
X0227882Y0090386D02*
X0274796Y0090386D01*
X0274857Y0091585D02*
X0228956Y0091585D01*
X0229444Y0092783D02*
X0275353Y0092783D01*
X0276306Y0093982D02*
X0229444Y0093982D01*
X0229066Y0095180D02*
X0278391Y0095180D01*
X0276965Y0096379D02*
X0228148Y0096379D01*
X0225680Y0089188D02*
X0274938Y0089188D01*
X0276718Y0084394D02*
X0229402Y0084394D01*
X0229444Y0085592D02*
X0286255Y0085592D01*
X0275524Y0083195D02*
X0253395Y0083195D01*
X0254937Y0081997D02*
X0265735Y0081997D01*
X0265794Y0082056D02*
X0265285Y0081547D01*
X0264862Y0080965D01*
X0264536Y0080325D01*
X0264314Y0079641D01*
X0264201Y0078930D01*
X0264201Y0075987D01*
X0268385Y0075987D01*
X0268385Y0075218D01*
X0264201Y0075218D01*
X0264201Y0072274D01*
X0264314Y0071564D01*
X0264536Y0070880D01*
X0264862Y0070239D01*
X0265285Y0069658D01*
X0265794Y0069149D01*
X0266375Y0068727D01*
X0267016Y0068400D01*
X0267700Y0068178D01*
X0268385Y0068069D01*
X0268385Y0075218D01*
X0269154Y0075218D01*
X0269154Y0068069D01*
X0269839Y0068178D01*
X0270523Y0068400D01*
X0271164Y0068727D01*
X0271746Y0069149D01*
X0272254Y0069658D01*
X0272677Y0070239D01*
X0273003Y0070880D01*
X0273226Y0071564D01*
X0273338Y0072274D01*
X0273338Y0075218D01*
X0269154Y0075218D01*
X0269154Y0075987D01*
X0268385Y0075987D01*
X0268385Y0083135D01*
X0267700Y0083027D01*
X0267016Y0082805D01*
X0266375Y0082478D01*
X0265794Y0082056D01*
X0264777Y0080798D02*
X0255725Y0080798D01*
X0256221Y0079600D02*
X0264307Y0079600D01*
X0264201Y0078401D02*
X0256222Y0078401D01*
X0256222Y0077203D02*
X0264201Y0077203D01*
X0264201Y0076004D02*
X0256222Y0076004D01*
X0256222Y0074806D02*
X0264201Y0074806D01*
X0264201Y0073607D02*
X0256222Y0073607D01*
X0256222Y0072409D02*
X0264201Y0072409D01*
X0264429Y0071210D02*
X0256058Y0071210D01*
X0255561Y0070012D02*
X0265028Y0070012D01*
X0266256Y0068813D02*
X0254542Y0068813D01*
X0254053Y0067615D02*
X0275678Y0067615D01*
X0275093Y0068813D02*
X0271283Y0068813D01*
X0272511Y0070012D02*
X0274796Y0070012D01*
X0274796Y0071210D02*
X0273111Y0071210D01*
X0273338Y0072409D02*
X0275198Y0072409D01*
X0275931Y0073607D02*
X0273338Y0073607D01*
X0273338Y0074806D02*
X0277486Y0074806D01*
X0277869Y0076004D02*
X0273338Y0076004D01*
X0273338Y0075987D02*
X0273338Y0078930D01*
X0273226Y0079641D01*
X0273003Y0080325D01*
X0272677Y0080965D01*
X0272254Y0081547D01*
X0271746Y0082056D01*
X0271164Y0082478D01*
X0270523Y0082805D01*
X0269839Y0083027D01*
X0269154Y0083135D01*
X0269154Y0075987D01*
X0273338Y0075987D01*
X0273338Y0077203D02*
X0276090Y0077203D01*
X0275264Y0078401D02*
X0273338Y0078401D01*
X0273232Y0079600D02*
X0274796Y0079600D01*
X0274796Y0080798D02*
X0272762Y0080798D01*
X0271805Y0081997D02*
X0275027Y0081997D01*
X0269154Y0081997D02*
X0268385Y0081997D01*
X0268385Y0080798D02*
X0269154Y0080798D01*
X0269154Y0079600D02*
X0268385Y0079600D01*
X0268385Y0078401D02*
X0269154Y0078401D01*
X0269154Y0077203D02*
X0268385Y0077203D01*
X0268385Y0076004D02*
X0269154Y0076004D01*
X0269154Y0074806D02*
X0268385Y0074806D01*
X0268385Y0073607D02*
X0269154Y0073607D01*
X0269154Y0072409D02*
X0268385Y0072409D01*
X0268385Y0071210D02*
X0269154Y0071210D01*
X0269154Y0070012D02*
X0268385Y0070012D01*
X0268385Y0068813D02*
X0269154Y0068813D01*
X0276876Y0066416D02*
X0254053Y0066416D01*
X0254053Y0065218D02*
X0278481Y0065218D01*
X0276343Y0064019D02*
X0254053Y0064019D01*
X0254053Y0062820D02*
X0275369Y0062820D01*
X0274872Y0061622D02*
X0254053Y0061622D01*
X0254053Y0060423D02*
X0274796Y0060423D01*
X0274923Y0059225D02*
X0254053Y0059225D01*
X0254053Y0058026D02*
X0275419Y0058026D01*
X0276465Y0056828D02*
X0271246Y0056828D01*
X0271164Y0056888D02*
X0270523Y0057214D01*
X0269839Y0057436D01*
X0269154Y0057545D01*
X0269154Y0050396D01*
X0273338Y0050396D01*
X0273338Y0053340D01*
X0273226Y0054050D01*
X0273003Y0054734D01*
X0272677Y0055375D01*
X0272254Y0055956D01*
X0271746Y0056465D01*
X0271164Y0056888D01*
X0272492Y0055629D02*
X0286255Y0055629D01*
X0276755Y0054431D02*
X0273102Y0054431D01*
X0273338Y0053232D02*
X0275556Y0053232D01*
X0275043Y0052034D02*
X0273338Y0052034D01*
X0273338Y0050835D02*
X0274796Y0050835D01*
X0274796Y0049637D02*
X0269154Y0049637D01*
X0269154Y0049628D02*
X0269154Y0050396D01*
X0268385Y0050396D01*
X0268385Y0049628D01*
X0264201Y0049628D01*
X0264201Y0046684D01*
X0264314Y0045973D01*
X0264536Y0045290D01*
X0264862Y0044649D01*
X0265285Y0044067D01*
X0265794Y0043559D01*
X0266375Y0043136D01*
X0267016Y0042810D01*
X0267700Y0042587D01*
X0268385Y0042479D01*
X0268385Y0049627D01*
X0269154Y0049627D01*
X0269154Y0042479D01*
X0269839Y0042587D01*
X0270523Y0042810D01*
X0271164Y0043136D01*
X0271746Y0043559D01*
X0272254Y0044067D01*
X0272677Y0044649D01*
X0273003Y0045290D01*
X0273226Y0045973D01*
X0273338Y0046684D01*
X0273338Y0049628D01*
X0269154Y0049628D01*
X0268385Y0049637D02*
X0256222Y0049637D01*
X0256222Y0050835D02*
X0264201Y0050835D01*
X0264201Y0050396D02*
X0268385Y0050396D01*
X0268385Y0057545D01*
X0267700Y0057436D01*
X0267016Y0057214D01*
X0266375Y0056888D01*
X0265794Y0056465D01*
X0265285Y0055956D01*
X0264862Y0055375D01*
X0264536Y0054734D01*
X0264314Y0054050D01*
X0264201Y0053340D01*
X0264201Y0050396D01*
X0264201Y0052034D02*
X0256222Y0052034D01*
X0256222Y0053232D02*
X0264201Y0053232D01*
X0264437Y0054431D02*
X0256047Y0054431D01*
X0255550Y0055629D02*
X0265047Y0055629D01*
X0266293Y0056828D02*
X0254515Y0056828D01*
X0248053Y0058026D02*
X0209168Y0058026D01*
X0209168Y0056828D02*
X0247591Y0056828D01*
X0246556Y0055629D02*
X0209168Y0055629D01*
X0209168Y0054431D02*
X0246060Y0054431D01*
X0245885Y0053232D02*
X0209168Y0053232D01*
X0209168Y0052034D02*
X0245885Y0052034D01*
X0245885Y0050835D02*
X0209168Y0050835D01*
X0209168Y0049637D02*
X0245885Y0049637D01*
X0245885Y0048438D02*
X0209168Y0048438D01*
X0209168Y0047240D02*
X0245885Y0047240D01*
X0245885Y0046041D02*
X0209168Y0046041D01*
X0209168Y0044843D02*
X0246370Y0044843D01*
X0247143Y0043644D02*
X0209168Y0043644D01*
X0209168Y0042446D02*
X0248647Y0042446D01*
X0253460Y0042446D02*
X0274796Y0042446D01*
X0274796Y0043644D02*
X0271832Y0043644D01*
X0272776Y0044843D02*
X0275644Y0044843D01*
X0277780Y0046041D02*
X0273236Y0046041D01*
X0273338Y0047240D02*
X0276053Y0047240D01*
X0275248Y0048438D02*
X0273338Y0048438D01*
X0269154Y0048438D02*
X0268385Y0048438D01*
X0268385Y0047240D02*
X0269154Y0047240D01*
X0269154Y0046041D02*
X0268385Y0046041D01*
X0268385Y0044843D02*
X0269154Y0044843D01*
X0269154Y0043644D02*
X0268385Y0043644D01*
X0265708Y0043644D02*
X0254964Y0043644D01*
X0255736Y0044843D02*
X0264764Y0044843D01*
X0264303Y0046041D02*
X0256222Y0046041D01*
X0256222Y0047240D02*
X0264201Y0047240D01*
X0264201Y0048438D02*
X0256222Y0048438D01*
X0268385Y0050835D02*
X0269154Y0050835D01*
X0269154Y0052034D02*
X0268385Y0052034D01*
X0268385Y0053232D02*
X0269154Y0053232D01*
X0269154Y0054431D02*
X0268385Y0054431D01*
X0268385Y0055629D02*
X0269154Y0055629D01*
X0269154Y0056828D02*
X0268385Y0056828D01*
X0248053Y0059225D02*
X0209168Y0059225D01*
X0209168Y0060423D02*
X0248053Y0060423D01*
X0248053Y0061622D02*
X0209168Y0061622D01*
X0209168Y0062820D02*
X0248053Y0062820D01*
X0248053Y0064019D02*
X0209168Y0064019D01*
X0210969Y0065218D02*
X0213185Y0065218D01*
X0216087Y0065218D02*
X0248053Y0065218D01*
X0248053Y0066416D02*
X0217691Y0066416D01*
X0214636Y0068713D02*
X0214636Y0071075D01*
X0209124Y0076587D01*
X0209124Y0078949D01*
X0209124Y0078161D01*
X0206368Y0075799D02*
X0209518Y0072650D01*
X0209518Y0068713D01*
X0206368Y0072256D02*
X0206368Y0019500D01*
X0209896Y0020873D02*
X0243144Y0020873D01*
X0243144Y0019935D02*
X0244319Y0017100D01*
X0246488Y0014931D01*
X0249322Y0013757D01*
X0252390Y0013757D01*
X0255225Y0014931D01*
X0257394Y0017100D01*
X0258568Y0019935D01*
X0258568Y0023002D01*
X0257394Y0025837D01*
X0255225Y0028006D01*
X0252390Y0029180D01*
X0249322Y0029180D01*
X0246488Y0028006D01*
X0244319Y0025837D01*
X0243144Y0023002D01*
X0243144Y0019935D01*
X0243252Y0019674D02*
X0210152Y0019674D01*
X0210040Y0018476D02*
X0243749Y0018476D01*
X0244245Y0017277D02*
X0209497Y0017277D01*
X0207997Y0016079D02*
X0245340Y0016079D01*
X0246610Y0014880D02*
X0200115Y0014880D01*
X0199314Y0014880D02*
X0190115Y0014880D01*
X0189314Y0014880D02*
X0180115Y0014880D01*
X0179314Y0014880D02*
X0170115Y0014880D01*
X0169314Y0014880D02*
X0161371Y0014880D01*
X0161371Y0013682D02*
X0165115Y0013682D01*
X0165226Y0012483D02*
X0160951Y0012483D01*
X0160278Y0011285D02*
X0166425Y0011285D01*
X0167623Y0010086D02*
X0159027Y0010086D01*
X0171806Y0010086D02*
X0177623Y0010086D01*
X0176425Y0011285D02*
X0173004Y0011285D01*
X0174203Y0012483D02*
X0175226Y0012483D01*
X0175115Y0013682D02*
X0174315Y0013682D01*
X0174315Y0016079D02*
X0175115Y0016079D01*
X0175986Y0017277D02*
X0173443Y0017277D01*
X0172244Y0018476D02*
X0177185Y0018476D01*
X0177187Y0019674D02*
X0172243Y0019674D01*
X0173441Y0020873D02*
X0175988Y0020873D01*
X0174790Y0022071D02*
X0174640Y0022071D01*
X0170115Y0018476D02*
X0169315Y0018476D01*
X0169315Y0017277D02*
X0170115Y0017277D01*
X0170115Y0016079D02*
X0169315Y0016079D01*
X0167185Y0018476D02*
X0161371Y0018476D01*
X0161371Y0019674D02*
X0167187Y0019674D01*
X0165988Y0020873D02*
X0161371Y0020873D01*
X0161162Y0022071D02*
X0164790Y0022071D01*
X0164515Y0023270D02*
X0160666Y0023270D01*
X0159589Y0024468D02*
X0164515Y0024468D01*
X0164515Y0025667D02*
X0158774Y0025667D01*
X0158774Y0026865D02*
X0164726Y0026865D01*
X0165924Y0028064D02*
X0159049Y0028064D01*
X0160248Y0029262D02*
X0167123Y0029262D01*
X0172306Y0029262D02*
X0177123Y0029262D01*
X0175924Y0028064D02*
X0173505Y0028064D01*
X0174703Y0026865D02*
X0174726Y0026865D01*
X0182306Y0029262D02*
X0187123Y0029262D01*
X0185924Y0028064D02*
X0183505Y0028064D01*
X0184703Y0026865D02*
X0184726Y0026865D01*
X0192306Y0029262D02*
X0197123Y0029262D01*
X0195924Y0028064D02*
X0193505Y0028064D01*
X0194703Y0026865D02*
X0194726Y0026865D01*
X0202306Y0029262D02*
X0203568Y0029262D01*
X0203568Y0028064D02*
X0203505Y0028064D01*
X0203568Y0030461D02*
X0161446Y0030461D01*
X0162645Y0031659D02*
X0203568Y0031659D01*
X0203568Y0032858D02*
X0163843Y0032858D01*
X0165042Y0034056D02*
X0203568Y0034056D01*
X0203568Y0035255D02*
X0166240Y0035255D01*
X0167439Y0036453D02*
X0203568Y0036453D01*
X0203568Y0037652D02*
X0168637Y0037652D01*
X0167785Y0040760D02*
X0183533Y0040760D01*
X0167785Y0040760D02*
X0155974Y0028949D01*
X0155974Y0017728D01*
X0156171Y0017531D01*
X0161371Y0017277D02*
X0165986Y0017277D01*
X0165115Y0016079D02*
X0161371Y0016079D01*
X0146171Y0017531D02*
X0146171Y0024657D01*
X0166211Y0044697D01*
X0142754Y0024468D02*
X0139589Y0024468D01*
X0140666Y0023270D02*
X0141677Y0023270D01*
X0141181Y0022071D02*
X0141162Y0022071D01*
X0136171Y0017531D02*
X0136171Y0012138D01*
X0122052Y0012483D02*
X0120951Y0012483D01*
X0120580Y0011586D02*
X0119117Y0010123D01*
X0119027Y0010086D01*
X0121371Y0013682D02*
X0121649Y0013682D01*
X0121571Y0014880D02*
X0121371Y0014880D01*
X0121371Y0016079D02*
X0121571Y0016079D01*
X0125771Y0018476D02*
X0126571Y0018476D01*
X0126571Y0019674D02*
X0125771Y0019674D01*
X0125771Y0020873D02*
X0126571Y0020873D01*
X0126571Y0022071D02*
X0125771Y0022071D01*
X0125771Y0023270D02*
X0126571Y0023270D01*
X0126571Y0024468D02*
X0125771Y0024468D01*
X0128578Y0024468D02*
X0132754Y0024468D01*
X0131677Y0023270D02*
X0129868Y0023270D01*
X0130508Y0022071D02*
X0131181Y0022071D01*
X0130971Y0020873D02*
X0130771Y0020873D01*
X0130771Y0019674D02*
X0130971Y0019674D01*
X0130971Y0018476D02*
X0130771Y0018476D01*
X0179315Y0018476D02*
X0180115Y0018476D01*
X0180115Y0017277D02*
X0179315Y0017277D01*
X0179315Y0016079D02*
X0180115Y0016079D01*
X0182244Y0018476D02*
X0187185Y0018476D01*
X0187187Y0019674D02*
X0182243Y0019674D01*
X0183441Y0020873D02*
X0185988Y0020873D01*
X0184790Y0022071D02*
X0184640Y0022071D01*
X0192243Y0019674D02*
X0197187Y0019674D01*
X0197185Y0018476D02*
X0192244Y0018476D01*
X0193443Y0017277D02*
X0195986Y0017277D01*
X0195115Y0016079D02*
X0194315Y0016079D01*
X0190115Y0016079D02*
X0189315Y0016079D01*
X0189315Y0017277D02*
X0190115Y0017277D01*
X0190115Y0018476D02*
X0189315Y0018476D01*
X0185986Y0017277D02*
X0183443Y0017277D01*
X0184315Y0016079D02*
X0185115Y0016079D01*
X0185115Y0013682D02*
X0184315Y0013682D01*
X0184203Y0012483D02*
X0185226Y0012483D01*
X0186425Y0011285D02*
X0183004Y0011285D01*
X0181806Y0010086D02*
X0187623Y0010086D01*
X0191806Y0010086D02*
X0197623Y0010086D01*
X0196425Y0011285D02*
X0193004Y0011285D01*
X0194203Y0012483D02*
X0195226Y0012483D01*
X0195115Y0013682D02*
X0194315Y0013682D01*
X0199315Y0016079D02*
X0200115Y0016079D01*
X0200115Y0017277D02*
X0199315Y0017277D01*
X0199315Y0018476D02*
X0200115Y0018476D01*
X0202244Y0018476D02*
X0202696Y0018476D01*
X0202584Y0019674D02*
X0202243Y0019674D01*
X0204315Y0016079D02*
X0204739Y0016079D01*
X0204315Y0013682D02*
X0205465Y0013682D01*
X0195988Y0020873D02*
X0193441Y0020873D01*
X0194640Y0022071D02*
X0194790Y0022071D01*
X0209168Y0022071D02*
X0243144Y0022071D01*
X0243255Y0023270D02*
X0209168Y0023270D01*
X0209168Y0024468D02*
X0243752Y0024468D01*
X0244248Y0025667D02*
X0209168Y0025667D01*
X0209168Y0026865D02*
X0245347Y0026865D01*
X0246627Y0028064D02*
X0209168Y0028064D01*
X0209168Y0029262D02*
X0268144Y0029262D01*
X0268144Y0028064D02*
X0255086Y0028064D01*
X0256366Y0026865D02*
X0268144Y0026865D01*
X0268144Y0025667D02*
X0257465Y0025667D01*
X0257961Y0024468D02*
X0268144Y0024468D01*
X0268144Y0023270D02*
X0258457Y0023270D01*
X0258568Y0022071D02*
X0268144Y0022071D01*
X0268144Y0020873D02*
X0258568Y0020873D01*
X0258460Y0019674D02*
X0268144Y0019674D01*
X0268144Y0018476D02*
X0257964Y0018476D01*
X0257467Y0017277D02*
X0268144Y0017277D01*
X0268144Y0016079D02*
X0256372Y0016079D01*
X0255102Y0014880D02*
X0268144Y0014880D01*
X0268144Y0013682D02*
X0225381Y0013682D01*
X0226885Y0013059D02*
X0226885Y0013059D01*
X0227461Y0012483D02*
X0268144Y0012483D01*
X0268144Y0011285D02*
X0228659Y0011285D01*
X0228667Y0011277D02*
X0228667Y0011277D01*
X0229160Y0010086D02*
X0268144Y0010086D01*
X0268144Y0030461D02*
X0209168Y0030461D01*
X0209168Y0031659D02*
X0268144Y0031659D01*
X0268263Y0032858D02*
X0209168Y0032858D01*
X0209168Y0034056D02*
X0268760Y0034056D01*
X0269109Y0034899D02*
X0269109Y0034899D01*
X0269465Y0035255D02*
X0209168Y0035255D01*
X0209168Y0036453D02*
X0270663Y0036453D01*
X0270891Y0036681D02*
X0270891Y0036681D01*
X0274796Y0037652D02*
X0209168Y0037652D01*
X0209168Y0038850D02*
X0274796Y0038850D01*
X0274796Y0040049D02*
X0209168Y0040049D01*
X0209168Y0041247D02*
X0274796Y0041247D01*
X0206368Y0072256D02*
X0197313Y0081311D01*
X0197313Y0087217D01*
X0193890Y0085592D02*
X0191845Y0085592D01*
X0191845Y0084394D02*
X0194513Y0084394D01*
X0194513Y0083195D02*
X0191845Y0083195D01*
X0191845Y0081997D02*
X0194513Y0081997D01*
X0194513Y0080798D02*
X0191845Y0080798D01*
X0192354Y0079600D02*
X0195065Y0079600D01*
X0196263Y0078401D02*
X0193553Y0078401D01*
X0194751Y0077203D02*
X0197462Y0077203D01*
X0198660Y0076004D02*
X0195371Y0076004D01*
X0195389Y0074806D02*
X0199859Y0074806D01*
X0201057Y0073607D02*
X0195389Y0073607D01*
X0195389Y0072409D02*
X0202256Y0072409D01*
X0206368Y0075799D02*
X0206368Y0081705D01*
X0202889Y0083195D02*
X0200113Y0083195D01*
X0200113Y0084394D02*
X0203705Y0084394D01*
X0202584Y0081997D02*
X0200587Y0081997D01*
X0201786Y0080798D02*
X0202648Y0080798D01*
X0202984Y0079600D02*
X0203144Y0079600D01*
X0193529Y0086791D02*
X0191845Y0086791D01*
X0182352Y0090366D02*
X0181565Y0091154D01*
X0181565Y0099421D01*
X0177628Y0103358D01*
X0177628Y0125799D01*
X0172510Y0130917D01*
X0162667Y0130917D01*
X0139439Y0107689D01*
X0131959Y0107689D01*
X0154006Y0115169D02*
X0155974Y0115169D01*
X0154793Y0115169D01*
X0172510Y0108476D02*
X0172510Y0123831D01*
X0168573Y0124224D02*
X0168573Y0125799D01*
X0175053Y0132334D02*
X0245885Y0132334D01*
X0245885Y0131136D02*
X0176251Y0131136D01*
X0177450Y0129937D02*
X0245885Y0129937D01*
X0245885Y0128739D02*
X0178648Y0128739D01*
X0179847Y0127540D02*
X0245885Y0127540D01*
X0246206Y0126342D02*
X0180428Y0126342D01*
X0180428Y0125143D02*
X0246746Y0125143D01*
X0247945Y0123945D02*
X0180428Y0123945D01*
X0180428Y0122746D02*
X0248053Y0122746D01*
X0248053Y0121548D02*
X0180428Y0121548D01*
X0180428Y0120349D02*
X0248053Y0120349D01*
X0248053Y0119151D02*
X0180428Y0119151D01*
X0180428Y0117952D02*
X0248053Y0117952D01*
X0248053Y0116754D02*
X0180428Y0116754D01*
X0180428Y0115555D02*
X0248053Y0115555D01*
X0248053Y0114356D02*
X0180428Y0114356D01*
X0180428Y0113158D02*
X0248053Y0113158D01*
X0247211Y0111959D02*
X0180428Y0111959D01*
X0180428Y0110761D02*
X0246399Y0110761D01*
X0245902Y0109562D02*
X0180428Y0109562D01*
X0180428Y0108364D02*
X0245885Y0108364D01*
X0245885Y0107165D02*
X0180428Y0107165D01*
X0180428Y0105967D02*
X0186119Y0105967D01*
X0184921Y0104768D02*
X0180428Y0104768D01*
X0181376Y0103570D02*
X0183722Y0103570D01*
X0182647Y0102371D02*
X0182575Y0102371D01*
X0187864Y0103752D02*
X0249281Y0103752D01*
X0251053Y0105524D01*
X0256222Y0105967D02*
X0264201Y0105967D01*
X0264201Y0105908D02*
X0268385Y0105908D01*
X0268385Y0105139D01*
X0264201Y0105139D01*
X0264201Y0102196D01*
X0264314Y0101485D01*
X0264536Y0100801D01*
X0264862Y0100161D01*
X0265285Y0099579D01*
X0265794Y0099070D01*
X0266375Y0098648D01*
X0267016Y0098321D01*
X0267700Y0098099D01*
X0268385Y0097991D01*
X0268385Y0105139D01*
X0269154Y0105139D01*
X0269154Y0097991D01*
X0269839Y0098099D01*
X0270523Y0098321D01*
X0271164Y0098648D01*
X0271746Y0099070D01*
X0272254Y0099579D01*
X0272677Y0100161D01*
X0273003Y0100801D01*
X0273226Y0101485D01*
X0273338Y0102196D01*
X0273338Y0105139D01*
X0269154Y0105139D01*
X0269154Y0105908D01*
X0268385Y0105908D01*
X0268385Y0113057D01*
X0267700Y0112948D01*
X0267016Y0112726D01*
X0266375Y0112399D01*
X0265794Y0111977D01*
X0265285Y0111468D01*
X0264862Y0110887D01*
X0264536Y0110246D01*
X0264314Y0109562D01*
X0264201Y0108852D01*
X0264201Y0105908D01*
X0264201Y0104768D02*
X0256222Y0104768D01*
X0256222Y0103570D02*
X0264201Y0103570D01*
X0264201Y0102371D02*
X0256222Y0102371D01*
X0256075Y0101173D02*
X0264415Y0101173D01*
X0264998Y0099974D02*
X0255578Y0099974D01*
X0254583Y0098776D02*
X0266199Y0098776D01*
X0268385Y0098776D02*
X0269154Y0098776D01*
X0269154Y0099974D02*
X0268385Y0099974D01*
X0268385Y0101173D02*
X0269154Y0101173D01*
X0269154Y0102371D02*
X0268385Y0102371D01*
X0268385Y0103570D02*
X0269154Y0103570D01*
X0269154Y0104768D02*
X0268385Y0104768D01*
X0268385Y0105967D02*
X0269154Y0105967D01*
X0269154Y0105908D02*
X0269154Y0113057D01*
X0269839Y0112948D01*
X0270523Y0112726D01*
X0271164Y0112399D01*
X0271746Y0111977D01*
X0272254Y0111468D01*
X0272677Y0110887D01*
X0273003Y0110246D01*
X0273226Y0109562D01*
X0273338Y0108852D01*
X0273338Y0105908D01*
X0269154Y0105908D01*
X0269154Y0107165D02*
X0268385Y0107165D01*
X0268385Y0108364D02*
X0269154Y0108364D01*
X0269154Y0109562D02*
X0268385Y0109562D01*
X0268385Y0110761D02*
X0269154Y0110761D01*
X0269154Y0111959D02*
X0268385Y0111959D01*
X0265776Y0111959D02*
X0254895Y0111959D01*
X0255708Y0110761D02*
X0264798Y0110761D01*
X0264314Y0109562D02*
X0256204Y0109562D01*
X0256222Y0108364D02*
X0264201Y0108364D01*
X0264201Y0107165D02*
X0256222Y0107165D01*
X0254053Y0113158D02*
X0275508Y0113158D01*
X0275012Y0111959D02*
X0271763Y0111959D01*
X0272741Y0110761D02*
X0274796Y0110761D01*
X0274796Y0109562D02*
X0273226Y0109562D01*
X0273338Y0108364D02*
X0275279Y0108364D01*
X0276127Y0107165D02*
X0273338Y0107165D01*
X0273338Y0105967D02*
X0277959Y0105967D01*
X0277396Y0104768D02*
X0273338Y0104768D01*
X0273338Y0103570D02*
X0275894Y0103570D01*
X0275183Y0102371D02*
X0273338Y0102371D01*
X0273124Y0101173D02*
X0274796Y0101173D01*
X0274796Y0099974D02*
X0272542Y0099974D01*
X0271340Y0098776D02*
X0275109Y0098776D01*
X0275715Y0097577D02*
X0252542Y0097577D01*
X0249565Y0097577D02*
X0208575Y0097577D01*
X0207398Y0098776D02*
X0247523Y0098776D01*
X0246528Y0099974D02*
X0206220Y0099974D01*
X0203612Y0098634D02*
X0225659Y0076193D01*
X0229181Y0074806D02*
X0245885Y0074806D01*
X0245885Y0076004D02*
X0229444Y0076004D01*
X0229337Y0077203D02*
X0245885Y0077203D01*
X0245885Y0078401D02*
X0228803Y0078401D01*
X0227324Y0079600D02*
X0245885Y0079600D01*
X0246381Y0080798D02*
X0225060Y0080798D01*
X0227699Y0081997D02*
X0247170Y0081997D01*
X0248711Y0083195D02*
X0228905Y0083195D01*
X0203612Y0098634D02*
X0191801Y0098634D01*
X0168967Y0104933D02*
X0168573Y0104933D01*
X0164636Y0100996D01*
X0127660Y0092783D02*
X0036718Y0092783D01*
X0036718Y0091585D02*
X0126462Y0091585D01*
X0125263Y0090386D02*
X0036718Y0090386D01*
X0036718Y0089188D02*
X0124065Y0089188D01*
X0122866Y0087989D02*
X0036718Y0087989D01*
X0036718Y0086791D02*
X0121668Y0086791D01*
X0123901Y0074806D02*
X0127416Y0074806D01*
X0049776Y0028064D02*
X0036718Y0028064D01*
X0036718Y0026865D02*
X0048496Y0026865D01*
X0047398Y0025667D02*
X0036718Y0025667D01*
X0036718Y0024468D02*
X0046901Y0024468D01*
X0046405Y0023270D02*
X0036718Y0023270D01*
X0036718Y0022071D02*
X0046294Y0022071D01*
X0046294Y0020873D02*
X0036718Y0020873D01*
X0036718Y0019674D02*
X0046402Y0019674D01*
X0046898Y0018476D02*
X0036718Y0018476D01*
X0036718Y0017277D02*
X0047395Y0017277D01*
X0048490Y0016079D02*
X0036718Y0016079D01*
X0036718Y0014880D02*
X0049760Y0014880D01*
X0036718Y0013682D02*
X0079481Y0013682D01*
X0077977Y0013059D02*
X0077977Y0013059D01*
X0077402Y0012483D02*
X0036718Y0012483D01*
X0036718Y0011285D02*
X0076203Y0011285D01*
X0076195Y0011277D02*
X0076195Y0011277D01*
X0075702Y0010086D02*
X0036718Y0010086D01*
X0254053Y0114356D02*
X0276680Y0114356D01*
X0276539Y0116754D02*
X0254053Y0116754D01*
X0254053Y0117952D02*
X0275450Y0117952D01*
X0274953Y0119151D02*
X0254053Y0119151D01*
X0254053Y0120349D02*
X0274796Y0120349D01*
X0274841Y0121548D02*
X0254053Y0121548D01*
X0254053Y0122746D02*
X0275338Y0122746D01*
X0276269Y0123945D02*
X0270588Y0123945D01*
X0270523Y0123912D02*
X0271164Y0124238D01*
X0271746Y0124661D01*
X0272254Y0125169D01*
X0272677Y0125751D01*
X0273003Y0126392D01*
X0273226Y0127076D01*
X0273338Y0127786D01*
X0273338Y0130730D01*
X0269154Y0130730D01*
X0269154Y0131498D01*
X0273338Y0131498D01*
X0273338Y0134442D01*
X0273226Y0135152D01*
X0273003Y0135836D01*
X0272677Y0136477D01*
X0272254Y0137059D01*
X0271746Y0137567D01*
X0271164Y0137990D01*
X0270523Y0138316D01*
X0269839Y0138539D01*
X0269154Y0138647D01*
X0269154Y0131498D01*
X0268385Y0131498D01*
X0268385Y0130730D01*
X0264201Y0130730D01*
X0264201Y0127786D01*
X0264314Y0127076D01*
X0264536Y0126392D01*
X0264862Y0125751D01*
X0265285Y0125169D01*
X0265794Y0124661D01*
X0266375Y0124238D01*
X0267016Y0123912D01*
X0267700Y0123690D01*
X0268385Y0123581D01*
X0268385Y0130730D01*
X0269154Y0130730D01*
X0269154Y0123581D01*
X0269839Y0123690D01*
X0270523Y0123912D01*
X0269154Y0123945D02*
X0268385Y0123945D01*
X0268385Y0125143D02*
X0269154Y0125143D01*
X0269154Y0126342D02*
X0268385Y0126342D01*
X0268385Y0127540D02*
X0269154Y0127540D01*
X0269154Y0128739D02*
X0268385Y0128739D01*
X0268385Y0129937D02*
X0269154Y0129937D01*
X0269154Y0131136D02*
X0274796Y0131136D01*
X0274796Y0129937D02*
X0273338Y0129937D01*
X0273338Y0128739D02*
X0275124Y0128739D01*
X0275752Y0127540D02*
X0273299Y0127540D01*
X0272978Y0126342D02*
X0277055Y0126342D01*
X0278301Y0125143D02*
X0272228Y0125143D01*
X0266952Y0123945D02*
X0254161Y0123945D01*
X0255360Y0125143D02*
X0265311Y0125143D01*
X0264562Y0126342D02*
X0255900Y0126342D01*
X0256222Y0127540D02*
X0264240Y0127540D01*
X0264201Y0128739D02*
X0256222Y0128739D01*
X0256222Y0129937D02*
X0264201Y0129937D01*
X0264201Y0131498D02*
X0268385Y0131498D01*
X0268385Y0138647D01*
X0267700Y0138539D01*
X0267016Y0138316D01*
X0266375Y0137990D01*
X0265794Y0137567D01*
X0265285Y0137059D01*
X0264862Y0136477D01*
X0264536Y0135836D01*
X0264314Y0135152D01*
X0264201Y0134442D01*
X0264201Y0131498D01*
X0264201Y0132334D02*
X0256222Y0132334D01*
X0256222Y0131136D02*
X0268385Y0131136D01*
X0268385Y0132334D02*
X0269154Y0132334D01*
X0269154Y0133533D02*
X0268385Y0133533D01*
X0268385Y0134731D02*
X0269154Y0134731D01*
X0269154Y0135930D02*
X0268385Y0135930D01*
X0268385Y0137128D02*
X0269154Y0137128D01*
X0269154Y0138327D02*
X0268385Y0138327D01*
X0267048Y0138327D02*
X0254118Y0138327D01*
X0255317Y0137128D02*
X0265354Y0137128D01*
X0264583Y0135930D02*
X0255882Y0135930D01*
X0256222Y0134731D02*
X0264247Y0134731D01*
X0264201Y0133533D02*
X0256222Y0133533D01*
X0245885Y0133533D02*
X0173513Y0133533D01*
X0135896Y0143121D02*
X0273138Y0143121D01*
X0270891Y0144052D02*
X0270891Y0144052D01*
X0270623Y0144319D02*
X0135896Y0144319D01*
X0135896Y0145518D02*
X0269424Y0145518D01*
X0269109Y0145833D02*
X0269109Y0145833D01*
X0268743Y0146716D02*
X0135896Y0146716D01*
X0135896Y0147915D02*
X0268247Y0147915D01*
X0268144Y0149113D02*
X0135896Y0149113D01*
X0135896Y0150312D02*
X0268144Y0150312D01*
X0268144Y0151510D02*
X0135896Y0151510D01*
X0135896Y0152709D02*
X0246529Y0152709D01*
X0246488Y0152726D02*
X0249322Y0151552D01*
X0252390Y0151552D01*
X0255225Y0152726D01*
X0257394Y0154895D01*
X0258568Y0157730D01*
X0258568Y0160798D01*
X0257394Y0163632D01*
X0255225Y0165802D01*
X0252390Y0166976D01*
X0249322Y0166976D01*
X0246488Y0165802D01*
X0244319Y0163632D01*
X0243144Y0160798D01*
X0243144Y0157730D01*
X0244319Y0154895D01*
X0246488Y0152726D01*
X0245307Y0153907D02*
X0135896Y0153907D01*
X0135896Y0155106D02*
X0244231Y0155106D01*
X0243735Y0156304D02*
X0135896Y0156304D01*
X0135896Y0157503D02*
X0243238Y0157503D01*
X0243144Y0158701D02*
X0135896Y0158701D01*
X0135896Y0159900D02*
X0243144Y0159900D01*
X0243269Y0161098D02*
X0135896Y0161098D01*
X0135896Y0162297D02*
X0243765Y0162297D01*
X0244262Y0163495D02*
X0135896Y0163495D01*
X0135896Y0164694D02*
X0245380Y0164694D01*
X0246707Y0165892D02*
X0135896Y0165892D01*
X0135896Y0167091D02*
X0205368Y0167091D01*
X0203346Y0168289D02*
X0135896Y0168289D01*
X0135896Y0169488D02*
X0202166Y0169488D01*
X0202180Y0169455D02*
X0202180Y0169455D01*
X0225478Y0167091D02*
X0268144Y0167091D01*
X0268144Y0168289D02*
X0227501Y0168289D01*
X0226885Y0167674D02*
X0226885Y0167674D01*
X0228680Y0169488D02*
X0268144Y0169488D01*
X0268144Y0165892D02*
X0255005Y0165892D01*
X0256332Y0164694D02*
X0268144Y0164694D01*
X0268144Y0163495D02*
X0257451Y0163495D01*
X0257947Y0162297D02*
X0268144Y0162297D01*
X0268144Y0161098D02*
X0258444Y0161098D01*
X0258568Y0159900D02*
X0268144Y0159900D01*
X0268144Y0158701D02*
X0258568Y0158701D01*
X0258474Y0157503D02*
X0268144Y0157503D01*
X0268144Y0156304D02*
X0257978Y0156304D01*
X0257481Y0155106D02*
X0268144Y0155106D01*
X0268144Y0153907D02*
X0256406Y0153907D01*
X0255183Y0152709D02*
X0268144Y0152709D01*
X0270492Y0138327D02*
X0275295Y0138327D01*
X0276164Y0137128D02*
X0272185Y0137128D01*
X0272956Y0135930D02*
X0278049Y0135930D01*
X0277306Y0134731D02*
X0273292Y0134731D01*
X0273338Y0133533D02*
X0275857Y0133533D01*
X0275167Y0132334D02*
X0273338Y0132334D01*
X0286255Y0115555D02*
X0254053Y0115555D01*
D24*
X0142982Y0163594D02*
X0124478Y0163594D01*
D25*
X0298494Y0117925D03*
X0329596Y0115957D03*
X0333927Y0117531D03*
D26*
X0340541Y0080366D02*
X0346132Y0074776D01*
X0346132Y0055720D01*
X0351604Y0050248D01*
X0350738Y0040248D02*
X0340541Y0050445D01*
X0350738Y0040248D02*
X0352037Y0040248D01*
D27*
X0039439Y0100602D03*
X0039439Y0119500D03*
M02*
