%
M48
M71
T01C0.500
T02C0.600
T03C0.813
T04C0.900
T05C1.000
T06C1.016
T07C2.800
%
T01
X35818Y7353
X30417Y8753
X29617Y8753
X28817Y8753
X27817Y11353
X26917Y11353
X26917Y12253
X27817Y12253
X27817Y13153
X26917Y13153
X27917Y15653
X27917Y16853
X27917Y18053
X32818Y19853
X36818Y22053
X38418Y18453
X39218Y18453
X35418Y17153
X35418Y15853
X35418Y14653
X33818Y12153
X32918Y12153
X42218Y12453
X45817Y14353
X47217Y13753
X43717Y14653
X43717Y15853
X48217Y18853
X46817Y19553
X45417Y19753
X50117Y22153
X51317Y21753
X52417Y20753
X53117Y20053
X55217Y18353
X56117Y18353
X57317Y18253
X57317Y19353
X54517Y17453
X53217Y17453
X57317Y21653
X55117Y22953
X55717Y23753
X57317Y23753
X55417Y27753
X52617Y29853
X44817Y33253
X42818Y31953
X43817Y31453
X42318Y30953
X39618Y29253
X36118Y29653
X32417Y30053
X36918Y31753
X37718Y31753
X38518Y31753
X39018Y34853
X44817Y35053
X52917Y34853
X10618Y36853
X9718Y36853
X9718Y35953
X10618Y35953
X10618Y35053
X9718Y35053
X9718Y34153
X10618Y34153
X10618Y33253
X9718Y33253
X16518Y36253
X22017Y31653
X33518Y27353
X39818Y27353
X40218Y26453
X42918Y26653
X42918Y27753
X47917Y25553
X48717Y25053
X48717Y24053
X48717Y23053
X46317Y22953
X44717Y24353
X43917Y24853
X24717Y24653
X54517Y9653
X54517Y8853
X52417Y4953
X73818Y35953
X73818Y35153
X73818Y34353
X37518Y41053
X36618Y41053
X35718Y41053
X35718Y41953
X36618Y41953
X37518Y41953
X33318Y41953
X32417Y41953
X31517Y41953
X31517Y41053
X32417Y41053
X33318Y41053
X73818Y9953
X73818Y10753
X73818Y11553
T02
X75818Y29953
X83718Y29453
X84818Y29853
T03
X71018Y35683
X71018Y33143
X71018Y30603
X71018Y28063
X71018Y25523
X71018Y22983
X71018Y20443
X71018Y17903
X71018Y15363
X71018Y12823
X71018Y10283
T04
X76338Y33093
X78878Y33093
X81418Y33093
X83958Y33093
X86498Y33093
X86498Y28013
X83958Y28013
X81418Y28013
X78878Y28013
X76338Y28013
X76338Y25493
X78878Y25493
X81418Y25493
X83958Y25493
X86498Y25493
X86498Y20413
X83958Y20413
X81418Y20413
X78878Y20413
X76338Y20413
X76338Y17893
X78878Y17893
X81418Y17893
X83958Y17893
X86498Y17893
X86498Y12813
X83958Y12813
X81418Y12813
X78878Y12813
X76338Y12813
T05
X10018Y30353
X10018Y25553
X63767Y26803
X68268Y26803
X68268Y33303
X63767Y33303
X68268Y12703
X63767Y12703
X63767Y19203
X68268Y19203
T06
X26967Y4453
X29507Y4453
X32047Y4453
X34588Y4453
X37128Y4453
X39668Y4453
X43108Y3683
X45647Y3683
X48187Y3683
X50727Y3683
X43108Y6223
X45647Y6223
X48187Y6223
X50727Y6223
X89417Y35623
X89417Y33083
X89417Y30543
X89417Y28003
X89417Y25463
X89417Y22923
X89417Y20383
X89417Y17843
X89417Y15303
X89417Y12763
X89417Y10223
X13817Y26683
X13817Y29223
T07
X13717Y5453
X63717Y5453
X13717Y40453
X63717Y40453
M30
