G75*
%MOIN*%
%OFA0B0*%
%FSLAX25Y25*%
%IPPOS*%
%LPD*%
%AMOC8*
5,1,8,0,0,1.08239X$1,22.5*
%
%ADD10C,0.00000*%
%ADD11C,0.00394*%
%ADD12R,0.05906X0.05118*%
%ADD13R,0.07874X0.07874*%
%ADD14R,0.03543X0.03150*%
%ADD15R,0.05512X0.03937*%
%ADD16R,0.05600X0.01100*%
%ADD17R,0.04331X0.03937*%
%ADD18R,0.05118X0.05906*%
%ADD19R,0.06299X0.07087*%
%ADD20R,0.01100X0.05800*%
%ADD21R,0.05800X0.01100*%
%ADD22R,0.06299X0.05512*%
%ADD23R,0.03937X0.04331*%
%ADD24R,0.21654X0.07874*%
%ADD25R,0.02200X0.07800*%
%ADD26R,0.07800X0.02200*%
%ADD27R,0.03937X0.07874*%
%ADD28R,0.07087X0.03937*%
%ADD29R,0.34646X0.13386*%
D10*
X0048494Y0021469D02*
X0048496Y0021617D01*
X0048502Y0021765D01*
X0048512Y0021913D01*
X0048526Y0022060D01*
X0048544Y0022207D01*
X0048565Y0022353D01*
X0048591Y0022499D01*
X0048621Y0022644D01*
X0048654Y0022788D01*
X0048692Y0022931D01*
X0048733Y0023073D01*
X0048778Y0023214D01*
X0048826Y0023354D01*
X0048879Y0023493D01*
X0048935Y0023630D01*
X0048995Y0023765D01*
X0049058Y0023899D01*
X0049125Y0024031D01*
X0049196Y0024161D01*
X0049270Y0024289D01*
X0049347Y0024415D01*
X0049428Y0024539D01*
X0049512Y0024661D01*
X0049599Y0024780D01*
X0049690Y0024897D01*
X0049784Y0025012D01*
X0049880Y0025124D01*
X0049980Y0025234D01*
X0050082Y0025340D01*
X0050188Y0025444D01*
X0050296Y0025545D01*
X0050407Y0025643D01*
X0050520Y0025739D01*
X0050636Y0025831D01*
X0050754Y0025920D01*
X0050875Y0026005D01*
X0050998Y0026088D01*
X0051123Y0026167D01*
X0051250Y0026243D01*
X0051379Y0026315D01*
X0051510Y0026384D01*
X0051643Y0026449D01*
X0051778Y0026510D01*
X0051914Y0026568D01*
X0052051Y0026623D01*
X0052190Y0026673D01*
X0052331Y0026720D01*
X0052472Y0026763D01*
X0052615Y0026803D01*
X0052759Y0026838D01*
X0052903Y0026870D01*
X0053049Y0026897D01*
X0053195Y0026921D01*
X0053342Y0026941D01*
X0053489Y0026957D01*
X0053636Y0026969D01*
X0053784Y0026977D01*
X0053932Y0026981D01*
X0054080Y0026981D01*
X0054228Y0026977D01*
X0054376Y0026969D01*
X0054523Y0026957D01*
X0054670Y0026941D01*
X0054817Y0026921D01*
X0054963Y0026897D01*
X0055109Y0026870D01*
X0055253Y0026838D01*
X0055397Y0026803D01*
X0055540Y0026763D01*
X0055681Y0026720D01*
X0055822Y0026673D01*
X0055961Y0026623D01*
X0056098Y0026568D01*
X0056234Y0026510D01*
X0056369Y0026449D01*
X0056502Y0026384D01*
X0056633Y0026315D01*
X0056762Y0026243D01*
X0056889Y0026167D01*
X0057014Y0026088D01*
X0057137Y0026005D01*
X0057258Y0025920D01*
X0057376Y0025831D01*
X0057492Y0025739D01*
X0057605Y0025643D01*
X0057716Y0025545D01*
X0057824Y0025444D01*
X0057930Y0025340D01*
X0058032Y0025234D01*
X0058132Y0025124D01*
X0058228Y0025012D01*
X0058322Y0024897D01*
X0058413Y0024780D01*
X0058500Y0024661D01*
X0058584Y0024539D01*
X0058665Y0024415D01*
X0058742Y0024289D01*
X0058816Y0024161D01*
X0058887Y0024031D01*
X0058954Y0023899D01*
X0059017Y0023765D01*
X0059077Y0023630D01*
X0059133Y0023493D01*
X0059186Y0023354D01*
X0059234Y0023214D01*
X0059279Y0023073D01*
X0059320Y0022931D01*
X0059358Y0022788D01*
X0059391Y0022644D01*
X0059421Y0022499D01*
X0059447Y0022353D01*
X0059468Y0022207D01*
X0059486Y0022060D01*
X0059500Y0021913D01*
X0059510Y0021765D01*
X0059516Y0021617D01*
X0059518Y0021469D01*
X0059516Y0021321D01*
X0059510Y0021173D01*
X0059500Y0021025D01*
X0059486Y0020878D01*
X0059468Y0020731D01*
X0059447Y0020585D01*
X0059421Y0020439D01*
X0059391Y0020294D01*
X0059358Y0020150D01*
X0059320Y0020007D01*
X0059279Y0019865D01*
X0059234Y0019724D01*
X0059186Y0019584D01*
X0059133Y0019445D01*
X0059077Y0019308D01*
X0059017Y0019173D01*
X0058954Y0019039D01*
X0058887Y0018907D01*
X0058816Y0018777D01*
X0058742Y0018649D01*
X0058665Y0018523D01*
X0058584Y0018399D01*
X0058500Y0018277D01*
X0058413Y0018158D01*
X0058322Y0018041D01*
X0058228Y0017926D01*
X0058132Y0017814D01*
X0058032Y0017704D01*
X0057930Y0017598D01*
X0057824Y0017494D01*
X0057716Y0017393D01*
X0057605Y0017295D01*
X0057492Y0017199D01*
X0057376Y0017107D01*
X0057258Y0017018D01*
X0057137Y0016933D01*
X0057014Y0016850D01*
X0056889Y0016771D01*
X0056762Y0016695D01*
X0056633Y0016623D01*
X0056502Y0016554D01*
X0056369Y0016489D01*
X0056234Y0016428D01*
X0056098Y0016370D01*
X0055961Y0016315D01*
X0055822Y0016265D01*
X0055681Y0016218D01*
X0055540Y0016175D01*
X0055397Y0016135D01*
X0055253Y0016100D01*
X0055109Y0016068D01*
X0054963Y0016041D01*
X0054817Y0016017D01*
X0054670Y0015997D01*
X0054523Y0015981D01*
X0054376Y0015969D01*
X0054228Y0015961D01*
X0054080Y0015957D01*
X0053932Y0015957D01*
X0053784Y0015961D01*
X0053636Y0015969D01*
X0053489Y0015981D01*
X0053342Y0015997D01*
X0053195Y0016017D01*
X0053049Y0016041D01*
X0052903Y0016068D01*
X0052759Y0016100D01*
X0052615Y0016135D01*
X0052472Y0016175D01*
X0052331Y0016218D01*
X0052190Y0016265D01*
X0052051Y0016315D01*
X0051914Y0016370D01*
X0051778Y0016428D01*
X0051643Y0016489D01*
X0051510Y0016554D01*
X0051379Y0016623D01*
X0051250Y0016695D01*
X0051123Y0016771D01*
X0050998Y0016850D01*
X0050875Y0016933D01*
X0050754Y0017018D01*
X0050636Y0017107D01*
X0050520Y0017199D01*
X0050407Y0017295D01*
X0050296Y0017393D01*
X0050188Y0017494D01*
X0050082Y0017598D01*
X0049980Y0017704D01*
X0049880Y0017814D01*
X0049784Y0017926D01*
X0049690Y0018041D01*
X0049599Y0018158D01*
X0049512Y0018277D01*
X0049428Y0018399D01*
X0049347Y0018523D01*
X0049270Y0018649D01*
X0049196Y0018777D01*
X0049125Y0018907D01*
X0049058Y0019039D01*
X0048995Y0019173D01*
X0048935Y0019308D01*
X0048879Y0019445D01*
X0048826Y0019584D01*
X0048778Y0019724D01*
X0048733Y0019865D01*
X0048692Y0020007D01*
X0048654Y0020150D01*
X0048621Y0020294D01*
X0048591Y0020439D01*
X0048565Y0020585D01*
X0048544Y0020731D01*
X0048526Y0020878D01*
X0048512Y0021025D01*
X0048502Y0021173D01*
X0048496Y0021321D01*
X0048494Y0021469D01*
X0245344Y0021469D02*
X0245346Y0021617D01*
X0245352Y0021765D01*
X0245362Y0021913D01*
X0245376Y0022060D01*
X0245394Y0022207D01*
X0245415Y0022353D01*
X0245441Y0022499D01*
X0245471Y0022644D01*
X0245504Y0022788D01*
X0245542Y0022931D01*
X0245583Y0023073D01*
X0245628Y0023214D01*
X0245676Y0023354D01*
X0245729Y0023493D01*
X0245785Y0023630D01*
X0245845Y0023765D01*
X0245908Y0023899D01*
X0245975Y0024031D01*
X0246046Y0024161D01*
X0246120Y0024289D01*
X0246197Y0024415D01*
X0246278Y0024539D01*
X0246362Y0024661D01*
X0246449Y0024780D01*
X0246540Y0024897D01*
X0246634Y0025012D01*
X0246730Y0025124D01*
X0246830Y0025234D01*
X0246932Y0025340D01*
X0247038Y0025444D01*
X0247146Y0025545D01*
X0247257Y0025643D01*
X0247370Y0025739D01*
X0247486Y0025831D01*
X0247604Y0025920D01*
X0247725Y0026005D01*
X0247848Y0026088D01*
X0247973Y0026167D01*
X0248100Y0026243D01*
X0248229Y0026315D01*
X0248360Y0026384D01*
X0248493Y0026449D01*
X0248628Y0026510D01*
X0248764Y0026568D01*
X0248901Y0026623D01*
X0249040Y0026673D01*
X0249181Y0026720D01*
X0249322Y0026763D01*
X0249465Y0026803D01*
X0249609Y0026838D01*
X0249753Y0026870D01*
X0249899Y0026897D01*
X0250045Y0026921D01*
X0250192Y0026941D01*
X0250339Y0026957D01*
X0250486Y0026969D01*
X0250634Y0026977D01*
X0250782Y0026981D01*
X0250930Y0026981D01*
X0251078Y0026977D01*
X0251226Y0026969D01*
X0251373Y0026957D01*
X0251520Y0026941D01*
X0251667Y0026921D01*
X0251813Y0026897D01*
X0251959Y0026870D01*
X0252103Y0026838D01*
X0252247Y0026803D01*
X0252390Y0026763D01*
X0252531Y0026720D01*
X0252672Y0026673D01*
X0252811Y0026623D01*
X0252948Y0026568D01*
X0253084Y0026510D01*
X0253219Y0026449D01*
X0253352Y0026384D01*
X0253483Y0026315D01*
X0253612Y0026243D01*
X0253739Y0026167D01*
X0253864Y0026088D01*
X0253987Y0026005D01*
X0254108Y0025920D01*
X0254226Y0025831D01*
X0254342Y0025739D01*
X0254455Y0025643D01*
X0254566Y0025545D01*
X0254674Y0025444D01*
X0254780Y0025340D01*
X0254882Y0025234D01*
X0254982Y0025124D01*
X0255078Y0025012D01*
X0255172Y0024897D01*
X0255263Y0024780D01*
X0255350Y0024661D01*
X0255434Y0024539D01*
X0255515Y0024415D01*
X0255592Y0024289D01*
X0255666Y0024161D01*
X0255737Y0024031D01*
X0255804Y0023899D01*
X0255867Y0023765D01*
X0255927Y0023630D01*
X0255983Y0023493D01*
X0256036Y0023354D01*
X0256084Y0023214D01*
X0256129Y0023073D01*
X0256170Y0022931D01*
X0256208Y0022788D01*
X0256241Y0022644D01*
X0256271Y0022499D01*
X0256297Y0022353D01*
X0256318Y0022207D01*
X0256336Y0022060D01*
X0256350Y0021913D01*
X0256360Y0021765D01*
X0256366Y0021617D01*
X0256368Y0021469D01*
X0256366Y0021321D01*
X0256360Y0021173D01*
X0256350Y0021025D01*
X0256336Y0020878D01*
X0256318Y0020731D01*
X0256297Y0020585D01*
X0256271Y0020439D01*
X0256241Y0020294D01*
X0256208Y0020150D01*
X0256170Y0020007D01*
X0256129Y0019865D01*
X0256084Y0019724D01*
X0256036Y0019584D01*
X0255983Y0019445D01*
X0255927Y0019308D01*
X0255867Y0019173D01*
X0255804Y0019039D01*
X0255737Y0018907D01*
X0255666Y0018777D01*
X0255592Y0018649D01*
X0255515Y0018523D01*
X0255434Y0018399D01*
X0255350Y0018277D01*
X0255263Y0018158D01*
X0255172Y0018041D01*
X0255078Y0017926D01*
X0254982Y0017814D01*
X0254882Y0017704D01*
X0254780Y0017598D01*
X0254674Y0017494D01*
X0254566Y0017393D01*
X0254455Y0017295D01*
X0254342Y0017199D01*
X0254226Y0017107D01*
X0254108Y0017018D01*
X0253987Y0016933D01*
X0253864Y0016850D01*
X0253739Y0016771D01*
X0253612Y0016695D01*
X0253483Y0016623D01*
X0253352Y0016554D01*
X0253219Y0016489D01*
X0253084Y0016428D01*
X0252948Y0016370D01*
X0252811Y0016315D01*
X0252672Y0016265D01*
X0252531Y0016218D01*
X0252390Y0016175D01*
X0252247Y0016135D01*
X0252103Y0016100D01*
X0251959Y0016068D01*
X0251813Y0016041D01*
X0251667Y0016017D01*
X0251520Y0015997D01*
X0251373Y0015981D01*
X0251226Y0015969D01*
X0251078Y0015961D01*
X0250930Y0015957D01*
X0250782Y0015957D01*
X0250634Y0015961D01*
X0250486Y0015969D01*
X0250339Y0015981D01*
X0250192Y0015997D01*
X0250045Y0016017D01*
X0249899Y0016041D01*
X0249753Y0016068D01*
X0249609Y0016100D01*
X0249465Y0016135D01*
X0249322Y0016175D01*
X0249181Y0016218D01*
X0249040Y0016265D01*
X0248901Y0016315D01*
X0248764Y0016370D01*
X0248628Y0016428D01*
X0248493Y0016489D01*
X0248360Y0016554D01*
X0248229Y0016623D01*
X0248100Y0016695D01*
X0247973Y0016771D01*
X0247848Y0016850D01*
X0247725Y0016933D01*
X0247604Y0017018D01*
X0247486Y0017107D01*
X0247370Y0017199D01*
X0247257Y0017295D01*
X0247146Y0017393D01*
X0247038Y0017494D01*
X0246932Y0017598D01*
X0246830Y0017704D01*
X0246730Y0017814D01*
X0246634Y0017926D01*
X0246540Y0018041D01*
X0246449Y0018158D01*
X0246362Y0018277D01*
X0246278Y0018399D01*
X0246197Y0018523D01*
X0246120Y0018649D01*
X0246046Y0018777D01*
X0245975Y0018907D01*
X0245908Y0019039D01*
X0245845Y0019173D01*
X0245785Y0019308D01*
X0245729Y0019445D01*
X0245676Y0019584D01*
X0245628Y0019724D01*
X0245583Y0019865D01*
X0245542Y0020007D01*
X0245504Y0020150D01*
X0245471Y0020294D01*
X0245441Y0020439D01*
X0245415Y0020585D01*
X0245394Y0020731D01*
X0245376Y0020878D01*
X0245362Y0021025D01*
X0245352Y0021173D01*
X0245346Y0021321D01*
X0245344Y0021469D01*
X0289636Y0039185D02*
X0289638Y0039247D01*
X0289644Y0039310D01*
X0289654Y0039371D01*
X0289668Y0039432D01*
X0289685Y0039492D01*
X0289706Y0039551D01*
X0289732Y0039608D01*
X0289760Y0039663D01*
X0289792Y0039717D01*
X0289828Y0039768D01*
X0289866Y0039818D01*
X0289908Y0039864D01*
X0289952Y0039908D01*
X0290000Y0039949D01*
X0290049Y0039987D01*
X0290101Y0040021D01*
X0290155Y0040052D01*
X0290211Y0040080D01*
X0290269Y0040104D01*
X0290328Y0040125D01*
X0290388Y0040141D01*
X0290449Y0040154D01*
X0290511Y0040163D01*
X0290573Y0040168D01*
X0290636Y0040169D01*
X0290698Y0040166D01*
X0290760Y0040159D01*
X0290822Y0040148D01*
X0290882Y0040133D01*
X0290942Y0040115D01*
X0291000Y0040093D01*
X0291057Y0040067D01*
X0291112Y0040037D01*
X0291165Y0040004D01*
X0291216Y0039968D01*
X0291264Y0039929D01*
X0291310Y0039886D01*
X0291353Y0039841D01*
X0291393Y0039793D01*
X0291430Y0039743D01*
X0291464Y0039690D01*
X0291495Y0039636D01*
X0291521Y0039580D01*
X0291545Y0039522D01*
X0291564Y0039462D01*
X0291580Y0039402D01*
X0291592Y0039340D01*
X0291600Y0039279D01*
X0291604Y0039216D01*
X0291604Y0039154D01*
X0291600Y0039091D01*
X0291592Y0039030D01*
X0291580Y0038968D01*
X0291564Y0038908D01*
X0291545Y0038848D01*
X0291521Y0038790D01*
X0291495Y0038734D01*
X0291464Y0038680D01*
X0291430Y0038627D01*
X0291393Y0038577D01*
X0291353Y0038529D01*
X0291310Y0038484D01*
X0291264Y0038441D01*
X0291216Y0038402D01*
X0291165Y0038366D01*
X0291112Y0038333D01*
X0291057Y0038303D01*
X0291000Y0038277D01*
X0290942Y0038255D01*
X0290882Y0038237D01*
X0290822Y0038222D01*
X0290760Y0038211D01*
X0290698Y0038204D01*
X0290636Y0038201D01*
X0290573Y0038202D01*
X0290511Y0038207D01*
X0290449Y0038216D01*
X0290388Y0038229D01*
X0290328Y0038245D01*
X0290269Y0038266D01*
X0290211Y0038290D01*
X0290155Y0038318D01*
X0290101Y0038349D01*
X0290049Y0038383D01*
X0290000Y0038421D01*
X0289952Y0038462D01*
X0289908Y0038506D01*
X0289866Y0038552D01*
X0289828Y0038602D01*
X0289792Y0038653D01*
X0289760Y0038707D01*
X0289732Y0038762D01*
X0289706Y0038819D01*
X0289685Y0038878D01*
X0289668Y0038938D01*
X0289654Y0038999D01*
X0289644Y0039060D01*
X0289638Y0039123D01*
X0289636Y0039185D01*
X0289636Y0042335D02*
X0289638Y0042397D01*
X0289644Y0042460D01*
X0289654Y0042521D01*
X0289668Y0042582D01*
X0289685Y0042642D01*
X0289706Y0042701D01*
X0289732Y0042758D01*
X0289760Y0042813D01*
X0289792Y0042867D01*
X0289828Y0042918D01*
X0289866Y0042968D01*
X0289908Y0043014D01*
X0289952Y0043058D01*
X0290000Y0043099D01*
X0290049Y0043137D01*
X0290101Y0043171D01*
X0290155Y0043202D01*
X0290211Y0043230D01*
X0290269Y0043254D01*
X0290328Y0043275D01*
X0290388Y0043291D01*
X0290449Y0043304D01*
X0290511Y0043313D01*
X0290573Y0043318D01*
X0290636Y0043319D01*
X0290698Y0043316D01*
X0290760Y0043309D01*
X0290822Y0043298D01*
X0290882Y0043283D01*
X0290942Y0043265D01*
X0291000Y0043243D01*
X0291057Y0043217D01*
X0291112Y0043187D01*
X0291165Y0043154D01*
X0291216Y0043118D01*
X0291264Y0043079D01*
X0291310Y0043036D01*
X0291353Y0042991D01*
X0291393Y0042943D01*
X0291430Y0042893D01*
X0291464Y0042840D01*
X0291495Y0042786D01*
X0291521Y0042730D01*
X0291545Y0042672D01*
X0291564Y0042612D01*
X0291580Y0042552D01*
X0291592Y0042490D01*
X0291600Y0042429D01*
X0291604Y0042366D01*
X0291604Y0042304D01*
X0291600Y0042241D01*
X0291592Y0042180D01*
X0291580Y0042118D01*
X0291564Y0042058D01*
X0291545Y0041998D01*
X0291521Y0041940D01*
X0291495Y0041884D01*
X0291464Y0041830D01*
X0291430Y0041777D01*
X0291393Y0041727D01*
X0291353Y0041679D01*
X0291310Y0041634D01*
X0291264Y0041591D01*
X0291216Y0041552D01*
X0291165Y0041516D01*
X0291112Y0041483D01*
X0291057Y0041453D01*
X0291000Y0041427D01*
X0290942Y0041405D01*
X0290882Y0041387D01*
X0290822Y0041372D01*
X0290760Y0041361D01*
X0290698Y0041354D01*
X0290636Y0041351D01*
X0290573Y0041352D01*
X0290511Y0041357D01*
X0290449Y0041366D01*
X0290388Y0041379D01*
X0290328Y0041395D01*
X0290269Y0041416D01*
X0290211Y0041440D01*
X0290155Y0041468D01*
X0290101Y0041499D01*
X0290049Y0041533D01*
X0290000Y0041571D01*
X0289952Y0041612D01*
X0289908Y0041656D01*
X0289866Y0041702D01*
X0289828Y0041752D01*
X0289792Y0041803D01*
X0289760Y0041857D01*
X0289732Y0041912D01*
X0289706Y0041969D01*
X0289685Y0042028D01*
X0289668Y0042088D01*
X0289654Y0042149D01*
X0289644Y0042210D01*
X0289638Y0042273D01*
X0289636Y0042335D01*
X0289636Y0045484D02*
X0289638Y0045546D01*
X0289644Y0045609D01*
X0289654Y0045670D01*
X0289668Y0045731D01*
X0289685Y0045791D01*
X0289706Y0045850D01*
X0289732Y0045907D01*
X0289760Y0045962D01*
X0289792Y0046016D01*
X0289828Y0046067D01*
X0289866Y0046117D01*
X0289908Y0046163D01*
X0289952Y0046207D01*
X0290000Y0046248D01*
X0290049Y0046286D01*
X0290101Y0046320D01*
X0290155Y0046351D01*
X0290211Y0046379D01*
X0290269Y0046403D01*
X0290328Y0046424D01*
X0290388Y0046440D01*
X0290449Y0046453D01*
X0290511Y0046462D01*
X0290573Y0046467D01*
X0290636Y0046468D01*
X0290698Y0046465D01*
X0290760Y0046458D01*
X0290822Y0046447D01*
X0290882Y0046432D01*
X0290942Y0046414D01*
X0291000Y0046392D01*
X0291057Y0046366D01*
X0291112Y0046336D01*
X0291165Y0046303D01*
X0291216Y0046267D01*
X0291264Y0046228D01*
X0291310Y0046185D01*
X0291353Y0046140D01*
X0291393Y0046092D01*
X0291430Y0046042D01*
X0291464Y0045989D01*
X0291495Y0045935D01*
X0291521Y0045879D01*
X0291545Y0045821D01*
X0291564Y0045761D01*
X0291580Y0045701D01*
X0291592Y0045639D01*
X0291600Y0045578D01*
X0291604Y0045515D01*
X0291604Y0045453D01*
X0291600Y0045390D01*
X0291592Y0045329D01*
X0291580Y0045267D01*
X0291564Y0045207D01*
X0291545Y0045147D01*
X0291521Y0045089D01*
X0291495Y0045033D01*
X0291464Y0044979D01*
X0291430Y0044926D01*
X0291393Y0044876D01*
X0291353Y0044828D01*
X0291310Y0044783D01*
X0291264Y0044740D01*
X0291216Y0044701D01*
X0291165Y0044665D01*
X0291112Y0044632D01*
X0291057Y0044602D01*
X0291000Y0044576D01*
X0290942Y0044554D01*
X0290882Y0044536D01*
X0290822Y0044521D01*
X0290760Y0044510D01*
X0290698Y0044503D01*
X0290636Y0044500D01*
X0290573Y0044501D01*
X0290511Y0044506D01*
X0290449Y0044515D01*
X0290388Y0044528D01*
X0290328Y0044544D01*
X0290269Y0044565D01*
X0290211Y0044589D01*
X0290155Y0044617D01*
X0290101Y0044648D01*
X0290049Y0044682D01*
X0290000Y0044720D01*
X0289952Y0044761D01*
X0289908Y0044805D01*
X0289866Y0044851D01*
X0289828Y0044901D01*
X0289792Y0044952D01*
X0289760Y0045006D01*
X0289732Y0045061D01*
X0289706Y0045118D01*
X0289685Y0045177D01*
X0289668Y0045237D01*
X0289654Y0045298D01*
X0289644Y0045359D01*
X0289638Y0045422D01*
X0289636Y0045484D01*
X0289636Y0135248D02*
X0289638Y0135310D01*
X0289644Y0135373D01*
X0289654Y0135434D01*
X0289668Y0135495D01*
X0289685Y0135555D01*
X0289706Y0135614D01*
X0289732Y0135671D01*
X0289760Y0135726D01*
X0289792Y0135780D01*
X0289828Y0135831D01*
X0289866Y0135881D01*
X0289908Y0135927D01*
X0289952Y0135971D01*
X0290000Y0136012D01*
X0290049Y0136050D01*
X0290101Y0136084D01*
X0290155Y0136115D01*
X0290211Y0136143D01*
X0290269Y0136167D01*
X0290328Y0136188D01*
X0290388Y0136204D01*
X0290449Y0136217D01*
X0290511Y0136226D01*
X0290573Y0136231D01*
X0290636Y0136232D01*
X0290698Y0136229D01*
X0290760Y0136222D01*
X0290822Y0136211D01*
X0290882Y0136196D01*
X0290942Y0136178D01*
X0291000Y0136156D01*
X0291057Y0136130D01*
X0291112Y0136100D01*
X0291165Y0136067D01*
X0291216Y0136031D01*
X0291264Y0135992D01*
X0291310Y0135949D01*
X0291353Y0135904D01*
X0291393Y0135856D01*
X0291430Y0135806D01*
X0291464Y0135753D01*
X0291495Y0135699D01*
X0291521Y0135643D01*
X0291545Y0135585D01*
X0291564Y0135525D01*
X0291580Y0135465D01*
X0291592Y0135403D01*
X0291600Y0135342D01*
X0291604Y0135279D01*
X0291604Y0135217D01*
X0291600Y0135154D01*
X0291592Y0135093D01*
X0291580Y0135031D01*
X0291564Y0134971D01*
X0291545Y0134911D01*
X0291521Y0134853D01*
X0291495Y0134797D01*
X0291464Y0134743D01*
X0291430Y0134690D01*
X0291393Y0134640D01*
X0291353Y0134592D01*
X0291310Y0134547D01*
X0291264Y0134504D01*
X0291216Y0134465D01*
X0291165Y0134429D01*
X0291112Y0134396D01*
X0291057Y0134366D01*
X0291000Y0134340D01*
X0290942Y0134318D01*
X0290882Y0134300D01*
X0290822Y0134285D01*
X0290760Y0134274D01*
X0290698Y0134267D01*
X0290636Y0134264D01*
X0290573Y0134265D01*
X0290511Y0134270D01*
X0290449Y0134279D01*
X0290388Y0134292D01*
X0290328Y0134308D01*
X0290269Y0134329D01*
X0290211Y0134353D01*
X0290155Y0134381D01*
X0290101Y0134412D01*
X0290049Y0134446D01*
X0290000Y0134484D01*
X0289952Y0134525D01*
X0289908Y0134569D01*
X0289866Y0134615D01*
X0289828Y0134665D01*
X0289792Y0134716D01*
X0289760Y0134770D01*
X0289732Y0134825D01*
X0289706Y0134882D01*
X0289685Y0134941D01*
X0289668Y0135001D01*
X0289654Y0135062D01*
X0289644Y0135123D01*
X0289638Y0135186D01*
X0289636Y0135248D01*
X0289636Y0138398D02*
X0289638Y0138460D01*
X0289644Y0138523D01*
X0289654Y0138584D01*
X0289668Y0138645D01*
X0289685Y0138705D01*
X0289706Y0138764D01*
X0289732Y0138821D01*
X0289760Y0138876D01*
X0289792Y0138930D01*
X0289828Y0138981D01*
X0289866Y0139031D01*
X0289908Y0139077D01*
X0289952Y0139121D01*
X0290000Y0139162D01*
X0290049Y0139200D01*
X0290101Y0139234D01*
X0290155Y0139265D01*
X0290211Y0139293D01*
X0290269Y0139317D01*
X0290328Y0139338D01*
X0290388Y0139354D01*
X0290449Y0139367D01*
X0290511Y0139376D01*
X0290573Y0139381D01*
X0290636Y0139382D01*
X0290698Y0139379D01*
X0290760Y0139372D01*
X0290822Y0139361D01*
X0290882Y0139346D01*
X0290942Y0139328D01*
X0291000Y0139306D01*
X0291057Y0139280D01*
X0291112Y0139250D01*
X0291165Y0139217D01*
X0291216Y0139181D01*
X0291264Y0139142D01*
X0291310Y0139099D01*
X0291353Y0139054D01*
X0291393Y0139006D01*
X0291430Y0138956D01*
X0291464Y0138903D01*
X0291495Y0138849D01*
X0291521Y0138793D01*
X0291545Y0138735D01*
X0291564Y0138675D01*
X0291580Y0138615D01*
X0291592Y0138553D01*
X0291600Y0138492D01*
X0291604Y0138429D01*
X0291604Y0138367D01*
X0291600Y0138304D01*
X0291592Y0138243D01*
X0291580Y0138181D01*
X0291564Y0138121D01*
X0291545Y0138061D01*
X0291521Y0138003D01*
X0291495Y0137947D01*
X0291464Y0137893D01*
X0291430Y0137840D01*
X0291393Y0137790D01*
X0291353Y0137742D01*
X0291310Y0137697D01*
X0291264Y0137654D01*
X0291216Y0137615D01*
X0291165Y0137579D01*
X0291112Y0137546D01*
X0291057Y0137516D01*
X0291000Y0137490D01*
X0290942Y0137468D01*
X0290882Y0137450D01*
X0290822Y0137435D01*
X0290760Y0137424D01*
X0290698Y0137417D01*
X0290636Y0137414D01*
X0290573Y0137415D01*
X0290511Y0137420D01*
X0290449Y0137429D01*
X0290388Y0137442D01*
X0290328Y0137458D01*
X0290269Y0137479D01*
X0290211Y0137503D01*
X0290155Y0137531D01*
X0290101Y0137562D01*
X0290049Y0137596D01*
X0290000Y0137634D01*
X0289952Y0137675D01*
X0289908Y0137719D01*
X0289866Y0137765D01*
X0289828Y0137815D01*
X0289792Y0137866D01*
X0289760Y0137920D01*
X0289732Y0137975D01*
X0289706Y0138032D01*
X0289685Y0138091D01*
X0289668Y0138151D01*
X0289654Y0138212D01*
X0289644Y0138273D01*
X0289638Y0138336D01*
X0289636Y0138398D01*
X0289636Y0141547D02*
X0289638Y0141609D01*
X0289644Y0141672D01*
X0289654Y0141733D01*
X0289668Y0141794D01*
X0289685Y0141854D01*
X0289706Y0141913D01*
X0289732Y0141970D01*
X0289760Y0142025D01*
X0289792Y0142079D01*
X0289828Y0142130D01*
X0289866Y0142180D01*
X0289908Y0142226D01*
X0289952Y0142270D01*
X0290000Y0142311D01*
X0290049Y0142349D01*
X0290101Y0142383D01*
X0290155Y0142414D01*
X0290211Y0142442D01*
X0290269Y0142466D01*
X0290328Y0142487D01*
X0290388Y0142503D01*
X0290449Y0142516D01*
X0290511Y0142525D01*
X0290573Y0142530D01*
X0290636Y0142531D01*
X0290698Y0142528D01*
X0290760Y0142521D01*
X0290822Y0142510D01*
X0290882Y0142495D01*
X0290942Y0142477D01*
X0291000Y0142455D01*
X0291057Y0142429D01*
X0291112Y0142399D01*
X0291165Y0142366D01*
X0291216Y0142330D01*
X0291264Y0142291D01*
X0291310Y0142248D01*
X0291353Y0142203D01*
X0291393Y0142155D01*
X0291430Y0142105D01*
X0291464Y0142052D01*
X0291495Y0141998D01*
X0291521Y0141942D01*
X0291545Y0141884D01*
X0291564Y0141824D01*
X0291580Y0141764D01*
X0291592Y0141702D01*
X0291600Y0141641D01*
X0291604Y0141578D01*
X0291604Y0141516D01*
X0291600Y0141453D01*
X0291592Y0141392D01*
X0291580Y0141330D01*
X0291564Y0141270D01*
X0291545Y0141210D01*
X0291521Y0141152D01*
X0291495Y0141096D01*
X0291464Y0141042D01*
X0291430Y0140989D01*
X0291393Y0140939D01*
X0291353Y0140891D01*
X0291310Y0140846D01*
X0291264Y0140803D01*
X0291216Y0140764D01*
X0291165Y0140728D01*
X0291112Y0140695D01*
X0291057Y0140665D01*
X0291000Y0140639D01*
X0290942Y0140617D01*
X0290882Y0140599D01*
X0290822Y0140584D01*
X0290760Y0140573D01*
X0290698Y0140566D01*
X0290636Y0140563D01*
X0290573Y0140564D01*
X0290511Y0140569D01*
X0290449Y0140578D01*
X0290388Y0140591D01*
X0290328Y0140607D01*
X0290269Y0140628D01*
X0290211Y0140652D01*
X0290155Y0140680D01*
X0290101Y0140711D01*
X0290049Y0140745D01*
X0290000Y0140783D01*
X0289952Y0140824D01*
X0289908Y0140868D01*
X0289866Y0140914D01*
X0289828Y0140964D01*
X0289792Y0141015D01*
X0289760Y0141069D01*
X0289732Y0141124D01*
X0289706Y0141181D01*
X0289685Y0141240D01*
X0289668Y0141300D01*
X0289654Y0141361D01*
X0289644Y0141422D01*
X0289638Y0141485D01*
X0289636Y0141547D01*
X0245344Y0159264D02*
X0245346Y0159412D01*
X0245352Y0159560D01*
X0245362Y0159708D01*
X0245376Y0159855D01*
X0245394Y0160002D01*
X0245415Y0160148D01*
X0245441Y0160294D01*
X0245471Y0160439D01*
X0245504Y0160583D01*
X0245542Y0160726D01*
X0245583Y0160868D01*
X0245628Y0161009D01*
X0245676Y0161149D01*
X0245729Y0161288D01*
X0245785Y0161425D01*
X0245845Y0161560D01*
X0245908Y0161694D01*
X0245975Y0161826D01*
X0246046Y0161956D01*
X0246120Y0162084D01*
X0246197Y0162210D01*
X0246278Y0162334D01*
X0246362Y0162456D01*
X0246449Y0162575D01*
X0246540Y0162692D01*
X0246634Y0162807D01*
X0246730Y0162919D01*
X0246830Y0163029D01*
X0246932Y0163135D01*
X0247038Y0163239D01*
X0247146Y0163340D01*
X0247257Y0163438D01*
X0247370Y0163534D01*
X0247486Y0163626D01*
X0247604Y0163715D01*
X0247725Y0163800D01*
X0247848Y0163883D01*
X0247973Y0163962D01*
X0248100Y0164038D01*
X0248229Y0164110D01*
X0248360Y0164179D01*
X0248493Y0164244D01*
X0248628Y0164305D01*
X0248764Y0164363D01*
X0248901Y0164418D01*
X0249040Y0164468D01*
X0249181Y0164515D01*
X0249322Y0164558D01*
X0249465Y0164598D01*
X0249609Y0164633D01*
X0249753Y0164665D01*
X0249899Y0164692D01*
X0250045Y0164716D01*
X0250192Y0164736D01*
X0250339Y0164752D01*
X0250486Y0164764D01*
X0250634Y0164772D01*
X0250782Y0164776D01*
X0250930Y0164776D01*
X0251078Y0164772D01*
X0251226Y0164764D01*
X0251373Y0164752D01*
X0251520Y0164736D01*
X0251667Y0164716D01*
X0251813Y0164692D01*
X0251959Y0164665D01*
X0252103Y0164633D01*
X0252247Y0164598D01*
X0252390Y0164558D01*
X0252531Y0164515D01*
X0252672Y0164468D01*
X0252811Y0164418D01*
X0252948Y0164363D01*
X0253084Y0164305D01*
X0253219Y0164244D01*
X0253352Y0164179D01*
X0253483Y0164110D01*
X0253612Y0164038D01*
X0253739Y0163962D01*
X0253864Y0163883D01*
X0253987Y0163800D01*
X0254108Y0163715D01*
X0254226Y0163626D01*
X0254342Y0163534D01*
X0254455Y0163438D01*
X0254566Y0163340D01*
X0254674Y0163239D01*
X0254780Y0163135D01*
X0254882Y0163029D01*
X0254982Y0162919D01*
X0255078Y0162807D01*
X0255172Y0162692D01*
X0255263Y0162575D01*
X0255350Y0162456D01*
X0255434Y0162334D01*
X0255515Y0162210D01*
X0255592Y0162084D01*
X0255666Y0161956D01*
X0255737Y0161826D01*
X0255804Y0161694D01*
X0255867Y0161560D01*
X0255927Y0161425D01*
X0255983Y0161288D01*
X0256036Y0161149D01*
X0256084Y0161009D01*
X0256129Y0160868D01*
X0256170Y0160726D01*
X0256208Y0160583D01*
X0256241Y0160439D01*
X0256271Y0160294D01*
X0256297Y0160148D01*
X0256318Y0160002D01*
X0256336Y0159855D01*
X0256350Y0159708D01*
X0256360Y0159560D01*
X0256366Y0159412D01*
X0256368Y0159264D01*
X0256366Y0159116D01*
X0256360Y0158968D01*
X0256350Y0158820D01*
X0256336Y0158673D01*
X0256318Y0158526D01*
X0256297Y0158380D01*
X0256271Y0158234D01*
X0256241Y0158089D01*
X0256208Y0157945D01*
X0256170Y0157802D01*
X0256129Y0157660D01*
X0256084Y0157519D01*
X0256036Y0157379D01*
X0255983Y0157240D01*
X0255927Y0157103D01*
X0255867Y0156968D01*
X0255804Y0156834D01*
X0255737Y0156702D01*
X0255666Y0156572D01*
X0255592Y0156444D01*
X0255515Y0156318D01*
X0255434Y0156194D01*
X0255350Y0156072D01*
X0255263Y0155953D01*
X0255172Y0155836D01*
X0255078Y0155721D01*
X0254982Y0155609D01*
X0254882Y0155499D01*
X0254780Y0155393D01*
X0254674Y0155289D01*
X0254566Y0155188D01*
X0254455Y0155090D01*
X0254342Y0154994D01*
X0254226Y0154902D01*
X0254108Y0154813D01*
X0253987Y0154728D01*
X0253864Y0154645D01*
X0253739Y0154566D01*
X0253612Y0154490D01*
X0253483Y0154418D01*
X0253352Y0154349D01*
X0253219Y0154284D01*
X0253084Y0154223D01*
X0252948Y0154165D01*
X0252811Y0154110D01*
X0252672Y0154060D01*
X0252531Y0154013D01*
X0252390Y0153970D01*
X0252247Y0153930D01*
X0252103Y0153895D01*
X0251959Y0153863D01*
X0251813Y0153836D01*
X0251667Y0153812D01*
X0251520Y0153792D01*
X0251373Y0153776D01*
X0251226Y0153764D01*
X0251078Y0153756D01*
X0250930Y0153752D01*
X0250782Y0153752D01*
X0250634Y0153756D01*
X0250486Y0153764D01*
X0250339Y0153776D01*
X0250192Y0153792D01*
X0250045Y0153812D01*
X0249899Y0153836D01*
X0249753Y0153863D01*
X0249609Y0153895D01*
X0249465Y0153930D01*
X0249322Y0153970D01*
X0249181Y0154013D01*
X0249040Y0154060D01*
X0248901Y0154110D01*
X0248764Y0154165D01*
X0248628Y0154223D01*
X0248493Y0154284D01*
X0248360Y0154349D01*
X0248229Y0154418D01*
X0248100Y0154490D01*
X0247973Y0154566D01*
X0247848Y0154645D01*
X0247725Y0154728D01*
X0247604Y0154813D01*
X0247486Y0154902D01*
X0247370Y0154994D01*
X0247257Y0155090D01*
X0247146Y0155188D01*
X0247038Y0155289D01*
X0246932Y0155393D01*
X0246830Y0155499D01*
X0246730Y0155609D01*
X0246634Y0155721D01*
X0246540Y0155836D01*
X0246449Y0155953D01*
X0246362Y0156072D01*
X0246278Y0156194D01*
X0246197Y0156318D01*
X0246120Y0156444D01*
X0246046Y0156572D01*
X0245975Y0156702D01*
X0245908Y0156834D01*
X0245845Y0156968D01*
X0245785Y0157103D01*
X0245729Y0157240D01*
X0245676Y0157379D01*
X0245628Y0157519D01*
X0245583Y0157660D01*
X0245542Y0157802D01*
X0245504Y0157945D01*
X0245471Y0158089D01*
X0245441Y0158234D01*
X0245415Y0158380D01*
X0245394Y0158526D01*
X0245376Y0158673D01*
X0245362Y0158820D01*
X0245352Y0158968D01*
X0245346Y0159116D01*
X0245344Y0159264D01*
X0048494Y0159264D02*
X0048496Y0159412D01*
X0048502Y0159560D01*
X0048512Y0159708D01*
X0048526Y0159855D01*
X0048544Y0160002D01*
X0048565Y0160148D01*
X0048591Y0160294D01*
X0048621Y0160439D01*
X0048654Y0160583D01*
X0048692Y0160726D01*
X0048733Y0160868D01*
X0048778Y0161009D01*
X0048826Y0161149D01*
X0048879Y0161288D01*
X0048935Y0161425D01*
X0048995Y0161560D01*
X0049058Y0161694D01*
X0049125Y0161826D01*
X0049196Y0161956D01*
X0049270Y0162084D01*
X0049347Y0162210D01*
X0049428Y0162334D01*
X0049512Y0162456D01*
X0049599Y0162575D01*
X0049690Y0162692D01*
X0049784Y0162807D01*
X0049880Y0162919D01*
X0049980Y0163029D01*
X0050082Y0163135D01*
X0050188Y0163239D01*
X0050296Y0163340D01*
X0050407Y0163438D01*
X0050520Y0163534D01*
X0050636Y0163626D01*
X0050754Y0163715D01*
X0050875Y0163800D01*
X0050998Y0163883D01*
X0051123Y0163962D01*
X0051250Y0164038D01*
X0051379Y0164110D01*
X0051510Y0164179D01*
X0051643Y0164244D01*
X0051778Y0164305D01*
X0051914Y0164363D01*
X0052051Y0164418D01*
X0052190Y0164468D01*
X0052331Y0164515D01*
X0052472Y0164558D01*
X0052615Y0164598D01*
X0052759Y0164633D01*
X0052903Y0164665D01*
X0053049Y0164692D01*
X0053195Y0164716D01*
X0053342Y0164736D01*
X0053489Y0164752D01*
X0053636Y0164764D01*
X0053784Y0164772D01*
X0053932Y0164776D01*
X0054080Y0164776D01*
X0054228Y0164772D01*
X0054376Y0164764D01*
X0054523Y0164752D01*
X0054670Y0164736D01*
X0054817Y0164716D01*
X0054963Y0164692D01*
X0055109Y0164665D01*
X0055253Y0164633D01*
X0055397Y0164598D01*
X0055540Y0164558D01*
X0055681Y0164515D01*
X0055822Y0164468D01*
X0055961Y0164418D01*
X0056098Y0164363D01*
X0056234Y0164305D01*
X0056369Y0164244D01*
X0056502Y0164179D01*
X0056633Y0164110D01*
X0056762Y0164038D01*
X0056889Y0163962D01*
X0057014Y0163883D01*
X0057137Y0163800D01*
X0057258Y0163715D01*
X0057376Y0163626D01*
X0057492Y0163534D01*
X0057605Y0163438D01*
X0057716Y0163340D01*
X0057824Y0163239D01*
X0057930Y0163135D01*
X0058032Y0163029D01*
X0058132Y0162919D01*
X0058228Y0162807D01*
X0058322Y0162692D01*
X0058413Y0162575D01*
X0058500Y0162456D01*
X0058584Y0162334D01*
X0058665Y0162210D01*
X0058742Y0162084D01*
X0058816Y0161956D01*
X0058887Y0161826D01*
X0058954Y0161694D01*
X0059017Y0161560D01*
X0059077Y0161425D01*
X0059133Y0161288D01*
X0059186Y0161149D01*
X0059234Y0161009D01*
X0059279Y0160868D01*
X0059320Y0160726D01*
X0059358Y0160583D01*
X0059391Y0160439D01*
X0059421Y0160294D01*
X0059447Y0160148D01*
X0059468Y0160002D01*
X0059486Y0159855D01*
X0059500Y0159708D01*
X0059510Y0159560D01*
X0059516Y0159412D01*
X0059518Y0159264D01*
X0059516Y0159116D01*
X0059510Y0158968D01*
X0059500Y0158820D01*
X0059486Y0158673D01*
X0059468Y0158526D01*
X0059447Y0158380D01*
X0059421Y0158234D01*
X0059391Y0158089D01*
X0059358Y0157945D01*
X0059320Y0157802D01*
X0059279Y0157660D01*
X0059234Y0157519D01*
X0059186Y0157379D01*
X0059133Y0157240D01*
X0059077Y0157103D01*
X0059017Y0156968D01*
X0058954Y0156834D01*
X0058887Y0156702D01*
X0058816Y0156572D01*
X0058742Y0156444D01*
X0058665Y0156318D01*
X0058584Y0156194D01*
X0058500Y0156072D01*
X0058413Y0155953D01*
X0058322Y0155836D01*
X0058228Y0155721D01*
X0058132Y0155609D01*
X0058032Y0155499D01*
X0057930Y0155393D01*
X0057824Y0155289D01*
X0057716Y0155188D01*
X0057605Y0155090D01*
X0057492Y0154994D01*
X0057376Y0154902D01*
X0057258Y0154813D01*
X0057137Y0154728D01*
X0057014Y0154645D01*
X0056889Y0154566D01*
X0056762Y0154490D01*
X0056633Y0154418D01*
X0056502Y0154349D01*
X0056369Y0154284D01*
X0056234Y0154223D01*
X0056098Y0154165D01*
X0055961Y0154110D01*
X0055822Y0154060D01*
X0055681Y0154013D01*
X0055540Y0153970D01*
X0055397Y0153930D01*
X0055253Y0153895D01*
X0055109Y0153863D01*
X0054963Y0153836D01*
X0054817Y0153812D01*
X0054670Y0153792D01*
X0054523Y0153776D01*
X0054376Y0153764D01*
X0054228Y0153756D01*
X0054080Y0153752D01*
X0053932Y0153752D01*
X0053784Y0153756D01*
X0053636Y0153764D01*
X0053489Y0153776D01*
X0053342Y0153792D01*
X0053195Y0153812D01*
X0053049Y0153836D01*
X0052903Y0153863D01*
X0052759Y0153895D01*
X0052615Y0153930D01*
X0052472Y0153970D01*
X0052331Y0154013D01*
X0052190Y0154060D01*
X0052051Y0154110D01*
X0051914Y0154165D01*
X0051778Y0154223D01*
X0051643Y0154284D01*
X0051510Y0154349D01*
X0051379Y0154418D01*
X0051250Y0154490D01*
X0051123Y0154566D01*
X0050998Y0154645D01*
X0050875Y0154728D01*
X0050754Y0154813D01*
X0050636Y0154902D01*
X0050520Y0154994D01*
X0050407Y0155090D01*
X0050296Y0155188D01*
X0050188Y0155289D01*
X0050082Y0155393D01*
X0049980Y0155499D01*
X0049880Y0155609D01*
X0049784Y0155721D01*
X0049690Y0155836D01*
X0049599Y0155953D01*
X0049512Y0156072D01*
X0049428Y0156194D01*
X0049347Y0156318D01*
X0049270Y0156444D01*
X0049196Y0156572D01*
X0049125Y0156702D01*
X0049058Y0156834D01*
X0048995Y0156968D01*
X0048935Y0157103D01*
X0048879Y0157240D01*
X0048826Y0157379D01*
X0048778Y0157519D01*
X0048733Y0157660D01*
X0048692Y0157802D01*
X0048654Y0157945D01*
X0048621Y0158089D01*
X0048591Y0158234D01*
X0048565Y0158380D01*
X0048544Y0158526D01*
X0048526Y0158673D01*
X0048512Y0158820D01*
X0048502Y0158968D01*
X0048496Y0159116D01*
X0048494Y0159264D01*
D11*
X0034321Y0007689D02*
X0077628Y0007689D01*
X0077630Y0007813D01*
X0077636Y0007936D01*
X0077645Y0008060D01*
X0077659Y0008182D01*
X0077676Y0008305D01*
X0077698Y0008427D01*
X0077723Y0008548D01*
X0077752Y0008668D01*
X0077784Y0008787D01*
X0077821Y0008906D01*
X0077861Y0009023D01*
X0077904Y0009138D01*
X0077952Y0009253D01*
X0078003Y0009365D01*
X0078057Y0009476D01*
X0078115Y0009586D01*
X0078176Y0009693D01*
X0078241Y0009799D01*
X0078309Y0009902D01*
X0078380Y0010003D01*
X0078454Y0010102D01*
X0078531Y0010199D01*
X0078612Y0010293D01*
X0078695Y0010384D01*
X0078781Y0010473D01*
X0078870Y0010559D01*
X0078961Y0010642D01*
X0079055Y0010723D01*
X0079152Y0010800D01*
X0079251Y0010874D01*
X0079352Y0010945D01*
X0079455Y0011013D01*
X0079561Y0011078D01*
X0079668Y0011139D01*
X0079778Y0011197D01*
X0079889Y0011251D01*
X0080001Y0011302D01*
X0080116Y0011350D01*
X0080231Y0011393D01*
X0080348Y0011433D01*
X0080467Y0011470D01*
X0080586Y0011502D01*
X0080706Y0011531D01*
X0080827Y0011556D01*
X0080949Y0011578D01*
X0081072Y0011595D01*
X0081194Y0011609D01*
X0081318Y0011618D01*
X0081441Y0011624D01*
X0081565Y0011626D01*
X0097313Y0011626D01*
X0097437Y0011624D01*
X0097560Y0011618D01*
X0097684Y0011609D01*
X0097806Y0011595D01*
X0097929Y0011578D01*
X0098051Y0011556D01*
X0098172Y0011531D01*
X0098292Y0011502D01*
X0098411Y0011470D01*
X0098530Y0011433D01*
X0098647Y0011393D01*
X0098762Y0011350D01*
X0098877Y0011302D01*
X0098989Y0011251D01*
X0099100Y0011197D01*
X0099210Y0011139D01*
X0099317Y0011078D01*
X0099423Y0011013D01*
X0099526Y0010945D01*
X0099627Y0010874D01*
X0099726Y0010800D01*
X0099823Y0010723D01*
X0099917Y0010642D01*
X0100008Y0010559D01*
X0100097Y0010473D01*
X0100183Y0010384D01*
X0100266Y0010293D01*
X0100347Y0010199D01*
X0100424Y0010102D01*
X0100498Y0010003D01*
X0100569Y0009902D01*
X0100637Y0009799D01*
X0100702Y0009693D01*
X0100763Y0009586D01*
X0100821Y0009476D01*
X0100875Y0009365D01*
X0100926Y0009253D01*
X0100974Y0009138D01*
X0101017Y0009023D01*
X0101057Y0008906D01*
X0101094Y0008787D01*
X0101126Y0008668D01*
X0101155Y0008548D01*
X0101180Y0008427D01*
X0101202Y0008305D01*
X0101219Y0008182D01*
X0101233Y0008060D01*
X0101242Y0007936D01*
X0101248Y0007813D01*
X0101250Y0007689D01*
X0203612Y0007689D01*
X0203614Y0007813D01*
X0203620Y0007936D01*
X0203629Y0008060D01*
X0203643Y0008182D01*
X0203660Y0008305D01*
X0203682Y0008427D01*
X0203707Y0008548D01*
X0203736Y0008668D01*
X0203768Y0008787D01*
X0203805Y0008906D01*
X0203845Y0009023D01*
X0203888Y0009138D01*
X0203936Y0009253D01*
X0203987Y0009365D01*
X0204041Y0009476D01*
X0204099Y0009586D01*
X0204160Y0009693D01*
X0204225Y0009799D01*
X0204293Y0009902D01*
X0204364Y0010003D01*
X0204438Y0010102D01*
X0204515Y0010199D01*
X0204596Y0010293D01*
X0204679Y0010384D01*
X0204765Y0010473D01*
X0204854Y0010559D01*
X0204945Y0010642D01*
X0205039Y0010723D01*
X0205136Y0010800D01*
X0205235Y0010874D01*
X0205336Y0010945D01*
X0205439Y0011013D01*
X0205545Y0011078D01*
X0205652Y0011139D01*
X0205762Y0011197D01*
X0205873Y0011251D01*
X0205985Y0011302D01*
X0206100Y0011350D01*
X0206215Y0011393D01*
X0206332Y0011433D01*
X0206451Y0011470D01*
X0206570Y0011502D01*
X0206690Y0011531D01*
X0206811Y0011556D01*
X0206933Y0011578D01*
X0207056Y0011595D01*
X0207178Y0011609D01*
X0207302Y0011618D01*
X0207425Y0011624D01*
X0207549Y0011626D01*
X0223297Y0011626D01*
X0223421Y0011624D01*
X0223544Y0011618D01*
X0223668Y0011609D01*
X0223790Y0011595D01*
X0223913Y0011578D01*
X0224035Y0011556D01*
X0224156Y0011531D01*
X0224276Y0011502D01*
X0224395Y0011470D01*
X0224514Y0011433D01*
X0224631Y0011393D01*
X0224746Y0011350D01*
X0224861Y0011302D01*
X0224973Y0011251D01*
X0225084Y0011197D01*
X0225194Y0011139D01*
X0225301Y0011078D01*
X0225407Y0011013D01*
X0225510Y0010945D01*
X0225611Y0010874D01*
X0225710Y0010800D01*
X0225807Y0010723D01*
X0225901Y0010642D01*
X0225992Y0010559D01*
X0226081Y0010473D01*
X0226167Y0010384D01*
X0226250Y0010293D01*
X0226331Y0010199D01*
X0226408Y0010102D01*
X0226482Y0010003D01*
X0226553Y0009902D01*
X0226621Y0009799D01*
X0226686Y0009693D01*
X0226747Y0009586D01*
X0226805Y0009476D01*
X0226859Y0009365D01*
X0226910Y0009253D01*
X0226958Y0009138D01*
X0227001Y0009023D01*
X0227041Y0008906D01*
X0227078Y0008787D01*
X0227110Y0008668D01*
X0227139Y0008548D01*
X0227164Y0008427D01*
X0227186Y0008305D01*
X0227203Y0008182D01*
X0227217Y0008060D01*
X0227226Y0007936D01*
X0227232Y0007813D01*
X0227234Y0007689D01*
X0270541Y0007689D01*
X0270541Y0031311D01*
X0270543Y0031435D01*
X0270549Y0031558D01*
X0270558Y0031682D01*
X0270572Y0031804D01*
X0270589Y0031927D01*
X0270611Y0032049D01*
X0270636Y0032170D01*
X0270665Y0032290D01*
X0270697Y0032409D01*
X0270734Y0032528D01*
X0270774Y0032645D01*
X0270817Y0032760D01*
X0270865Y0032875D01*
X0270916Y0032987D01*
X0270970Y0033098D01*
X0271028Y0033208D01*
X0271089Y0033315D01*
X0271154Y0033421D01*
X0271222Y0033524D01*
X0271293Y0033625D01*
X0271367Y0033724D01*
X0271444Y0033821D01*
X0271525Y0033915D01*
X0271608Y0034006D01*
X0271694Y0034095D01*
X0271783Y0034181D01*
X0271874Y0034264D01*
X0271968Y0034345D01*
X0272065Y0034422D01*
X0272164Y0034496D01*
X0272265Y0034567D01*
X0272368Y0034635D01*
X0272474Y0034700D01*
X0272581Y0034761D01*
X0272691Y0034819D01*
X0272802Y0034873D01*
X0272914Y0034924D01*
X0273029Y0034972D01*
X0273144Y0035015D01*
X0273261Y0035055D01*
X0273380Y0035092D01*
X0273499Y0035124D01*
X0273619Y0035153D01*
X0273740Y0035178D01*
X0273862Y0035200D01*
X0273985Y0035217D01*
X0274107Y0035231D01*
X0274231Y0035240D01*
X0274354Y0035246D01*
X0274478Y0035248D01*
X0288652Y0035248D01*
X0288651Y0035248D02*
X0288653Y0035335D01*
X0288659Y0035422D01*
X0288668Y0035509D01*
X0288682Y0035595D01*
X0288699Y0035680D01*
X0288720Y0035765D01*
X0288745Y0035848D01*
X0288773Y0035931D01*
X0288805Y0036012D01*
X0288841Y0036091D01*
X0288880Y0036169D01*
X0288922Y0036245D01*
X0288968Y0036319D01*
X0289017Y0036391D01*
X0289069Y0036461D01*
X0289124Y0036528D01*
X0289182Y0036593D01*
X0289243Y0036656D01*
X0289307Y0036715D01*
X0289373Y0036772D01*
X0289442Y0036825D01*
X0289513Y0036876D01*
X0289586Y0036923D01*
X0289661Y0036968D01*
X0289738Y0037008D01*
X0289816Y0037046D01*
X0289897Y0037079D01*
X0289978Y0037110D01*
X0290061Y0037136D01*
X0290146Y0037159D01*
X0290231Y0037178D01*
X0290316Y0037193D01*
X0290403Y0037205D01*
X0290489Y0037213D01*
X0290576Y0037217D01*
X0290664Y0037217D01*
X0290751Y0037213D01*
X0290837Y0037205D01*
X0290924Y0037193D01*
X0291009Y0037178D01*
X0291094Y0037159D01*
X0291179Y0037136D01*
X0291262Y0037110D01*
X0291343Y0037079D01*
X0291424Y0037046D01*
X0291502Y0037008D01*
X0291579Y0036968D01*
X0291654Y0036923D01*
X0291727Y0036876D01*
X0291798Y0036825D01*
X0291867Y0036772D01*
X0291933Y0036715D01*
X0291997Y0036656D01*
X0292058Y0036593D01*
X0292116Y0036528D01*
X0292171Y0036461D01*
X0292223Y0036391D01*
X0292272Y0036319D01*
X0292318Y0036245D01*
X0292360Y0036169D01*
X0292399Y0036091D01*
X0292435Y0036012D01*
X0292467Y0035931D01*
X0292495Y0035848D01*
X0292520Y0035765D01*
X0292541Y0035680D01*
X0292558Y0035595D01*
X0292572Y0035509D01*
X0292581Y0035422D01*
X0292587Y0035335D01*
X0292589Y0035248D01*
X0369360Y0035248D01*
X0369360Y0145484D01*
X0292589Y0145484D01*
X0292587Y0145397D01*
X0292581Y0145310D01*
X0292572Y0145223D01*
X0292558Y0145137D01*
X0292541Y0145052D01*
X0292520Y0144967D01*
X0292495Y0144884D01*
X0292467Y0144801D01*
X0292435Y0144720D01*
X0292399Y0144641D01*
X0292360Y0144563D01*
X0292318Y0144487D01*
X0292272Y0144413D01*
X0292223Y0144341D01*
X0292171Y0144271D01*
X0292116Y0144204D01*
X0292058Y0144139D01*
X0291997Y0144076D01*
X0291933Y0144017D01*
X0291867Y0143960D01*
X0291798Y0143907D01*
X0291727Y0143856D01*
X0291654Y0143809D01*
X0291579Y0143764D01*
X0291502Y0143724D01*
X0291424Y0143686D01*
X0291343Y0143653D01*
X0291262Y0143622D01*
X0291179Y0143596D01*
X0291094Y0143573D01*
X0291009Y0143554D01*
X0290924Y0143539D01*
X0290837Y0143527D01*
X0290751Y0143519D01*
X0290664Y0143515D01*
X0290576Y0143515D01*
X0290489Y0143519D01*
X0290403Y0143527D01*
X0290316Y0143539D01*
X0290231Y0143554D01*
X0290146Y0143573D01*
X0290061Y0143596D01*
X0289978Y0143622D01*
X0289897Y0143653D01*
X0289816Y0143686D01*
X0289738Y0143724D01*
X0289661Y0143764D01*
X0289586Y0143809D01*
X0289513Y0143856D01*
X0289442Y0143907D01*
X0289373Y0143960D01*
X0289307Y0144017D01*
X0289243Y0144076D01*
X0289182Y0144139D01*
X0289124Y0144204D01*
X0289069Y0144271D01*
X0289017Y0144341D01*
X0288968Y0144413D01*
X0288922Y0144487D01*
X0288880Y0144563D01*
X0288841Y0144641D01*
X0288805Y0144720D01*
X0288773Y0144801D01*
X0288745Y0144884D01*
X0288720Y0144967D01*
X0288699Y0145052D01*
X0288682Y0145137D01*
X0288668Y0145223D01*
X0288659Y0145310D01*
X0288653Y0145397D01*
X0288651Y0145484D01*
X0288652Y0145484D02*
X0274478Y0145484D01*
X0274354Y0145486D01*
X0274231Y0145492D01*
X0274107Y0145501D01*
X0273985Y0145515D01*
X0273862Y0145532D01*
X0273740Y0145554D01*
X0273619Y0145579D01*
X0273499Y0145608D01*
X0273380Y0145640D01*
X0273261Y0145677D01*
X0273144Y0145717D01*
X0273029Y0145760D01*
X0272914Y0145808D01*
X0272802Y0145859D01*
X0272691Y0145913D01*
X0272581Y0145971D01*
X0272474Y0146032D01*
X0272368Y0146097D01*
X0272265Y0146165D01*
X0272164Y0146236D01*
X0272065Y0146310D01*
X0271968Y0146387D01*
X0271874Y0146468D01*
X0271783Y0146551D01*
X0271694Y0146637D01*
X0271608Y0146726D01*
X0271525Y0146817D01*
X0271444Y0146911D01*
X0271367Y0147008D01*
X0271293Y0147107D01*
X0271222Y0147208D01*
X0271154Y0147311D01*
X0271089Y0147417D01*
X0271028Y0147524D01*
X0270970Y0147634D01*
X0270916Y0147745D01*
X0270865Y0147857D01*
X0270817Y0147972D01*
X0270774Y0148087D01*
X0270734Y0148204D01*
X0270697Y0148323D01*
X0270665Y0148442D01*
X0270636Y0148562D01*
X0270611Y0148683D01*
X0270589Y0148805D01*
X0270572Y0148928D01*
X0270558Y0149050D01*
X0270549Y0149174D01*
X0270543Y0149297D01*
X0270541Y0149421D01*
X0270541Y0173043D01*
X0227234Y0173043D01*
X0227232Y0172919D01*
X0227226Y0172796D01*
X0227217Y0172672D01*
X0227203Y0172550D01*
X0227186Y0172427D01*
X0227164Y0172305D01*
X0227139Y0172184D01*
X0227110Y0172064D01*
X0227078Y0171945D01*
X0227041Y0171826D01*
X0227001Y0171709D01*
X0226958Y0171594D01*
X0226910Y0171479D01*
X0226859Y0171367D01*
X0226805Y0171256D01*
X0226747Y0171146D01*
X0226686Y0171039D01*
X0226621Y0170933D01*
X0226553Y0170830D01*
X0226482Y0170729D01*
X0226408Y0170630D01*
X0226331Y0170533D01*
X0226250Y0170439D01*
X0226167Y0170348D01*
X0226081Y0170259D01*
X0225992Y0170173D01*
X0225901Y0170090D01*
X0225807Y0170009D01*
X0225710Y0169932D01*
X0225611Y0169858D01*
X0225510Y0169787D01*
X0225407Y0169719D01*
X0225301Y0169654D01*
X0225194Y0169593D01*
X0225084Y0169535D01*
X0224973Y0169481D01*
X0224861Y0169430D01*
X0224746Y0169382D01*
X0224631Y0169339D01*
X0224514Y0169299D01*
X0224395Y0169262D01*
X0224276Y0169230D01*
X0224156Y0169201D01*
X0224035Y0169176D01*
X0223913Y0169154D01*
X0223790Y0169137D01*
X0223668Y0169123D01*
X0223544Y0169114D01*
X0223421Y0169108D01*
X0223297Y0169106D01*
X0207549Y0169106D01*
X0207425Y0169108D01*
X0207302Y0169114D01*
X0207178Y0169123D01*
X0207056Y0169137D01*
X0206933Y0169154D01*
X0206811Y0169176D01*
X0206690Y0169201D01*
X0206570Y0169230D01*
X0206451Y0169262D01*
X0206332Y0169299D01*
X0206215Y0169339D01*
X0206100Y0169382D01*
X0205985Y0169430D01*
X0205873Y0169481D01*
X0205762Y0169535D01*
X0205652Y0169593D01*
X0205545Y0169654D01*
X0205439Y0169719D01*
X0205336Y0169787D01*
X0205235Y0169858D01*
X0205136Y0169932D01*
X0205039Y0170009D01*
X0204945Y0170090D01*
X0204854Y0170173D01*
X0204765Y0170259D01*
X0204679Y0170348D01*
X0204596Y0170439D01*
X0204515Y0170533D01*
X0204438Y0170630D01*
X0204364Y0170729D01*
X0204293Y0170830D01*
X0204225Y0170933D01*
X0204160Y0171039D01*
X0204099Y0171146D01*
X0204041Y0171256D01*
X0203987Y0171367D01*
X0203936Y0171479D01*
X0203888Y0171594D01*
X0203845Y0171709D01*
X0203805Y0171826D01*
X0203768Y0171945D01*
X0203736Y0172064D01*
X0203707Y0172184D01*
X0203682Y0172305D01*
X0203660Y0172427D01*
X0203643Y0172550D01*
X0203629Y0172672D01*
X0203620Y0172796D01*
X0203614Y0172919D01*
X0203612Y0173043D01*
X0101250Y0173043D01*
X0101248Y0172919D01*
X0101242Y0172796D01*
X0101233Y0172672D01*
X0101219Y0172550D01*
X0101202Y0172427D01*
X0101180Y0172305D01*
X0101155Y0172184D01*
X0101126Y0172064D01*
X0101094Y0171945D01*
X0101057Y0171826D01*
X0101017Y0171709D01*
X0100974Y0171594D01*
X0100926Y0171479D01*
X0100875Y0171367D01*
X0100821Y0171256D01*
X0100763Y0171146D01*
X0100702Y0171039D01*
X0100637Y0170933D01*
X0100569Y0170830D01*
X0100498Y0170729D01*
X0100424Y0170630D01*
X0100347Y0170533D01*
X0100266Y0170439D01*
X0100183Y0170348D01*
X0100097Y0170259D01*
X0100008Y0170173D01*
X0099917Y0170090D01*
X0099823Y0170009D01*
X0099726Y0169932D01*
X0099627Y0169858D01*
X0099526Y0169787D01*
X0099423Y0169719D01*
X0099317Y0169654D01*
X0099210Y0169593D01*
X0099100Y0169535D01*
X0098989Y0169481D01*
X0098877Y0169430D01*
X0098762Y0169382D01*
X0098647Y0169339D01*
X0098530Y0169299D01*
X0098411Y0169262D01*
X0098292Y0169230D01*
X0098172Y0169201D01*
X0098051Y0169176D01*
X0097929Y0169154D01*
X0097806Y0169137D01*
X0097684Y0169123D01*
X0097560Y0169114D01*
X0097437Y0169108D01*
X0097313Y0169106D01*
X0081565Y0169106D01*
X0081441Y0169108D01*
X0081318Y0169114D01*
X0081194Y0169123D01*
X0081072Y0169137D01*
X0080949Y0169154D01*
X0080827Y0169176D01*
X0080706Y0169201D01*
X0080586Y0169230D01*
X0080467Y0169262D01*
X0080348Y0169299D01*
X0080231Y0169339D01*
X0080116Y0169382D01*
X0080001Y0169430D01*
X0079889Y0169481D01*
X0079778Y0169535D01*
X0079668Y0169593D01*
X0079561Y0169654D01*
X0079455Y0169719D01*
X0079352Y0169787D01*
X0079251Y0169858D01*
X0079152Y0169932D01*
X0079055Y0170009D01*
X0078961Y0170090D01*
X0078870Y0170173D01*
X0078781Y0170259D01*
X0078695Y0170348D01*
X0078612Y0170439D01*
X0078531Y0170533D01*
X0078454Y0170630D01*
X0078380Y0170729D01*
X0078309Y0170830D01*
X0078241Y0170933D01*
X0078176Y0171039D01*
X0078115Y0171146D01*
X0078057Y0171256D01*
X0078003Y0171367D01*
X0077952Y0171479D01*
X0077904Y0171594D01*
X0077861Y0171709D01*
X0077821Y0171826D01*
X0077784Y0171945D01*
X0077752Y0172064D01*
X0077723Y0172184D01*
X0077698Y0172305D01*
X0077676Y0172427D01*
X0077659Y0172550D01*
X0077645Y0172672D01*
X0077636Y0172796D01*
X0077630Y0172919D01*
X0077628Y0173043D01*
X0034321Y0173043D01*
X0034321Y0007689D01*
X0288652Y0049421D02*
X0288652Y0131311D01*
X0288651Y0131311D02*
X0288653Y0131398D01*
X0288659Y0131485D01*
X0288668Y0131572D01*
X0288682Y0131658D01*
X0288699Y0131743D01*
X0288720Y0131828D01*
X0288745Y0131911D01*
X0288773Y0131994D01*
X0288805Y0132075D01*
X0288841Y0132154D01*
X0288880Y0132232D01*
X0288922Y0132308D01*
X0288968Y0132382D01*
X0289017Y0132454D01*
X0289069Y0132524D01*
X0289124Y0132591D01*
X0289182Y0132656D01*
X0289243Y0132719D01*
X0289307Y0132778D01*
X0289373Y0132835D01*
X0289442Y0132888D01*
X0289513Y0132939D01*
X0289586Y0132986D01*
X0289661Y0133031D01*
X0289738Y0133071D01*
X0289816Y0133109D01*
X0289897Y0133142D01*
X0289978Y0133173D01*
X0290061Y0133199D01*
X0290146Y0133222D01*
X0290231Y0133241D01*
X0290316Y0133256D01*
X0290403Y0133268D01*
X0290489Y0133276D01*
X0290576Y0133280D01*
X0290664Y0133280D01*
X0290751Y0133276D01*
X0290837Y0133268D01*
X0290924Y0133256D01*
X0291009Y0133241D01*
X0291094Y0133222D01*
X0291179Y0133199D01*
X0291262Y0133173D01*
X0291343Y0133142D01*
X0291424Y0133109D01*
X0291502Y0133071D01*
X0291579Y0133031D01*
X0291654Y0132986D01*
X0291727Y0132939D01*
X0291798Y0132888D01*
X0291867Y0132835D01*
X0291933Y0132778D01*
X0291997Y0132719D01*
X0292058Y0132656D01*
X0292116Y0132591D01*
X0292171Y0132524D01*
X0292223Y0132454D01*
X0292272Y0132382D01*
X0292318Y0132308D01*
X0292360Y0132232D01*
X0292399Y0132154D01*
X0292435Y0132075D01*
X0292467Y0131994D01*
X0292495Y0131911D01*
X0292520Y0131828D01*
X0292541Y0131743D01*
X0292558Y0131658D01*
X0292572Y0131572D01*
X0292581Y0131485D01*
X0292587Y0131398D01*
X0292589Y0131311D01*
X0292589Y0049421D01*
X0292587Y0049334D01*
X0292581Y0049247D01*
X0292572Y0049160D01*
X0292558Y0049074D01*
X0292541Y0048989D01*
X0292520Y0048904D01*
X0292495Y0048821D01*
X0292467Y0048738D01*
X0292435Y0048657D01*
X0292399Y0048578D01*
X0292360Y0048500D01*
X0292318Y0048424D01*
X0292272Y0048350D01*
X0292223Y0048278D01*
X0292171Y0048208D01*
X0292116Y0048141D01*
X0292058Y0048076D01*
X0291997Y0048013D01*
X0291933Y0047954D01*
X0291867Y0047897D01*
X0291798Y0047844D01*
X0291727Y0047793D01*
X0291654Y0047746D01*
X0291579Y0047701D01*
X0291502Y0047661D01*
X0291424Y0047623D01*
X0291343Y0047590D01*
X0291262Y0047559D01*
X0291179Y0047533D01*
X0291094Y0047510D01*
X0291009Y0047491D01*
X0290924Y0047476D01*
X0290837Y0047464D01*
X0290751Y0047456D01*
X0290664Y0047452D01*
X0290576Y0047452D01*
X0290489Y0047456D01*
X0290403Y0047464D01*
X0290316Y0047476D01*
X0290231Y0047491D01*
X0290146Y0047510D01*
X0290061Y0047533D01*
X0289978Y0047559D01*
X0289897Y0047590D01*
X0289816Y0047623D01*
X0289738Y0047661D01*
X0289661Y0047701D01*
X0289586Y0047746D01*
X0289513Y0047793D01*
X0289442Y0047844D01*
X0289373Y0047897D01*
X0289307Y0047954D01*
X0289243Y0048013D01*
X0289182Y0048076D01*
X0289124Y0048141D01*
X0289069Y0048208D01*
X0289017Y0048278D01*
X0288968Y0048350D01*
X0288922Y0048424D01*
X0288880Y0048500D01*
X0288841Y0048578D01*
X0288805Y0048657D01*
X0288773Y0048738D01*
X0288745Y0048821D01*
X0288720Y0048904D01*
X0288699Y0048989D01*
X0288682Y0049074D01*
X0288668Y0049160D01*
X0288659Y0049247D01*
X0288653Y0049334D01*
X0288651Y0049421D01*
D12*
X0065620Y0106862D03*
X0065620Y0114343D03*
D13*
X0105935Y0107610D03*
X0121683Y0107610D03*
D14*
X0081093Y0111390D03*
X0073219Y0115130D03*
X0073219Y0107650D03*
X0234715Y0105917D03*
X0242589Y0109657D03*
X0234715Y0113398D03*
X0234715Y0122059D03*
X0242589Y0125799D03*
X0234715Y0129539D03*
X0234715Y0138201D03*
X0242589Y0141941D03*
X0234715Y0145681D03*
D15*
X0096841Y0111272D03*
X0088179Y0107531D03*
X0096841Y0103791D03*
D16*
X0085834Y0132135D03*
X0085834Y0134035D03*
X0085834Y0136035D03*
X0085834Y0138035D03*
X0085834Y0139935D03*
X0068634Y0139935D03*
X0068634Y0138035D03*
X0068634Y0136035D03*
X0068634Y0134035D03*
X0068634Y0132135D03*
D17*
X0143612Y0108122D03*
X0151880Y0108043D03*
X0151880Y0101350D03*
X0143612Y0101429D03*
X0149085Y0086823D03*
X0155778Y0086823D03*
X0195148Y0081311D03*
X0201841Y0081311D03*
X0204596Y0070681D03*
X0197904Y0070681D03*
X0143967Y0047846D03*
X0137274Y0047846D03*
X0161880Y0040563D03*
X0170148Y0040563D03*
X0180384Y0040563D03*
X0190620Y0040563D03*
X0190620Y0033870D03*
X0180384Y0033870D03*
X0170148Y0033870D03*
X0161880Y0033870D03*
X0136880Y0028949D03*
X0130187Y0028949D03*
X0228809Y0106311D03*
X0228809Y0113004D03*
X0214045Y0109264D03*
X0207352Y0109264D03*
X0203022Y0117531D03*
X0196329Y0117531D03*
X0190226Y0130720D03*
X0190226Y0137413D03*
X0197510Y0137217D03*
X0204203Y0137217D03*
X0228809Y0138594D03*
X0228809Y0145287D03*
X0228809Y0129146D03*
X0228809Y0122453D03*
X0171722Y0130720D03*
X0162077Y0125012D03*
X0155384Y0125012D03*
X0157746Y0137217D03*
X0164439Y0137217D03*
X0171722Y0137413D03*
D18*
X0081368Y0124618D03*
X0073888Y0124618D03*
X0058927Y0124618D03*
X0051447Y0124618D03*
X0051447Y0133280D03*
X0058927Y0133280D03*
X0058927Y0141941D03*
X0051447Y0141941D03*
D19*
X0071722Y0147453D03*
X0082746Y0147453D03*
D20*
X0169584Y0116809D03*
X0171484Y0116809D03*
X0173484Y0116809D03*
X0175484Y0116809D03*
X0177384Y0116809D03*
X0179384Y0116809D03*
X0181384Y0116809D03*
X0183384Y0116809D03*
X0185284Y0116809D03*
X0187284Y0116809D03*
X0189284Y0116809D03*
X0191184Y0116809D03*
X0191184Y0083609D03*
X0189284Y0083609D03*
X0187284Y0083609D03*
X0185284Y0083609D03*
X0183384Y0083609D03*
X0181384Y0083609D03*
X0179384Y0083609D03*
X0177384Y0083609D03*
X0175484Y0083609D03*
X0173484Y0083609D03*
X0171484Y0083609D03*
X0169584Y0083609D03*
D21*
X0163784Y0089409D03*
X0163784Y0091309D03*
X0163784Y0093309D03*
X0163784Y0095309D03*
X0163784Y0097209D03*
X0163784Y0099209D03*
X0163784Y0101209D03*
X0163784Y0103209D03*
X0163784Y0105109D03*
X0163784Y0107109D03*
X0163784Y0109109D03*
X0163784Y0111009D03*
X0196984Y0111009D03*
X0196984Y0109109D03*
X0196984Y0107109D03*
X0196984Y0105109D03*
X0196984Y0103209D03*
X0196984Y0101209D03*
X0196984Y0099209D03*
X0196984Y0097209D03*
X0196984Y0095309D03*
X0196984Y0093309D03*
X0196984Y0091309D03*
X0196984Y0089409D03*
D22*
X0161880Y0117531D03*
X0150069Y0117531D03*
D23*
X0181171Y0130720D03*
X0181171Y0137413D03*
X0230187Y0093516D03*
X0236880Y0093516D03*
X0236880Y0084854D03*
X0230187Y0084854D03*
X0230187Y0076193D03*
X0236880Y0076193D03*
X0236880Y0067531D03*
X0230187Y0067531D03*
X0230187Y0058870D03*
X0236880Y0058870D03*
X0236880Y0050209D03*
X0230187Y0050209D03*
X0230187Y0038791D03*
X0236880Y0038791D03*
X0236880Y0030130D03*
X0230187Y0030130D03*
X0099085Y0025406D03*
X0092392Y0025406D03*
D24*
X0165423Y0152571D03*
X0198494Y0152571D03*
D25*
X0199656Y0062658D03*
X0204656Y0062658D03*
X0209656Y0062658D03*
X0214656Y0062658D03*
X0214656Y0044058D03*
X0209656Y0044058D03*
X0204656Y0044058D03*
X0199656Y0044058D03*
D26*
X0165674Y0052551D03*
X0165674Y0057551D03*
X0165674Y0062551D03*
X0165674Y0067551D03*
X0146274Y0067551D03*
X0146274Y0062551D03*
X0146274Y0057551D03*
X0146274Y0052551D03*
D27*
X0109518Y0037217D03*
X0103612Y0037217D03*
X0097707Y0037217D03*
X0091801Y0037217D03*
X0085896Y0037217D03*
X0079990Y0037217D03*
X0074085Y0037217D03*
X0068179Y0037217D03*
X0062274Y0037217D03*
X0056368Y0037217D03*
X0050463Y0037217D03*
X0044557Y0037217D03*
X0038652Y0037217D03*
X0038652Y0088398D03*
X0044557Y0088398D03*
X0050463Y0088398D03*
X0056368Y0088398D03*
X0062274Y0088398D03*
X0068179Y0088398D03*
X0074085Y0088398D03*
X0079990Y0088398D03*
X0085896Y0088398D03*
X0091801Y0088398D03*
X0097707Y0088398D03*
X0103612Y0088398D03*
X0109518Y0088398D03*
D28*
X0116407Y0083476D03*
X0116407Y0077571D03*
X0116407Y0071665D03*
X0116407Y0065760D03*
X0116407Y0059854D03*
X0116407Y0053949D03*
X0116407Y0048043D03*
X0116407Y0042138D03*
D29*
X0108337Y0123831D03*
X0108337Y0147453D03*
M02*
